<svg width="61" height="93" viewBox="0 0 61 93" fill="none" xmlns="http://www.w3.org/2000/svg">
<g clip-path="url(#clip0_296_122)">
<path d="M12.1295 46.3569C24.7024 48.0205 37.392 48.282 50.0232 47.1369C50.8797 47.0602 50.8886 45.7077 50.0232 45.7844C37.392 46.9295 24.7024 46.668 12.1295 45.0044C11.2775 44.8917 11.282 46.2487 12.1295 46.3569Z" fill="#727272"/>
<path d="M15.0304 92.0307C20.4649 92.725 25.9353 93.0631 31.4147 92.9865C36.2349 92.9189 41.925 93.1308 46.4448 91.2237C47.2295 90.8901 46.8843 89.5827 46.0861 89.9208C41.4497 91.8775 35.5085 91.6115 30.5493 91.643C25.3569 91.6791 20.1779 91.3365 15.0259 90.6782C14.1739 90.57 14.1784 91.9225 15.0304 92.0307Z" fill="#727272"/>
<path d="M11.6047 45.3155C5.3317 51.1673 2.40817 59.8909 3.0987 68.3981C3.45293 72.7937 4.69049 77.0675 6.55133 81.0529C8.24626 84.6866 10.7438 89.8937 14.4924 91.7827C15.2636 92.1704 15.9452 91.0072 15.1695 90.615C11.681 88.8568 9.30895 83.7939 7.71267 80.3721C5.85632 76.3823 4.64117 72.0498 4.39007 67.6452C3.94168 59.706 6.71275 51.7218 12.5598 46.2713C13.1965 45.6807 12.2414 44.7249 11.6047 45.3155Z" fill="#727272"/>
<path d="M49.5478 46.9522C56.1661 51.1223 56.7893 60.1164 56.6279 67.199C56.4486 75.0975 55.4755 87.6126 46.0862 89.9209C45.2477 90.1283 45.6019 91.4312 46.4449 91.2238C56.2468 88.8163 57.6547 76.3959 57.9507 68.0375C58.2242 60.2156 57.5337 50.3875 50.2248 45.7845C49.4895 45.3247 48.8169 46.4923 49.5478 46.9522Z" fill="#727272"/>
<path d="M16.5774 46.366C11.6406 51.7084 9.46138 60.6303 10.2954 67.785C10.7797 71.9462 12.089 76.0758 13.062 80.1378C14.0395 84.2088 15.0484 88.2483 17.2634 91.8414C17.7208 92.5807 18.8821 91.9 18.4248 91.1606C16.3442 87.7884 15.3757 84.0195 14.4565 80.2009C13.5687 76.5221 12.5329 72.8388 11.8468 69.1195C10.5465 62.0369 12.5822 52.6777 17.528 47.3218C18.1154 46.6816 17.1648 45.7259 16.5774 46.366Z" fill="#727272"/>
<path d="M23.2404 46.9295C19.5636 53.4395 17.631 60.8331 17.7297 68.3259C17.779 71.9235 18.2902 75.5257 19.2677 78.9881C20.4828 83.2845 22.3302 87.36 23.1373 91.7736C23.2942 92.6302 24.5901 92.265 24.4332 91.413C23.7292 87.5493 22.236 83.9517 21.0478 80.2278C19.8954 76.6122 19.2049 72.8838 19.0883 69.0833C18.8551 61.5679 20.7115 54.1427 24.4018 47.6102C24.8322 46.8528 23.6709 46.1721 23.2404 46.9295Z" fill="#727272"/>
<path d="M27.2045 48.2234C28.4825 55.7343 26.931 63.2586 27.061 70.8011C27.1193 74.2454 27.8861 77.4508 28.3345 80.8411C28.8008 84.3621 28.0027 87.9822 27.5677 91.4762C27.4601 92.3373 28.8053 92.3282 28.9129 91.4762C29.3523 87.9507 30.146 84.3034 29.6797 80.7509C29.2044 77.1172 28.4017 73.6728 28.3973 69.976C28.3883 62.5779 29.7514 55.2339 28.5004 47.8673C28.3524 47.0107 27.0566 47.3714 27.2045 48.2234Z" fill="#727272"/>
<path d="M32.2486 47.5968C34.6116 54.3818 34.8986 61.541 35.1363 68.6596C35.3963 76.3914 35.0107 84.0014 33.5759 91.6114C33.4144 92.4635 34.7103 92.8287 34.8717 91.9721C36.329 84.2448 36.746 76.5086 36.4815 68.6596C36.2393 61.4238 35.9434 54.1293 33.5445 47.2361C33.262 46.4246 31.9616 46.7762 32.2486 47.5968Z" fill="#727272"/>
<path d="M37.9077 47.6284C38.4054 49.1567 39.4815 50.1756 40.3066 51.519C41.2482 53.0519 41.7638 54.7876 42.0418 56.5548C42.6472 60.4139 42.3602 64.4534 42.3512 68.3441C42.3423 72.5774 42.6651 77.0541 41.5755 81.1882C40.616 84.8174 38.4143 87.9462 37.679 91.652C37.5086 92.5041 38.8044 92.8648 38.9748 92.0127C39.764 88.0454 42.2033 84.6867 43.0642 80.7374C43.9475 76.698 43.6875 72.4511 43.6964 68.3441C43.7054 64.5481 43.9341 60.6664 43.4364 56.8929C43.2166 55.2249 42.84 53.5748 42.1226 52.051C41.3244 50.3514 39.7864 49.0575 39.208 47.2722C38.9345 46.4472 37.6341 46.7988 37.9077 47.6284Z" fill="#727272"/>
<path d="M44.4498 47.4163C47.1223 49.941 48.4091 53.9714 49.3732 57.4518C50.3776 61.0765 50.0413 64.9447 49.8171 68.655C49.3642 76.1839 48.0997 83.7038 44.5081 90.4121C44.0956 91.1785 45.2569 91.8638 45.6695 91.0929C49.4987 83.9382 50.7767 75.8954 51.2026 67.8706C51.4179 63.8311 51.5927 59.8863 50.3327 55.9957C49.2387 52.6189 48.0325 48.9492 45.4004 46.4561C44.7727 45.8655 43.8176 46.8212 44.4498 47.4163Z" fill="#727272"/>
<path d="M16.4697 50.7977C16.3307 51.1538 16.1783 51.5055 16.0124 51.8526C15.8016 52.2899 16.0482 52.8895 16.5953 52.8715C16.9854 52.858 17.2948 52.6822 17.5728 52.4162C17.6625 52.3305 17.7521 52.2403 17.8373 52.1547C17.9494 52.042 17.8015 52.2223 17.8867 52.1186C17.8687 52.1457 17.7746 52.1367 17.8598 52.1457C17.6445 51.8616 17.4293 51.5731 17.2096 51.2891C17.1513 51.5911 17.0885 51.8932 17.0302 52.1998C16.9585 52.5559 17.1334 52.9301 17.501 53.0338C17.8329 53.124 18.2588 52.9211 18.3306 52.5604C18.3889 52.2584 18.4516 51.9563 18.5099 51.6498C18.5996 51.1899 18.3171 50.8383 17.8598 50.7932C17.4876 50.7571 17.1513 50.9555 16.8867 51.1989C16.7926 51.2846 16.7119 51.3747 16.6177 51.4604C16.5863 51.4875 16.5594 51.5145 16.528 51.5416C16.5415 51.528 16.5549 51.519 16.5684 51.5055C16.5011 51.5416 16.5011 51.5461 16.5774 51.5145C16.5011 51.5325 16.5056 51.537 16.5908 51.5145C16.7836 51.8526 16.9764 52.1908 17.1737 52.5334C17.3889 52.0826 17.5862 51.6227 17.7656 51.1583C17.8956 50.8157 17.6221 50.4145 17.2948 50.3243C16.9181 50.2206 16.6043 50.4551 16.4697 50.7977Z" fill="#727272"/>
<path d="M13.1385 58.8902C13.0757 59.2689 13.0129 59.6476 12.9501 60.0217C12.9008 60.3238 12.9815 60.6213 13.2595 60.7836C13.5061 60.9279 13.8783 60.9009 14.0756 60.68C14.2056 60.5312 14.3357 60.3824 14.4657 60.2336C14.5509 60.1345 14.672 59.9496 14.7751 59.8955C14.663 59.9271 14.5509 59.9586 14.4343 59.9857C14.4567 59.9812 14.4836 59.9812 14.5061 59.9767C14.394 59.9451 14.2819 59.9135 14.1653 59.8865C14.1832 59.9 14.2011 59.9135 14.2191 59.9271C14.107 59.7332 13.9949 59.5394 13.8873 59.341C13.9231 59.7287 13.8155 60.1615 13.7707 60.5537C13.7079 61.1173 14.376 61.3246 14.7841 61.1398C15.3132 60.8918 15.6674 60.4365 15.8557 59.891C15.4791 59.9902 15.1069 60.0894 14.7303 60.1886C14.7168 60.1029 14.7033 60.0172 14.6899 59.9316C14.4702 60.7746 15.7705 61.1353 15.9858 60.2922C16.0844 59.909 15.9947 59.4898 15.6808 59.2328C15.2773 58.9037 14.7347 59.0209 14.5554 59.5303C14.4747 59.7558 14.3088 59.873 14.1025 59.9722C14.4388 60.166 14.7751 60.3599 15.1159 60.5582C15.1831 59.9541 15.506 58.8811 14.6809 58.6512C13.9859 58.4574 13.4972 59.2869 13.1205 59.7242C13.4972 59.9451 13.8693 60.1615 14.246 60.3824C14.3088 60.0037 14.3715 59.625 14.4343 59.2508C14.4926 58.8902 14.3401 58.5205 13.9635 58.4168C13.6451 58.3311 13.1967 58.5295 13.1385 58.8902Z" fill="#727272"/>
<path d="M12.56 67.0367C12.6048 67.5687 12.6541 68.1007 12.699 68.6281C12.7662 69.381 13.7751 69.5568 14.0217 68.8085C14.1563 68.3937 14.3446 68.0195 14.5822 67.6498C14.1742 67.5957 13.7617 67.5416 13.3536 67.4875C13.5106 67.8798 13.6182 68.281 13.6765 68.7048C13.7437 69.1827 14.3222 69.2638 14.663 69.1105C14.8333 69.0339 14.9723 68.8851 15.062 68.7228C15.1024 68.6507 15.1338 68.565 15.1607 68.4884C15.1741 68.4478 15.1831 68.4072 15.1965 68.3666C15.219 68.299 15.21 68.3035 15.1786 68.3802C15.08 68.4388 14.9813 68.4974 14.8827 68.556C14.9051 68.547 14.932 68.5425 14.9544 68.5335C14.8333 68.5335 14.7168 68.5335 14.5957 68.5335C14.5867 68.5289 14.5778 68.5244 14.5733 68.5154C14.4926 68.4343 14.4119 68.3531 14.3311 68.272C14.3446 68.29 14.3536 68.308 14.367 68.3261C14.3446 68.1503 14.3222 67.9789 14.2998 67.8031C14.2953 67.8257 14.2953 67.8482 14.2908 67.8662C14.2415 68.2269 14.376 68.5921 14.7616 68.7003C15.0755 68.7859 15.5418 68.5921 15.5911 68.2269C15.6315 67.9339 15.6091 67.6679 15.3938 67.447C15.2145 67.2666 14.941 67.181 14.6899 67.208C14.4298 67.2396 14.2011 67.3929 14.0621 67.6138C14.0038 67.7084 13.9231 67.8392 13.9186 67.9474C13.9141 68.1052 13.8469 67.9925 13.9904 67.9293C14.3177 68.0646 14.6495 68.1998 14.9768 68.3351C14.9185 67.9158 14.8109 67.5146 14.654 67.1178C14.4388 66.5859 13.7572 66.4326 13.4254 66.9555C13.1294 67.4199 12.9008 67.9158 12.7304 68.4343C13.1698 68.4929 13.6092 68.556 14.0531 68.6146C14.0083 68.0826 13.959 67.5506 13.9141 67.0232C13.8827 66.658 13.6272 66.3469 13.2415 66.3469C12.8963 66.3604 12.5286 66.6715 12.56 67.0367Z" fill="#727272"/>
<path d="M14.1786 76.5762C14.2234 77.3561 14.6135 78.0369 15.2906 78.4336C15.739 78.6906 16.295 78.3615 16.304 77.8475C16.3084 77.4508 16.3981 77.0856 16.5506 76.7204C16.1739 76.8196 15.8018 76.9188 15.4251 77.018C15.6089 77.2434 15.8062 77.4418 16.026 77.6266C16.3847 77.9287 17.0393 77.8701 17.1514 77.3291C17.1783 77.2073 17.2097 77.1036 17.2501 76.9909C16.8734 77.0901 16.5013 77.1893 16.1246 77.2885C16.165 77.2659 16.1874 77.293 16.1829 77.3651C16.3264 77.7033 16.8196 77.7754 17.1021 77.6086C17.4474 77.4057 17.4877 77.0225 17.3442 76.6844C17.2859 76.5491 17.1918 76.4274 17.0752 76.3327C16.6582 76.0036 16.147 76.1253 15.9497 76.6303C15.9049 76.743 15.8735 76.8512 15.8511 76.9684C16.2277 76.8692 16.5999 76.77 16.9766 76.6708C16.7568 76.486 16.5595 76.2831 16.3757 76.0622C16.017 75.6204 15.4251 75.9495 15.2502 76.3598C15.0529 76.8331 14.9633 77.3336 14.9543 77.8475C15.2906 77.6537 15.6269 77.4598 15.9677 77.2614C15.7076 77.1127 15.5372 76.8782 15.5193 76.5717C15.4744 75.7151 14.1292 75.7061 14.1786 76.5762Z" fill="#727272"/>
<path d="M16.9497 85.8498C17.1066 86.2555 17.2949 86.6297 17.5505 86.9859C17.9496 87.5359 18.7433 87.333 18.806 86.6433C18.8105 86.6027 18.8823 86.1023 18.8554 86.0797C18.6625 86.2014 18.4742 86.3232 18.2814 86.4449C18.3263 86.508 18.3666 86.5666 18.4159 86.6252C18.5863 86.8416 18.7971 87.0265 19.0706 87.1031C19.2813 87.1572 19.5279 87.1302 19.7118 87.0129C19.8329 86.9318 19.918 86.8371 19.9808 86.7064C20.0032 86.6523 20.0257 86.5982 20.0481 86.5441C20.1512 86.2195 19.9539 86.1654 19.4607 86.3818C19.7297 87.2023 21.0301 86.8506 20.7565 86.0211C20.5682 85.4531 20.0212 85.0834 19.4248 85.3088C19.1827 85.4035 18.9719 85.5838 18.8554 85.8182C18.8195 85.8904 18.6894 86.2014 18.7343 86.2916C18.9944 86.1428 19.2499 85.9896 19.51 85.8408C19.4741 85.7957 19.4383 85.7551 19.4069 85.71C19.1917 85.2727 18.5684 85.0248 18.12 85.1871C17.4878 85.4125 17.5147 86.0887 17.4653 86.6478C17.8823 86.5351 18.2993 86.4224 18.7208 86.3051C18.537 86.0527 18.3711 85.7867 18.2545 85.4936C17.9317 84.6912 16.6313 85.0383 16.9497 85.8498Z" fill="#727272"/>
<path d="M24.1374 50.9824C23.6532 51.3476 23.2496 51.7804 22.9851 52.3349C22.6398 53.0563 23.4424 53.6243 24.0433 53.1555C24.1868 53.0427 24.3303 52.93 24.4737 52.8173C24.5365 52.7677 24.5993 52.7181 24.6666 52.6686C24.6979 52.6415 24.7293 52.619 24.7607 52.5919C24.8728 52.5108 24.8145 52.5243 24.5858 52.628C24.4737 52.5964 24.3616 52.5649 24.2451 52.5378C24.2585 52.5468 24.272 52.5558 24.2854 52.5649C24.2047 52.4837 24.124 52.4026 24.0433 52.3214C24.0298 52.2628 24.0119 52.2087 23.9984 52.1501C24.0029 52.087 24.0029 52.078 23.9895 52.1321C23.9581 52.1546 23.9491 52.3079 23.9491 52.3304C23.9177 52.5378 23.9357 52.7407 24.0433 52.93C24.1419 53.1014 24.3168 53.2546 24.5096 53.3042C24.5903 53.3268 24.6935 53.3358 24.7787 53.3358C24.8594 53.3358 24.9311 53.3223 25.0028 53.2952C25.097 53.2682 25.0656 53.2591 24.9042 53.2682C24.8056 53.2096 24.7069 53.1509 24.6083 53.0923C24.6217 53.1059 24.6352 53.1194 24.6486 53.1329C24.5903 53.0337 24.532 52.9345 24.4737 52.8354C24.4782 52.8489 24.4827 52.8669 24.4872 52.8804C24.5096 52.7046 24.532 52.5333 24.5545 52.3575C24.5455 52.371 24.541 52.3845 24.532 52.3981C24.124 53.1645 25.2853 53.8497 25.6934 53.0788C25.8683 52.7542 25.8279 52.389 25.5544 52.1321C25.4109 51.9968 25.2181 51.9157 25.0208 51.9112C24.9087 51.9066 24.7787 51.9788 24.68 51.9698C24.7921 52.0013 24.9042 52.0329 25.0208 52.0599C25.0029 52.0464 24.9849 52.0329 24.9715 52.0239C25.0522 52.105 25.1329 52.1862 25.2136 52.2673C25.2046 52.2493 25.1957 52.2312 25.1867 52.2132C25.2181 52.3259 25.2495 52.4386 25.2764 52.5558C25.2674 52.4702 25.2809 52.5153 25.3122 52.389C25.3481 52.2312 25.3526 52.0599 25.3167 51.8976C25.2405 51.573 24.9984 51.3386 24.6755 51.28C24.3392 51.2169 24.1105 51.3927 23.855 51.5911C23.5994 51.7894 23.3438 51.9923 23.0882 52.1907C23.4424 52.4657 23.7922 52.7362 24.1464 53.0112C24.3078 52.6776 24.5141 52.371 24.8145 52.1456C25.106 51.9292 25.2539 51.5595 25.0567 51.2214C24.8908 50.9374 24.4334 50.766 24.1374 50.9824Z" fill="#727272"/>
<path d="M21.5051 58.5925C21.393 59.1335 21.2853 59.6745 21.1732 60.22C21.0342 60.9097 21.7786 61.3065 22.2987 60.8782C22.4512 60.7519 22.5857 60.5941 22.6843 60.4228C22.7516 60.3056 22.8323 60.0667 22.8682 60.0081C22.7875 60.0892 22.7067 60.1704 22.626 60.2515C22.6485 60.238 22.6664 60.2245 22.6888 60.2064C22.5767 60.238 22.4646 60.2696 22.348 60.2966C22.3749 60.2921 22.4018 60.2921 22.4287 60.2876C22.3166 60.256 22.2045 60.2245 22.088 60.1974C21.9803 60.1478 21.9759 59.972 22.0073 60.2019C22.0162 60.2605 22.0297 60.3101 22.0476 60.3642C22.1104 60.5671 22.2225 60.7474 22.3929 60.8737C22.5498 60.9909 22.7337 61.054 22.9309 61.0495C23.052 61.045 23.1641 61.0134 23.2717 60.9593C23.33 60.9368 23.3793 60.9052 23.4242 60.8646C23.5408 60.7835 23.5094 60.788 23.3345 60.8692C23.2224 60.8376 23.1103 60.806 22.9937 60.779C23.0117 60.788 23.0161 60.797 23.0296 60.8331C23.3166 61.6491 24.6169 61.2974 24.3254 60.4724C24.1999 60.1163 24.0161 59.7872 23.6708 59.6113C23.4914 59.5167 23.2672 59.4896 23.0699 59.5347C22.8727 59.5798 22.7561 59.7105 22.5857 59.7917C22.6978 59.7601 22.8099 59.7286 22.9265 59.7015C22.904 59.7015 22.8771 59.7015 22.8547 59.7015C22.9668 59.7331 23.0789 59.7646 23.1955 59.7917C23.3166 60.0036 23.3524 60.0351 23.3031 59.8863C23.2941 59.8277 23.2852 59.7691 23.2762 59.7105C23.2448 59.5933 23.1955 59.4716 23.1327 59.3724C22.9668 59.1109 22.6933 58.9396 22.3839 58.9441C22.079 58.9486 21.801 59.1244 21.6575 59.3904C21.5364 59.6158 21.5454 59.7511 21.3391 59.9224C21.7158 60.1433 22.088 60.3597 22.4646 60.5806C22.5767 60.0396 22.6843 59.4986 22.7964 58.9576C22.9758 58.1011 21.6799 57.7404 21.5051 58.5925Z" fill="#727272"/>
<path d="M20.9854 65.5039C20.8464 66.2298 20.7567 66.9601 20.7343 67.695C20.7163 68.2089 21.3172 68.5335 21.7476 68.281C21.9449 68.1638 22.0884 68.006 22.196 67.8032C22.2364 67.7265 22.353 67.5507 22.3306 67.4831C22.3261 67.4741 22.2857 67.5327 22.3037 67.5236C22.1916 67.5552 22.0795 67.5868 21.9629 67.6138C21.9539 67.6183 21.9405 67.6183 21.9315 67.6228C21.8508 67.5417 21.7701 67.4605 21.6894 67.3794C21.7656 67.4786 21.7566 67.4695 21.7656 67.5732C21.8149 68.1278 22.4785 68.4974 22.9135 68.0511C22.9628 67.997 23.0121 67.9474 23.0659 67.8978C22.9718 67.9429 22.8731 67.9339 22.779 67.8798C22.7207 67.7806 22.6624 67.6814 22.6041 67.5823C22.613 67.6093 22.622 67.6364 22.6355 67.6634C22.761 68.006 23.0928 68.2405 23.465 68.1368C23.7923 68.0466 24.0614 67.6499 23.9358 67.3027C23.5861 66.347 22.5682 66.4687 21.9629 67.0954C22.344 67.2531 22.7296 67.4154 23.1108 67.5732C23.057 66.9195 22.7341 66.2117 21.9629 66.2613C21.649 66.2793 21.371 66.4642 21.2051 66.7302C21.1468 66.8249 21.1064 66.9331 21.0616 67.0367C21.0123 67.1495 20.9271 67.19 21.0661 67.1089C21.4024 67.3027 21.7387 67.4966 22.0795 67.695C22.0974 67.0773 22.1647 66.4687 22.2812 65.8601C22.4471 65.0125 21.1513 64.6518 20.9854 65.5039Z" fill="#727272"/>
<path d="M21.6534 73.2265C21.8059 73.8306 21.9897 74.4212 22.2049 75.0028C22.3798 75.4761 22.9403 75.6745 23.3304 75.3003C23.5008 75.1335 23.6174 74.9396 23.6757 74.7052C23.6981 74.6105 23.716 74.4978 23.7205 74.4031C23.734 74.1146 23.7026 74.3536 23.7295 74.34C23.6174 74.3716 23.5053 74.4031 23.3887 74.4302C23.4201 74.4302 23.447 74.4257 23.4784 74.4257C23.3663 74.3941 23.2542 74.3626 23.1376 74.3355C23.0479 74.2949 23.0748 74.2544 23.1466 74.3806C23.1824 74.4437 23.2138 74.4978 23.2587 74.5564C23.3977 74.7368 23.5681 74.8585 23.7967 74.89C23.9985 74.9171 24.1913 74.8675 24.3617 74.7503C24.4559 74.6827 24.5411 74.606 24.6039 74.5068C24.6308 74.4527 24.6577 74.3986 24.6801 74.3445C24.7698 74.1687 24.6935 74.2138 24.4514 74.4843C24.3303 74.4843 24.2138 74.4843 24.0927 74.4843C24.0389 74.4392 23.9896 74.3896 23.9357 74.3445C23.9044 74.2318 23.873 74.1191 23.8461 74.0019C23.8461 74.029 23.8461 74.056 23.8461 74.0831C23.8326 74.9532 25.1778 74.9532 25.1913 74.0831C25.2002 73.6277 24.8863 73.2716 24.4514 73.1814C24.2182 73.1318 23.9851 73.1814 23.7923 73.3211C23.6981 73.3888 23.6219 73.4654 23.5591 73.5601C23.5456 73.5871 23.5322 73.6187 23.5143 73.6457C23.3977 73.8712 23.4291 73.8667 23.6129 73.6322C23.725 73.6007 23.8371 73.5691 23.9537 73.5421C23.9313 73.5466 23.9088 73.5466 23.8864 73.5511C23.9985 73.5826 24.1106 73.6142 24.2272 73.6412C24.42 73.7359 24.3214 73.7044 24.2496 73.5781C24.1958 73.4789 24.1241 73.3843 24.0434 73.3121C23.7878 73.0822 23.4515 73.0236 23.1331 73.1363C22.8775 73.2265 22.6847 73.4248 22.5547 73.6548C22.4829 73.7855 22.4471 73.9162 22.4202 74.0605C22.4067 74.1236 22.4202 74.304 22.3798 74.3445C22.7565 74.4437 23.1286 74.5429 23.5053 74.6421C23.2901 74.0605 23.1062 73.4654 22.9538 72.8658C22.734 72.0273 21.4382 72.3834 21.6534 73.2265Z" fill="#727272"/>
<path d="M22.3302 79.6869C22.5724 80.4037 22.8818 81.0935 23.2629 81.7427C23.5364 82.207 24.1418 82.1529 24.4242 81.7427C24.5005 81.63 24.5543 81.5128 24.5901 81.382C24.5946 81.3414 24.5991 81.3054 24.6081 81.2648C24.6798 81.0033 24.617 81.0123 24.4108 81.2964C24.2897 81.2964 24.1731 81.2964 24.0521 81.2964C23.8637 81.2378 23.9489 81.2513 24.0476 81.3595C24.1193 81.4361 24.209 81.5173 24.3032 81.5714C24.496 81.6796 24.7247 81.7202 24.9444 81.7021C25.4466 81.6661 25.7918 81.3324 25.9577 80.8771C26.2582 80.0611 24.9578 79.7049 24.6619 80.5164C24.7471 80.291 24.9578 80.4172 24.922 80.309C24.8951 80.2324 24.7381 80.1287 24.6664 80.0881C24.4467 79.9619 24.1821 79.9349 23.9445 80.016C23.7247 80.0881 23.5499 80.2549 23.4378 80.4578C23.3391 80.6382 23.366 80.9086 23.2584 81.0619C23.644 81.0619 24.0341 81.0619 24.4198 81.0619C24.0924 80.5074 23.8279 79.9394 23.6216 79.3307C23.3526 78.5102 22.0522 78.8619 22.3302 79.6869Z" fill="#727272"/>
<path d="M24.1016 87.4008C24.1061 87.775 24.1599 88.1492 24.2765 88.5008C24.3617 88.7578 24.5635 88.9471 24.837 88.9832C25.0836 89.0148 25.393 88.9021 25.5051 88.6586C25.5813 88.4963 25.6575 88.334 25.7338 88.1762C25.7696 88.0996 25.8055 88.0274 25.8369 87.9508C25.8548 87.9147 25.8728 87.8742 25.8907 87.8381C25.9266 87.7705 25.9266 87.7705 25.8907 87.8381C25.7921 87.8967 25.6934 87.9553 25.5948 88.0139C25.6082 88.0094 25.6262 88.0004 25.6396 87.9959C25.5185 87.9959 25.402 87.9959 25.2809 87.9959C25.2585 87.9869 25.2316 87.9733 25.2091 87.9643C25.1284 87.8832 25.0477 87.802 24.967 87.7209C24.8998 87.6082 24.9625 87.7028 24.9894 87.7795C25.0119 87.8516 25.0388 87.9192 25.0612 87.9914C25.1105 88.1311 25.1598 88.2754 25.2047 88.4152C25.3212 88.7623 25.6665 88.9877 26.0342 88.8885C26.366 88.7984 26.6216 88.4016 26.505 88.0545C26.3122 87.4955 26.1508 86.5758 25.3706 86.6795C24.7652 86.7606 24.5635 87.5 24.3393 87.9779C24.7473 88.032 25.1598 88.0861 25.5679 88.1402C25.4827 87.8742 25.4423 87.6578 25.4378 87.3963C25.4333 87.0446 25.1329 86.702 24.7652 86.72C24.411 86.7381 24.0971 87.0221 24.1016 87.4008Z" fill="#727272"/>
<path d="M30.2803 88.2211C30.2444 88.5277 30.2085 88.8388 30.1727 89.1453C30.1368 89.4339 30.4058 89.7269 30.6659 89.799C30.9708 89.8847 31.2533 89.7359 31.4237 89.488C31.5448 89.3121 31.6658 89.1408 31.7869 88.965C31.8407 88.8838 31.899 88.8072 31.9528 88.7261C31.9752 88.6945 31.9976 88.6629 32.02 88.6314C32.1187 88.4961 32.1052 88.5051 31.9842 88.6584C31.8721 88.69 31.76 88.7215 31.6434 88.7486C31.6658 88.7486 31.6838 88.7486 31.7062 88.7486C31.5941 88.717 31.482 88.6855 31.3654 88.6584C31.2309 88.424 31.186 88.3789 31.2309 88.5232C31.2443 88.5773 31.2533 88.6359 31.2667 88.69C31.2892 88.8027 31.3116 88.9109 31.3385 89.0236C31.3878 89.258 31.4102 89.533 31.5313 89.7449C31.6479 89.9433 31.8407 90.1146 32.0649 90.1777C32.4102 90.2724 32.6926 90.0966 32.8944 89.8261C33.1141 89.533 32.9393 89.0687 32.6523 88.9019C32.307 88.699 31.9528 88.8523 31.7331 89.1453C31.7241 89.1589 31.7151 89.1724 31.7062 89.1814C31.899 89.0687 32.0918 88.956 32.2891 88.8478C32.2756 88.8478 32.2622 88.8523 32.2487 88.8523C32.3608 88.8838 32.4729 88.9154 32.5895 88.9425C32.7061 89.0011 32.7778 89.3302 32.7106 88.9966C32.6926 88.9019 32.6702 88.8117 32.6523 88.717C32.6164 88.5502 32.585 88.3834 32.5492 88.2166C32.4684 87.865 32.2577 87.5223 31.89 87.4186C31.482 87.3059 31.1591 87.5404 30.9305 87.8469C30.7018 88.158 30.4865 88.4781 30.2668 88.7937C30.6838 88.9064 31.1008 89.0191 31.5223 89.1363C31.5582 88.8297 31.5941 88.5187 31.6299 88.2121C31.6703 87.8469 31.2892 87.5359 30.9574 87.5359C30.5583 87.5449 30.3251 87.8605 30.2803 88.2211Z" fill="#727272"/>
<path d="M30.926 75.8729C30.7601 76.5942 30.6794 77.3336 30.6929 78.073C30.7018 78.7086 31.6345 79.0377 31.9484 78.4156C32.0829 78.1451 32.2174 77.8791 32.3519 77.6086C32.4506 77.4102 32.5223 77.1623 32.7017 77.0225C32.603 77.0811 32.5044 77.1397 32.4057 77.1984C32.4057 77.1938 32.4057 77.1893 32.4102 77.1848C32.195 77.018 31.9797 76.8557 31.76 76.6889C31.8452 77.009 31.9304 77.3291 32.0156 77.6492C32.1232 78.0504 32.6389 78.2939 33.0021 78.0549C33.0649 78.0144 33.1276 77.9693 33.1904 77.9287C33.9078 77.4508 33.2352 76.2787 32.5133 76.761C32.4506 76.8016 32.3878 76.8467 32.325 76.8873C32.6523 77.0225 32.9841 77.1578 33.3115 77.293C33.2263 76.9729 33.1411 76.6528 33.0559 76.3328C32.9797 76.0487 32.7017 75.8323 32.4057 75.8368C31.4596 75.8549 31.1368 77.0361 30.787 77.7394C31.204 77.8521 31.621 77.9648 32.0425 78.082C32.0335 77.4553 32.0874 76.8512 32.2264 76.2381C32.4147 75.386 31.1188 75.0253 30.926 75.8729Z" fill="#727272"/>
<path d="M29.6434 65.7563C29.6748 66.2883 29.7017 66.8157 29.7331 67.3477C29.769 68.015 30.6209 68.2719 30.9886 67.6904C31.2487 67.2756 31.5087 66.8653 31.7688 66.4506C31.3832 66.4506 30.9931 66.4506 30.6075 66.4506C30.7016 66.6129 30.7599 66.7616 30.7689 66.951C30.8003 67.5461 31.4773 67.8301 31.9168 67.4289C32.2576 67.1223 32.4773 66.7526 32.6432 66.3243C32.3158 66.4596 31.984 66.5948 31.6567 66.7301C31.6567 66.7391 31.6567 66.7481 31.6522 66.7526C31.5939 66.6534 31.5356 66.5543 31.4773 66.4551C31.4908 66.4821 31.4998 66.5137 31.5132 66.5407C31.6522 66.8789 31.9571 67.1178 32.3427 67.0141C32.6566 66.9284 32.9526 66.5227 32.8136 66.1801C32.697 65.9051 32.5759 65.7383 32.3338 65.5579C31.9526 65.2739 31.4863 65.5985 31.3473 65.9637C31.2666 66.1711 31.1276 66.3243 30.9662 66.4731C31.3473 66.6309 31.7329 66.7932 32.1141 66.951C32.0916 66.5272 31.984 66.135 31.7688 65.7698C31.5043 65.3235 30.8765 65.3415 30.6075 65.7698C30.3474 66.1846 30.0873 66.5948 29.8273 67.0096C30.2443 67.1223 30.6613 67.235 31.0828 67.3522C31.0514 66.8202 31.0245 66.2928 30.9931 65.7608C30.9393 64.8907 29.5941 64.8862 29.6434 65.7563Z" fill="#727272"/>
<path d="M30.0067 56.8162C29.9663 57.1588 29.9484 57.5014 29.9573 57.8441C29.9708 58.3129 30.5358 58.7457 30.9707 58.4302C31.1949 58.2679 31.3339 58.083 31.4101 57.817C31.4281 57.7539 31.446 57.6818 31.455 57.6187C31.4639 57.56 31.4998 57.5555 31.4505 57.6006C31.2173 57.817 30.9707 58.1281 30.5985 57.6773C30.6389 57.7269 30.6254 57.7223 30.5985 57.6637C30.6299 57.7314 30.6524 57.808 30.6837 57.8756C30.7375 57.9928 30.8183 58.0965 30.9079 58.1867C31.1859 58.4617 31.5985 58.5158 31.9348 58.322C32.2531 58.1416 32.3562 57.7088 32.1769 57.3977C31.9886 57.0777 31.576 56.974 31.2577 57.1543C31.2442 57.1633 31.2263 57.1723 31.2128 57.1813C31.3249 57.1498 31.437 57.1182 31.5536 57.0912C31.5895 57.0867 31.9123 57.267 31.8854 57.276C31.9034 57.3121 31.9034 57.3121 31.8899 57.2805C31.8765 57.2445 31.863 57.2084 31.8451 57.1723C31.7913 57.0416 31.7285 56.9199 31.6299 56.8117C31.4101 56.5817 31.0694 56.469 30.76 56.5682C30.4685 56.6584 30.2757 56.8928 30.1815 57.1768C30.1591 57.24 30.1502 57.3031 30.1322 57.3707C30.1232 57.4023 30.1143 57.4293 30.1098 57.4609C30.0919 57.5195 30.0919 57.5195 30.1143 57.4609C30.1412 57.3752 30.1995 57.3076 30.2892 57.2625C30.6254 57.4564 30.9617 57.6502 31.3025 57.8486C31.2936 57.5059 31.3115 57.1633 31.3518 56.8207C31.3967 56.469 31.0111 56.1309 30.6793 56.1444C30.2802 56.1625 30.056 56.442 30.0067 56.8162Z" fill="#727272"/>
<path d="M29.5945 49.8823C29.469 50.3782 29.5317 50.8877 29.7963 51.325C30.1102 51.8569 30.8321 51.6946 31.0249 51.1627C31.0966 50.9643 30.989 51.2844 31.0563 51.0815C31.0832 51.0049 31.1056 51.0409 31.0383 51.0725C30.8321 51.1807 30.5541 51.1086 30.4913 50.8381C30.5765 51.1942 30.9756 51.4061 31.3208 51.3114C31.6795 51.2123 31.8768 50.8381 31.7916 50.4774C31.6706 49.9635 31.1146 49.6884 30.6169 49.8057C30.1281 49.9274 29.8905 50.3557 29.729 50.7975C30.1371 50.7434 30.5496 50.6893 30.9576 50.6352C30.8904 50.518 30.8814 50.527 30.868 50.3872C30.8769 50.4594 30.8724 50.3692 30.8724 50.3467C30.8814 50.1483 30.8455 50.4278 30.8904 50.234C30.9756 49.8913 30.7783 49.4856 30.4196 49.3999C30.0743 49.3278 29.6887 49.5126 29.5945 49.8823Z" fill="#727272"/>
<path d="M10.3673 48.2865C10.17 48.548 9.99068 48.823 9.83375 49.1116C9.56919 49.5849 10.0176 50.3243 10.5915 50.1034C10.7978 50.0268 10.9996 49.9456 11.2058 49.869C10.9323 49.7112 10.6543 49.5534 10.3763 49.3956C10.4122 49.4993 10.4301 49.5669 10.4256 49.6706C10.4211 50.0132 10.7395 50.3784 11.0982 50.3468C11.4345 50.3198 11.7215 50.2386 12.0219 50.0944C12.3492 49.9366 12.4344 49.4632 12.264 49.1702C12.0667 48.8321 11.6722 48.7689 11.3448 48.9267C11.2776 48.9583 11.152 48.9898 11.0982 48.9944C11.3224 49.2198 11.5466 49.4452 11.7708 49.6706C11.7753 49.4542 11.7439 49.2378 11.6722 49.0349C11.5601 48.7148 11.2058 48.4263 10.8426 48.5616C10.6364 48.6382 10.4346 48.7193 10.2283 48.796C10.4794 49.1251 10.735 49.4587 10.9861 49.7878C11.1475 49.4993 11.3224 49.2243 11.5197 48.9628C11.7394 48.6698 11.5645 48.2054 11.2776 48.0386C10.9413 47.8447 10.587 47.9935 10.3673 48.2865Z" fill="#727272"/>
<path d="M6.56047 55.8786C6.30489 56.4421 6.08518 57.0192 5.90582 57.6143C5.79372 57.984 6.04034 58.3266 6.37663 58.4483C6.66361 58.552 6.973 58.4889 7.2241 58.3266C7.33171 58.2544 7.40346 58.1823 7.48417 58.0876C7.79356 57.718 7.36758 58.1958 7.11648 57.8848C7.05819 57.7856 6.9999 57.6864 6.94161 57.5872C6.90574 57.461 6.93264 57.7225 6.93264 57.718C6.94609 57.8217 6.973 57.9299 7.0268 58.0245C7.12994 58.2003 7.31826 58.3446 7.51107 58.3987C7.87427 58.4979 8.3406 58.3581 8.49754 57.9885C8.64102 57.6548 8.59618 57.2626 8.2554 57.0643C7.97292 56.8974 7.47968 56.9696 7.3362 57.3077C7.34965 57.2897 7.3631 57.2716 7.38104 57.2581C7.47968 57.1995 7.57833 57.1409 7.67698 57.0823C7.81149 57.1229 7.94601 57.1634 8.08053 57.204C8.13882 57.3032 8.19711 57.4024 8.2554 57.5016C8.29128 57.6278 8.26437 57.3167 8.2554 57.2852C8.21953 57.1499 8.15676 57.0282 8.06708 56.929C7.90117 56.7532 7.68594 56.6495 7.44381 56.636C7.2241 56.6269 7.02232 56.6901 6.84296 56.8163C6.75777 56.8749 6.68603 56.9425 6.61877 57.0237C6.34076 57.3483 6.53357 57.0733 6.73983 57.1454C6.89677 57.4249 7.05371 57.6999 7.21065 57.9794C7.35413 57.4971 7.52452 57.0282 7.73078 56.5683C7.87875 56.2347 7.82495 55.8425 7.48865 55.6441C7.19271 55.4683 6.70844 55.545 6.56047 55.8786Z" fill="#727272"/>
<path d="M5.07185 63.8539C4.92837 64.6293 4.92837 65.3822 5.08082 66.1576C5.15705 66.5408 5.56957 66.6851 5.91035 66.631C6.10764 66.5994 6.29148 66.4867 6.43048 66.3379C6.48878 66.2748 6.54258 66.1982 6.59191 66.126C6.61881 66.0855 6.64123 66.0449 6.66365 65.9998C6.704 65.9367 6.69055 65.9412 6.61433 66.0043C6.49326 66.0043 6.37668 66.0043 6.25561 66.0043C6.287 66.0133 6.31839 66.0223 6.34977 66.0314C6.25113 65.9728 6.15248 65.9141 6.05383 65.8555C6.00451 65.7518 6.00003 65.7564 6.04487 65.8691C6.06729 65.9232 6.08971 65.9773 6.11212 66.0314C6.18387 66.1666 6.28251 66.2748 6.40806 66.356C6.70849 66.5588 6.98201 66.5453 7.30485 66.3965C7.63666 66.2478 7.71737 65.7609 7.54699 65.4723C7.34969 65.1297 6.95959 65.0801 6.62778 65.2289C6.60536 65.2379 6.57845 65.2514 6.55603 65.2604C6.73091 65.2379 6.9013 65.2154 7.07617 65.1928C7.04927 65.1838 7.02236 65.1793 6.99546 65.1703C7.09411 65.2289 7.19275 65.2875 7.2914 65.3461C7.3183 65.4363 7.3183 65.4453 7.29588 65.3777C7.27346 65.3055 7.24656 65.2379 7.21517 65.1748C7.17482 65.0981 7.12998 65.0215 7.0672 64.9584C6.87888 64.7555 6.61881 64.6608 6.34529 64.6879C6.10764 64.7104 5.8969 64.8276 5.73099 64.999C5.65028 65.0801 5.58302 65.1748 5.52473 65.274C5.51128 65.301 5.49334 65.3281 5.47989 65.3551C5.39469 65.4814 5.41711 65.4678 5.55163 65.3191C5.82515 65.4768 6.10316 65.6346 6.38116 65.7924C6.27803 65.2695 6.27355 64.733 6.37219 64.21C6.43945 63.8493 6.27355 63.4797 5.90138 63.376C5.56957 63.2903 5.13911 63.4932 5.07185 63.8539Z" fill="#727272"/>
<path d="M6.03145 73.6142C6.21978 73.9929 6.40362 74.3716 6.59194 74.7503C6.75785 75.0839 7.21073 75.1606 7.51115 74.9938C7.75328 74.8585 7.91919 74.6421 7.99542 74.3716C8.03129 74.2499 8.05371 74.0966 8.04026 73.9704C8.0268 73.8261 8.08958 73.8667 8.01335 73.9343C7.91471 73.9929 7.81606 74.0515 7.71741 74.1101C7.70845 74.1146 7.69948 74.1146 7.69051 74.1192C7.57841 74.0876 7.46631 74.056 7.34973 74.029C7.58289 74.1642 7.69499 74.3806 8.03577 74.3806C8.43933 74.3806 8.52901 74.1417 8.77114 73.9028C8.67249 73.9614 8.57385 74.02 8.4752 74.0786C8.34516 73.9974 8.21513 73.9163 8.0851 73.8306C8.1389 74.1913 8.59178 74.3897 8.91462 74.304C9.30024 74.1958 9.43925 73.8351 9.38544 73.47C9.32266 73.0642 8.94153 72.7622 8.54694 72.7216C8.0851 72.6765 7.78467 72.929 7.56496 73.3077C7.64567 73.2265 7.72638 73.1454 7.80709 73.0642C7.78467 73.0822 7.75777 73.1003 7.73535 73.1183C7.84745 73.0868 7.95955 73.0552 8.07613 73.0281C8.05371 73.0281 8.0268 73.0281 8.00438 73.0281C8.11648 73.0597 8.22858 73.0913 8.34516 73.1183C8.26445 73.0732 8.05371 72.8433 7.87435 72.7937C7.61877 72.7216 7.34973 72.7757 7.13898 72.9335C6.95066 73.0732 6.82063 73.2806 6.75337 73.5015C6.70853 73.6413 6.75785 73.9253 6.68611 74.0245C6.76682 73.9433 6.84753 73.8622 6.92824 73.781C6.90134 73.7946 6.87443 73.8126 6.84304 73.8261C7.14795 73.9073 7.45734 73.9884 7.76225 74.0696C7.57393 73.6909 7.39009 73.3122 7.20176 72.9335C6.80717 72.149 5.64583 72.8343 6.03145 73.6142Z" fill="#727272"/>
<path d="M10.1832 83.6587C10.1608 84.2403 10.7617 84.5694 11.2683 84.4116C11.5105 84.335 11.6853 84.1637 11.8019 83.9473C11.8199 83.9112 11.8378 83.8706 11.8557 83.8346C11.9544 83.6768 11.8557 83.7219 11.5508 83.9788C11.4118 83.9608 11.4746 83.9608 11.5732 84.0149C11.8916 84.1907 12.3086 84.0915 12.4925 83.7715C12.6718 83.4604 12.5687 83.0231 12.2503 82.8472C11.9185 82.6624 11.5419 82.5542 11.1742 82.7075C10.9859 82.7886 10.8289 82.9239 10.7213 83.1042C10.6899 83.1538 10.6585 83.2124 10.6406 83.271C10.6316 83.2891 10.6227 83.3071 10.6137 83.3251C10.8468 83.0636 11.089 83.0411 11.3446 83.2575C11.4029 83.3567 11.4611 83.4559 11.5194 83.5551C11.5239 83.5911 11.5284 83.6272 11.5329 83.6633C11.5463 83.3071 11.2145 82.969 10.8603 82.987C10.4792 83.0005 10.1967 83.28 10.1832 83.6587Z" fill="#727272"/>
<path d="M35.0376 50.1576C35.1183 50.5634 35.2573 50.9421 35.4322 51.3163C35.5981 51.6634 36.051 51.7085 36.3514 51.5597C36.5218 51.4741 36.6608 51.3208 36.7505 51.154C36.7774 51.1044 36.7953 51.0503 36.8222 50.9962C36.9657 50.6851 36.8177 51.154 36.4725 51.1179C36.3604 51.0863 36.2483 51.0548 36.1317 51.0277C36.0555 50.9917 36.2438 51.1134 36.2438 51.1134C36.3155 51.1675 36.3649 51.199 36.4501 51.2351C36.6249 51.3118 36.8043 51.3253 36.9926 51.2982C37.3962 51.2306 37.6338 50.9691 37.7863 50.604C37.9253 50.2658 37.6338 49.8601 37.3155 49.7699C36.9298 49.6617 36.6294 49.9052 36.4859 50.2433C36.6429 49.9502 36.8402 49.8871 37.0733 50.0539C37.0554 50.0359 37.0374 50.0179 37.015 50.0043C36.9298 49.9187 36.7684 49.8285 36.6518 49.797C36.4366 49.7384 36.2034 49.7744 36.0151 49.8871C35.8582 49.9818 35.7461 50.1306 35.6698 50.2929C35.6519 50.3335 35.6295 50.3785 35.6116 50.4236C35.5622 50.5679 35.5891 50.4326 35.6698 50.3966C35.9748 50.4777 36.2841 50.5589 36.5891 50.64C36.4635 50.374 36.3873 50.0945 36.329 49.806C36.2617 49.4453 35.8313 49.2424 35.4995 49.3326C35.1363 49.4273 34.9704 49.797 35.0376 50.1576Z" fill="#727272"/>
<path d="M36.5982 57.8982C36.6834 58.3265 36.773 58.7548 36.8582 59.1831C37.0017 59.8909 37.9478 59.7602 38.1541 59.1831C38.2214 58.9892 38.3379 58.863 38.4859 58.7278C38.1317 58.6827 37.7819 58.6376 37.4277 58.5925C37.5443 58.863 37.6653 59.138 37.7819 59.4085C37.9164 59.7196 38.4366 59.8548 38.7011 59.652C38.8626 59.5302 38.9926 59.422 39.0957 59.2417C39.1316 59.1786 39.1719 59.1019 39.1944 59.0298C39.2033 58.9983 39.2168 58.9667 39.2347 58.9397C39.3423 58.7413 39.1361 58.6782 38.6115 58.7503C38.5621 59.111 38.9567 59.4265 39.284 59.4265C39.6876 59.4265 39.9073 59.1155 39.9566 58.7503C40.0329 58.1868 39.5082 57.6773 38.9657 57.6773C38.6922 57.6773 38.4455 57.799 38.2617 57.9929C38.1765 58.0831 38.1182 58.1823 38.0599 58.2905C38.0241 58.3626 37.8851 58.588 38.0241 58.4843C38.329 58.5655 38.6384 58.6466 38.9433 58.7278C38.8267 58.4573 38.7056 58.1823 38.589 57.9118C38.4052 57.488 37.8178 57.515 37.5308 57.7765C37.208 58.0695 37.0017 58.4212 36.8538 58.8269C37.2842 58.8269 37.7192 58.8269 38.1496 58.8269C38.0644 58.3987 37.9747 57.9704 37.8895 57.5421C37.7236 56.6855 36.4233 57.0462 36.5982 57.8982Z" fill="#727272"/>
<path d="M37.7774 68.2403C37.737 68.5784 37.7774 68.9256 37.8671 69.2502C37.9792 69.6424 38.4903 69.9084 38.8535 69.6559C39.0912 69.4891 39.2347 69.3088 39.3378 69.0383C39.3647 68.9707 39.3871 68.8985 39.4095 68.8264C39.4499 68.6821 39.4095 68.876 39.293 68.894C39.1719 68.894 39.0553 68.894 38.9342 68.894C38.8221 68.8489 38.7504 68.7813 38.7325 68.6821C38.719 68.6371 38.7235 68.6506 38.7504 68.7227C38.7639 68.7633 38.7773 68.8084 38.7908 68.8489C38.867 69.0563 38.9746 69.2231 39.145 69.3629C39.5127 69.6604 39.9297 69.6109 40.2884 69.3313C40.5754 69.1059 40.5216 68.61 40.2884 68.3756C40.0059 68.0915 39.6248 68.1502 39.3378 68.3756C39.3243 68.3891 39.3064 68.3981 39.293 68.4116C39.3916 68.353 39.4902 68.2944 39.5889 68.2358C39.571 68.2403 39.553 68.2448 39.5351 68.2493C39.6562 68.2493 39.7727 68.2493 39.8938 68.2493C39.9745 68.2629 40.0911 68.5108 40.0418 68.362C40.0059 68.2448 39.9611 68.1231 39.8983 68.0194C39.71 67.7129 39.3781 67.537 39.0239 67.5731C38.71 67.6047 38.4545 67.803 38.2841 68.0645C38.2123 68.1772 38.163 68.3034 38.1226 68.4297C38.1092 68.4702 38.0823 68.5289 38.0778 68.5694C38.0733 68.628 38.0644 68.5559 38.1765 68.4793C38.5038 68.6145 38.8356 68.7498 39.1629 68.885C39.1001 68.6641 39.0912 68.4657 39.1181 68.2358C39.1584 67.8706 38.7773 67.5596 38.4455 67.5596C38.0554 67.5641 37.8222 67.8752 37.7774 68.2403Z" fill="#727272"/>
<path d="M37.4053 76.202C37.3694 76.6438 37.4053 77.0766 37.4725 77.5139C37.5532 78.0234 38.2752 78.1541 38.598 77.8115C38.7146 77.6898 38.8356 77.568 38.9612 77.4553C39.0733 77.3561 39.1899 77.257 39.2796 77.1938C38.9522 77.0586 38.6204 76.9233 38.2931 76.7881C38.3334 76.9053 38.3334 76.7701 38.32 76.8963C38.329 76.8016 38.2662 76.9819 38.311 76.9053C38.1362 77.2254 38.2348 77.6447 38.5532 77.8295C38.8626 78.0098 39.2975 77.9107 39.4724 77.5861C39.6652 77.2299 39.728 76.8151 39.5934 76.4274C39.4634 76.0577 38.9791 75.7467 38.607 76.0217C38.2662 76.2741 37.9478 76.5446 37.6564 76.8512C38.033 76.9504 38.4052 77.0496 38.7818 77.1488C38.737 76.8557 38.737 76.5131 38.7594 76.193C38.7863 75.8413 38.4321 75.5032 38.0868 75.5168C37.6922 75.5438 37.4367 75.8233 37.4053 76.202Z" fill="#727272"/>
<path d="M36.9748 85.0339C36.7327 85.4442 36.5489 85.895 36.4457 86.3639C36.365 86.72 36.5534 87.0942 36.9165 87.1979C37.2932 87.3016 37.616 87.0717 37.7461 86.7245C37.7864 86.6118 37.9209 86.3684 37.9927 86.2737C37.6743 86.2737 37.3605 86.2737 37.0421 86.2737C36.9614 86.1745 36.939 86.0663 36.9704 85.9401C36.9121 86.3008 37.0645 86.6659 37.4412 86.7741C37.764 86.8643 38.2079 86.6659 38.2707 86.3008C38.3335 85.9266 38.2662 85.5975 37.9972 85.3179C37.764 85.0745 37.2708 85.0339 37.0466 85.3179C36.7865 85.6425 36.5982 85.9716 36.4502 86.3639C36.8807 86.4856 37.3156 86.6028 37.7461 86.7245C37.8313 86.3458 37.9434 86.0483 38.1407 85.7192C38.3245 85.4036 38.2124 84.9753 37.8985 84.795C37.5802 84.6056 37.1632 84.7183 36.9748 85.0339Z" fill="#727272"/>
<path d="M41.8984 87.7343C41.6204 88.0995 41.4904 88.5504 41.4679 89.0057C41.4545 89.2717 41.6473 89.5287 41.8805 89.6233C42.145 89.7315 42.4006 89.6684 42.6158 89.4836C42.9476 89.1995 43.2795 88.911 43.6113 88.627C43.257 88.5819 42.9073 88.5368 42.5531 88.4917C42.5262 88.4512 42.5396 88.3926 42.5441 88.3475C42.5486 88.3159 42.6203 88.2077 42.5486 88.3204C42.3558 88.6315 42.4813 89.0643 42.7907 89.2446C43.1136 89.434 43.5171 89.3123 43.7099 89.0012C43.9386 88.636 43.9341 88.1717 43.7144 87.802C43.4768 87.4052 42.988 87.3827 42.6562 87.6667C42.3244 87.9507 41.9926 88.2393 41.6608 88.5233C42.0419 88.6811 42.4275 88.8434 42.8086 89.0012C42.8176 88.7983 42.7728 89.0913 42.8176 88.8975C42.8356 88.8299 42.8535 88.7577 42.8759 88.6901C42.84 88.7848 42.9297 88.5954 42.9297 88.5909C42.9656 88.5278 43.0059 88.4692 43.0508 88.4151C43.2705 88.1221 43.0956 87.6577 42.8086 87.4909C42.4724 87.288 42.1226 87.4413 41.8984 87.7343Z" fill="#727272"/>
<path d="M44.3825 78.88C44.2883 79.3939 44.2345 79.9124 44.23 80.4398C44.2211 81.1025 45.1582 81.373 45.4855 80.7825C45.6873 80.4128 45.925 80.0927 46.2209 79.7951C45.9474 79.8312 45.6784 79.8673 45.4048 79.8988C45.3914 79.8898 45.3735 79.8763 45.36 79.8673C45.3017 79.7681 45.2434 79.6689 45.1851 79.5697C45.1717 79.5292 45.2165 79.4029 45.1717 79.5472C45.1403 79.6373 45.1224 79.7816 45.1179 79.8673C45.1089 80.0837 45.1717 80.2956 45.2972 80.4714C45.4407 80.6652 45.6784 80.796 45.925 80.796C46.0595 80.796 46.2164 80.7554 46.333 80.6923C46.3554 80.6788 46.3734 80.6698 46.3958 80.6562C46.5034 80.5886 46.472 80.5841 46.3016 80.6427C46.1895 80.6111 46.0774 80.5796 45.9608 80.5525C45.7815 80.4624 45.768 80.3587 45.786 80.2279C45.7366 80.5886 45.8757 80.9538 46.2568 81.062C46.5707 81.1476 47.0325 80.9538 47.0863 80.5886C47.1401 80.2009 47.1222 79.8087 46.8262 79.5156C46.6783 79.3714 46.4541 79.2857 46.2478 79.2902C46.1133 79.2947 45.9564 79.3398 45.8398 79.4029C45.8084 79.421 45.6604 79.4841 45.7456 79.466C45.8667 79.466 45.9833 79.466 46.1043 79.466C46.0864 79.4615 46.064 79.4525 46.046 79.448C46.1447 79.5066 46.2433 79.5652 46.342 79.6238C46.3868 79.998 46.4272 80.0927 46.4675 79.9078C46.4855 79.8628 46.4944 79.8177 46.5034 79.7681C46.5258 79.6644 46.5348 79.5562 46.5258 79.448C46.5079 79.1505 46.3554 78.8664 46.0819 78.7357C45.8129 78.6004 45.49 78.6185 45.2658 78.8394C44.8937 79.2136 44.5753 79.6373 44.3197 80.0972C44.7367 80.2099 45.1537 80.3226 45.5752 80.4398C45.5797 80.0386 45.6111 79.6373 45.6828 79.2406C45.7456 78.88 45.5842 78.5103 45.212 78.4066C44.8802 78.3164 44.4453 78.5193 44.3825 78.88Z" fill="#727272"/>
<path d="M45.288 69.5704C45.0952 70.0348 45.0907 70.5622 45.2387 71.0401C45.445 71.6983 46.3148 71.6668 46.5346 71.0401C46.6467 70.7155 46.8484 70.4585 47.104 70.2331C46.7229 70.0753 46.3373 69.913 45.9561 69.7553C45.9696 69.9852 45.9875 70.2151 46.001 70.4405C46.0279 70.8372 46.2879 71.0717 46.6736 71.1168C46.8888 71.1438 47.0861 71.0717 47.2654 70.9545C47.3417 70.9049 47.4089 70.8463 47.4672 70.7786C47.4896 70.7471 47.5165 70.72 47.539 70.693C47.6197 70.6073 47.5524 70.6254 47.3327 70.7471C47.2206 70.7155 47.1085 70.684 46.9919 70.6569C46.956 70.6163 46.9157 70.5758 46.8798 70.5352C46.8484 70.4225 46.817 70.3098 46.7901 70.1926C46.7901 70.2106 46.7901 70.2286 46.7946 70.2467C46.826 70.134 46.8574 70.0212 46.8843 69.904C46.8753 69.9176 46.8664 69.9356 46.8574 69.9491C46.4 70.693 47.5659 71.3737 48.0187 70.6299C48.2878 70.1926 48.0636 69.6245 47.5928 69.4532C47.3461 69.363 47.095 69.3811 46.8664 69.5073C46.7722 69.5569 46.6915 69.629 46.6153 69.7057C46.5973 69.7237 46.5839 69.7462 46.5659 69.7643C46.4763 69.8544 46.5121 69.8544 46.6736 69.7643C46.8978 69.9897 47.122 70.2151 47.3461 70.4405C47.3327 70.2106 47.3148 69.9807 47.3013 69.7553C47.261 69.1556 46.6018 68.8806 46.1534 69.2774C45.723 69.6606 45.427 70.1385 45.2387 70.6795C45.6692 70.6795 46.1041 70.6795 46.5346 70.6795C46.4494 70.4044 46.4763 70.1926 46.5839 69.9311C46.7229 69.593 46.4314 69.1872 46.1131 69.097C45.7274 68.9888 45.427 69.2323 45.288 69.5704Z" fill="#727272"/>
<path d="M44.7275 57.7178C44.7634 58.0964 44.8037 58.4797 44.8396 58.8584C44.871 59.192 45.0683 59.4805 45.4225 59.5211C45.7454 59.5617 46.0772 59.3678 46.1624 59.0387C46.2341 58.7502 46.3328 58.4887 46.4762 58.2317C46.0906 58.2317 45.7005 58.2317 45.3149 58.2317C45.3822 58.3579 45.4494 58.4842 45.5122 58.6059C45.7588 59.0702 46.4135 59.0161 46.6735 58.6059C46.696 58.5698 46.7273 58.5383 46.7273 58.5247C46.7991 58.4616 46.7498 58.4661 46.5883 58.5383C46.5166 58.5788 46.4449 58.5879 46.3731 58.5743C46.2924 58.4932 46.2117 58.412 46.131 58.3309C46.1265 58.3128 46.122 58.2948 46.1175 58.2768C46.3776 59.1018 47.6779 58.7502 47.4134 57.9161C47.2789 57.4923 46.9112 57.2263 46.4628 57.2399C46.0278 57.2534 45.7229 57.578 45.5077 57.9206C45.8933 57.9206 46.2834 57.9206 46.6691 57.9206C46.6018 57.7944 46.5345 57.6682 46.4718 57.5464C46.2386 57.1046 45.5481 57.1091 45.3104 57.5464C45.1176 57.9026 44.9652 58.2813 44.862 58.678C45.3014 58.7366 45.7409 58.7997 46.1848 58.8584C46.1489 58.4797 46.1086 58.0964 46.0727 57.7178C46.0368 57.3526 45.7902 57.0415 45.4001 57.0415C45.0638 57.0415 44.6916 57.3526 44.7275 57.7178Z" fill="#727272"/>
<path d="M41.3962 50.1575C41.5666 50.5902 41.7773 50.9509 42.0733 51.3116C42.414 51.7263 43.0553 51.4558 43.1987 51.014C43.3019 50.6894 43.3467 50.3378 43.3153 49.9997C42.8983 50.1124 42.4813 50.2251 42.0598 50.3423C42.1899 50.5948 42.3737 50.8247 42.5934 51.005C42.8759 51.2349 43.2705 51.28 43.544 51.005C43.7817 50.7661 43.8265 50.2792 43.544 50.0493C43.4633 49.9861 43.3871 49.914 43.3243 49.8374C43.257 49.7517 43.3646 49.905 43.3064 49.8103C43.275 49.7607 43.2481 49.7111 43.2212 49.6615C43.0822 49.391 42.7369 49.2693 42.4589 49.346C42.1943 49.4181 41.9388 49.7066 41.9657 49.9997C41.9926 50.2837 41.9836 50.3964 41.8984 50.6534C42.275 50.5542 42.6472 50.455 43.0239 50.3558C42.9656 50.2882 42.9073 50.2025 42.84 50.0853C42.8086 50.0312 42.7772 49.9726 42.7459 49.9185C42.7369 49.905 42.6652 49.7337 42.6876 49.8013C42.5531 49.4632 42.2392 49.2242 41.858 49.3279C41.5442 49.4136 41.2617 49.8148 41.3962 50.1575Z" fill="#727272"/>
<path d="M48.189 49.6345C48.2428 49.9185 48.3504 50.1935 48.4984 50.446C48.6509 50.703 48.9692 50.8382 49.2562 50.7571C49.5611 50.6714 49.7225 50.4054 49.7494 50.1034C49.7808 49.7878 49.8122 49.4677 49.8436 49.1521C49.5073 49.346 49.171 49.5398 48.8302 49.7382C49.0365 49.8915 49.2427 50.0493 49.449 50.2025C49.7405 50.4189 50.2023 50.2521 50.3682 49.9591C50.57 49.6165 50.4175 49.2513 50.1261 49.0349C49.9198 48.8816 49.7136 48.7238 49.5073 48.5705C49.319 48.4308 49.0185 48.4578 48.8302 48.5705C48.6105 48.7013 48.5208 48.9087 48.4984 49.1566C48.467 49.4722 48.4356 49.7923 48.4042 50.1079C48.8213 49.9952 49.2383 49.8824 49.6597 49.7652C49.5521 49.5849 49.5252 49.4992 49.4849 49.2783C49.4176 48.9177 48.9872 48.7148 48.6553 48.805C48.2877 48.9041 48.1262 49.2738 48.189 49.6345Z" fill="#727272"/>
<path d="M51.1753 57.7494C51.2381 58.1236 51.3278 58.4843 51.4488 58.8449C51.5878 59.2732 52.0362 59.4536 52.4353 59.2507C52.6819 59.1245 52.8389 58.89 52.9016 58.624C52.933 58.5023 52.9375 58.3716 52.9465 58.2408C52.9465 58.1957 52.951 58.1507 52.9554 58.1056C52.9465 58.2949 52.8209 58.4167 52.5743 58.4798C52.4622 58.4482 52.3501 58.4167 52.2335 58.3896C52.7626 58.6511 53.1752 58.8269 53.7805 58.6917C54.6235 58.5023 54.2692 57.1949 53.4218 57.3888C53.211 57.4384 53.09 57.3121 52.9106 57.222C52.5967 57.0687 52.238 57.0912 51.9645 57.3076C51.7582 57.4699 51.6641 57.6953 51.6282 57.9523C51.6147 58.0515 51.6103 58.1462 51.6013 58.2453C51.5923 58.331 51.5968 58.3355 51.6058 58.2679C51.5609 58.4212 51.6103 58.358 51.7582 58.0875C52.0856 58.2228 52.4174 58.358 52.7447 58.4933C52.6281 58.1326 52.5384 57.772 52.4712 57.3978C52.4084 57.0371 51.969 56.8342 51.6417 56.9244C51.265 57.0191 51.1126 57.3888 51.1753 57.7494Z" fill="#727272"/>
<path d="M52.7405 67.5325C52.6957 67.8752 52.6464 68.2178 52.6015 68.5604C52.5612 68.8625 52.6284 69.16 52.9109 69.3223C53.1441 69.4621 53.5477 69.4486 53.727 69.2186C53.8257 69.0879 53.9243 68.9797 54.0812 68.9256C53.7988 68.7092 53.5118 68.4928 53.2293 68.2719C53.2383 68.5424 53.2427 68.8129 53.2517 69.0834C53.2652 69.5342 53.6687 69.8408 54.1037 69.7371C54.3189 69.6875 54.4983 69.5793 54.6686 69.4441L54.8345 69.3133C54.8211 69.2953 54.6059 69.3088 54.5565 69.2547C54.4983 69.1555 54.44 69.0563 54.3817 68.9572C54.3906 68.9797 54.3951 69.0022 54.4041 69.0248C54.6866 69.8408 55.9869 69.4891 55.6999 68.6641C55.543 68.2178 55.1843 67.9653 54.709 67.9789C54.5162 67.9834 54.3144 68.0465 54.1485 68.1457C54.014 68.2268 53.8884 68.3936 53.736 68.4297C54.0185 68.6461 54.3054 68.8625 54.5879 69.0834C54.579 68.8129 54.5745 68.5424 54.5655 68.2719C54.5565 67.8571 54.1395 67.4739 53.7136 67.6182C53.3414 67.7489 53.0096 67.9473 52.7674 68.2629C53.1441 68.4838 53.5163 68.7002 53.8929 68.9211C53.9378 68.5785 53.9871 68.2358 54.0319 67.8932C54.0812 67.5325 53.9467 67.1674 53.5611 67.0592C53.2562 66.9735 52.7899 67.1674 52.7405 67.5325Z" fill="#727272"/>
<path d="M50.8078 78.7311C50.7136 79.1144 50.6194 79.4976 50.5298 79.8808C50.4446 80.2324 50.6374 80.6201 51.0006 80.7148C51.3234 80.8005 51.6328 80.7373 51.8974 80.5255C52.1081 80.3541 52.1843 80.0881 52.3771 79.9213C52.2785 79.9799 52.1798 80.0386 52.0812 80.0972C52.1126 80.0836 52.144 80.0701 52.1798 80.0566C52.0588 80.0566 51.9422 80.0566 51.8211 80.0566C51.8525 80.0611 51.8839 80.0701 51.9198 80.0746C51.7853 79.9709 51.6507 79.8672 51.5162 79.7635C51.5072 79.7094 51.5117 79.723 51.5252 79.8131C51.5566 79.8898 51.588 79.9664 51.6238 80.0431C51.7135 80.1918 51.8525 80.2955 52.005 80.3632C52.1664 80.4353 52.3457 80.4443 52.5206 80.4082C52.5789 80.4037 52.6372 80.3857 52.691 80.3632C52.9556 80.2775 52.9018 80.2504 52.5296 80.2865C52.4489 80.2054 52.3682 80.1242 52.2875 80.0431C52.2964 80.0566 52.3099 80.0746 52.3188 80.0881C52.2875 79.9754 52.2561 79.8627 52.2292 79.7455C52.2292 79.7635 52.2292 79.7861 52.2247 79.8041C52.1843 80.6742 53.5295 80.6742 53.5699 79.8041C53.5878 79.4344 53.3367 79.1234 52.9914 79.0152C52.83 78.9656 52.6507 78.9611 52.4847 79.0016C52.4265 79.0152 52.1978 79.0603 52.265 79.0693C52.3771 79.1008 52.4892 79.1324 52.6058 79.1594C52.5834 79.1459 52.5655 79.1279 52.543 79.1143C52.6237 79.1955 52.7045 79.2766 52.7852 79.3578C52.7538 79.2947 52.682 79.0557 52.5699 78.9385C52.3906 78.7582 52.0633 78.677 51.8211 78.7447C51.6238 78.7988 51.4534 78.916 51.3189 79.0648C51.2472 79.1459 51.1844 79.2361 51.1306 79.3307C51.1127 79.3623 51.0992 79.3939 51.0813 79.4209C50.9557 79.5922 51.0499 79.5877 51.3638 79.4029C51.5207 79.6824 51.6776 79.9574 51.8346 80.2369C51.9287 79.8537 52.0229 79.4705 52.1126 79.0873C52.3099 78.2442 51.014 77.8836 50.8078 78.7311Z" fill="#727272"/>
<path d="M49.382 86.8642C49.4807 86.9408 49.5793 87.0174 49.678 87.0941C49.9649 87.3195 50.4313 87.1392 50.5972 86.8506C50.7989 86.5035 50.6465 86.1473 50.355 85.9264C50.2564 85.8498 50.1577 85.7731 50.0591 85.6965C49.7721 85.4711 49.3058 85.6514 49.1399 85.94C48.9381 86.2871 49.095 86.6387 49.382 86.8642Z" fill="#727272"/>
</g>
<g clip-path="url(#clip1_296_122)">
<path d="M19.2989 44.7374C19.858 40.1054 16.6249 36.647 13.1799 33.9798C11.1733 32.4239 9.21185 31.1259 7.90419 28.8988C7.23683 27.7564 6.59653 26.4672 6.22227 25.2003C5.49178 22.7332 6.75435 18.8569 9.8792 21.7019C11.6784 23.3422 12.0932 25.4581 13.4685 27.2807C14.2441 28.312 15.4345 28.8632 16.6745 28.2053C20.4036 26.2316 17.5177 19.3858 16.6835 16.6653C15.6735 13.3714 15.1414 10.2019 16.8414 7.03235C17.4005 5.99215 18.0273 4.92083 18.7442 3.98287C19.2087 3.37831 19.7994 2.72485 20.4622 2.30699C21.833 1.43571 22.6582 1.43571 24.1733 1.89802C25.7875 2.39145 25.8011 2.47591 26.1302 4.0051C26.2835 4.7119 26.3467 5.48983 26.3827 6.21886C26.4594 7.76138 26.3331 9.31724 26.013 10.8331C25.4133 13.7092 23.6863 16.2519 23.3075 19.1725C23.0279 21.3196 23.2218 28.1431 26.8111 27.503C31.0182 26.7517 30.7161 20.0927 34.9096 19.2036C38.3997 18.4612 40.1041 22.2442 38.6251 24.8402C37.8225 26.2538 36.4878 27.3474 35.2027 28.312C32.912 30.0323 30.1118 30.9303 27.8618 32.6684C23.79 35.8246 25.1427 40.7855 26.8156 44.853C27.1403 45.6398 28.4479 45.2931 28.1188 44.4974C26.9915 41.7546 25.5756 38.3984 27.0997 35.5179C28.5111 32.8507 32.2356 31.9172 34.639 30.3435C37.8856 28.2187 42.5436 24.2179 39.793 20.0082C37.4933 16.4831 33.0383 17.6611 30.937 20.6128C30.3012 21.5063 29.8097 22.4887 29.2461 23.4266C28.989 23.8534 28.732 24.2846 28.4299 24.6846C28.2135 24.9425 27.997 25.1959 27.7806 25.4537C26.0716 25.8271 25.1878 25.3781 25.1292 24.0979C23.4157 20.5061 25.4899 16.8254 26.6533 13.5136C27.5191 11.0509 27.8888 8.42817 27.7039 5.82767C27.5777 4.02732 27.3883 1.5913 25.6703 0.515535C24.1597 -0.431314 21.8375 0.111013 20.354 0.848933C18.1445 1.95137 16.7918 4.2896 15.6735 6.37C12.8011 11.7133 15.7005 16.4208 16.7692 21.8041C16.909 22.5198 17.2652 24.089 17.0262 24.8847C16.2957 25.5426 15.5653 26.1961 14.8303 26.854C14.4109 26.325 14.0953 25.7471 13.8743 25.1114C13.4505 24.1823 13.0041 23.3155 12.3863 22.4887C11.4123 21.1817 9.57258 19.0347 7.69226 19.1414C5.86604 19.248 4.79286 21.1506 4.59897 22.7376C4.31038 25.0847 5.58648 27.5874 6.74082 29.5789C9.94233 35.0956 18.866 37.1271 17.9461 44.7463C17.8469 45.5865 19.1996 45.582 19.2989 44.7374Z" fill="#46A358"/>
<path d="M30.9866 22.573C31.9606 17.7054 30.1209 13.2557 29.7376 8.45031C29.5076 5.57865 30.7477 0.986648 34.6887 2.29357C37.6241 3.26709 38.7379 6.71664 38.5395 9.47718C38.3952 11.4953 37.4122 17.4165 41.3532 16.8653C44.7351 16.3941 46.4801 10.8374 48.1215 8.48143C49.5283 6.46326 52.6351 3.51603 55.3677 4.33841C59.6965 5.64088 56.9234 10.7619 54.9303 12.7756C51.571 16.1674 47.9907 19.1679 45.0282 22.9464C43.3102 25.138 41.8222 28.7387 45.6324 29.7211C47.0979 30.0989 48.5093 29.5966 49.8304 29.0009C50.8946 28.5209 51.9092 27.9474 53.041 27.6318C55.1062 27.0539 57.5005 27.5073 56.1342 30.0367C52.9373 35.9623 45.6189 31.5926 40.8978 34.0775C36.8936 36.189 35.9602 40.8566 36.339 44.9507C36.4157 45.7997 37.7729 45.8086 37.6918 44.9507C37.4257 42.0968 37.6557 39.0118 39.6578 36.7491C42.246 33.8241 45.7 34.891 49.127 34.8243C52.6261 34.7576 57.1308 33.0862 57.8568 29.2321C58.6504 25.0091 53.7714 25.827 51.2689 26.845C50.1641 27.294 49.1315 27.9919 47.9772 28.3208C47.0618 28.5831 45.6144 28.7253 44.8929 27.8763C44.194 27.0495 44.7576 25.6581 45.1905 24.9557C46.7732 22.3774 49.1992 20.0259 51.3545 17.9055C54.3261 14.9805 59.3944 11.8776 58.957 7.10783C58.6233 3.45824 55.2054 2.1202 52.0535 3.48935C50.1596 4.31174 48.5949 5.61865 47.3594 7.25008C45.7451 9.37938 44.8839 12.3044 42.9585 14.1803C42.2641 14.856 41.5832 16.2918 40.032 14.8827C39.3421 14.2559 39.5495 12.5844 39.6217 11.7265C39.7164 10.6018 39.9599 9.50385 39.9238 8.3703C39.8652 6.45437 39.2204 4.51177 37.9623 3.02704C35.3019 -0.102451 30.7341 0.0353538 28.9665 3.96056C27.9114 6.30768 28.3758 8.99264 28.8177 11.4287C29.467 15.0249 30.4185 18.5545 29.6835 22.2174C29.5166 23.0576 30.8198 23.4176 30.9866 22.573Z" fill="#46A358"/>
<path d="M30.6846 31.0059C30.0488 35.589 29.0071 40.0787 27.5552 44.4796C27.2846 45.2975 28.5923 45.6487 28.8583 44.8352C30.3103 40.4344 31.3519 35.9446 31.9877 31.3615C32.1049 30.5169 30.8018 30.1568 30.6846 31.0059Z" fill="#46A358"/>
<path d="M14.5058 43.9728C14.3299 40.4432 11.8454 38.0605 8.98655 36.2468C7.13328 35.0688 5.10415 34.0864 3.51242 32.5528C2.82703 31.8949 1.55093 30.6191 1.48329 29.5967C1.25333 26.1871 5.47842 28.841 6.41632 29.6278C7.07466 30.1834 8.03511 29.241 7.37227 28.6854C5.89777 27.4451 3.25089 25.8315 1.22627 26.765C-0.406046 27.5163 -0.135497 29.3788 0.491278 30.7213C3.12914 36.4247 12.8058 37.0781 13.153 43.9728C13.1936 44.8263 14.5509 44.8307 14.5058 43.9728Z" fill="#46A358"/>
<path d="M44.8388 45.293C46.5253 42.7859 48.7483 40.7366 51.4718 39.3585C53.9519 38.105 57.0271 37.8871 59.2231 36.1135C61.7437 34.0775 61.8745 29.0855 57.7035 29.2144C56.8332 29.241 56.8332 30.5746 57.7035 30.548C59.3493 30.7702 60.0167 31.6682 59.7146 33.2374C59.3764 34.1398 58.8037 34.851 57.9966 35.3667C57.0091 36.0557 55.8096 36.3713 54.6733 36.7269C53.2259 37.1803 51.8145 37.656 50.4753 38.3672C47.6886 39.852 45.4115 42.0302 43.6664 44.6218C43.184 45.3375 44.3564 46.0043 44.8388 45.293Z" fill="#46A358"/>
<path d="M48.5139 33.5619C42.7828 34.6287 40.668 40.252 39.3107 45.173C39.0807 46.0043 40.3884 46.3554 40.6139 45.5286C41.8494 41.0522 43.6305 35.8245 48.8746 34.851C49.7269 34.6865 49.3661 33.4018 48.5139 33.5619Z" fill="#46A358"/>
<path d="M18.2933 13.2647C17.6214 10.602 18.4601 7.68585 20.6336 5.89884C21.071 5.52099 21.567 5.23205 22.1126 5.03201C23.6141 5.34762 24.313 6.13889 24.2093 7.4058C24.2364 8.14372 24.0921 8.87275 23.9162 9.584C23.56 11.0198 22.9332 12.3845 22.4688 13.7893C21.2739 17.4077 19.5559 23.3244 22.7844 26.405C23.0956 26.7029 23.5781 26.2317 23.2624 25.9338C20.4307 23.2355 21.8826 18.0479 22.8521 14.8161C23.6908 12.0156 25.9679 8.29486 24.4303 5.35207C23.2308 3.05829 20.4803 4.92087 19.3124 6.26336C17.5854 8.25041 17.0037 10.922 17.6395 13.4425C17.7477 13.8604 18.397 13.6826 18.2933 13.2647Z" fill="#46A358"/>
<path d="M32.5877 24.0623C32.9755 23.2132 33.7601 22.013 34.8107 21.8707C36.4114 21.6529 37.2366 23.6355 36.3799 24.9469C35.5727 26.1827 34.0351 27.0451 32.7094 27.5741C30.5044 28.4498 29.0254 29.6589 27.4247 31.3881C27.1316 31.7038 27.6095 32.1794 27.9026 31.8593C28.8721 30.8058 29.8641 29.7123 31.1267 28.9832C32.1322 28.4009 33.3001 28.1742 34.3102 27.6052C35.5412 26.9073 37.5342 25.4003 37.6785 23.88C37.7958 22.6531 36.4836 21.2306 35.2571 21.155C33.7781 21.0617 32.5426 22.5553 32.006 23.7289C31.8256 24.1112 32.4118 24.4535 32.5877 24.0623Z" fill="#46A358"/>
<path d="M7.30024 24.8358C7.44904 23.6667 7.89545 23.2355 8.63495 23.5511C8.89648 23.5556 9.11292 23.6489 9.29329 23.8312C9.64951 24.0623 9.88399 24.4046 10.0959 24.7647C10.4747 25.4093 10.6505 26.1605 10.9301 26.8451C11.2863 27.7253 11.7553 28.441 12.5624 28.9655C12.9277 29.2055 13.2659 28.6277 12.9051 28.3876C10.9211 27.0896 11.4757 23.72 8.99568 22.9021C7.50766 22.4131 6.01062 23.6845 6.71856 25.1692C6.90343 25.5604 7.48511 25.2226 7.30024 24.8358Z" fill="#46A358"/>
<path d="M31.5323 7.58367C31.1806 5.66329 33.2322 4.13411 34.8014 5.53438C35.6672 6.30786 36.0009 7.73036 36.0054 8.84169C36.0144 10.3486 35.3155 11.6956 35.6131 13.207C35.6942 13.6293 36.3481 13.4515 36.2669 13.0292C35.8926 11.131 36.9658 9.31289 36.4833 7.34362C36.1947 6.16561 35.6086 4.85425 34.373 4.40972C32.1455 3.61401 30.5087 5.73887 30.8784 7.75703C30.9596 8.17934 31.6089 8.00152 31.5323 7.58367Z" fill="#46A358"/>
<path d="M31.194 11.98C32.2943 14.2605 32.8354 16.2609 32.7542 18.7902C32.7407 19.2214 33.417 19.217 33.4306 18.7902C33.5162 16.1319 32.93 14.0293 31.7802 11.6466C31.5908 11.2599 31.0091 11.5977 31.194 11.98Z" fill="#46A358"/>
<path d="M48.7349 10.0729C49.3887 8.60153 50.6242 7.67246 52.0536 6.97455C52.464 6.76117 52.8878 6.5878 53.3297 6.45C55.2371 7.09012 55.7196 7.97474 54.7772 9.11274C54.3263 9.81065 53.6724 10.4374 53.1088 11.0509C50.9624 13.3847 48.6447 15.5451 46.1962 17.5633C45.8625 17.8389 46.3405 18.3101 46.6742 18.0345C48.8882 16.2119 50.994 14.2737 52.96 12.1933C54.1414 10.9442 56.4095 9.09051 55.9135 7.1168C54.926 3.20493 48.9784 7.86805 48.1487 9.73952C47.9773 10.1263 48.5635 10.4641 48.7349 10.0729Z" fill="#46A358"/>
<path d="M44.9157 19.9858C42.7558 21.5506 41.4436 23.831 41.1956 26.4582C41.155 26.885 41.8314 26.8805 41.872 26.4582C42.0974 24.0844 43.3059 21.9729 45.2584 20.5593C45.6056 20.3104 45.2674 19.728 44.9157 19.9858Z" fill="#46A358"/>
<path d="M49.1948 31.1082C49.6367 30.8459 50.0786 30.5703 50.543 30.3436C50.8948 30.1524 51.2645 30.0057 51.6523 29.9035C52.3783 29.6056 52.6218 30.1613 52.3783 31.5705C51.9003 32.4995 49.312 32.5351 48.5094 32.4862C46.5028 32.3706 44.6135 31.8283 42.634 32.4284C42.2191 32.5529 42.395 33.1974 42.8143 33.073C45.1907 32.3484 47.5039 33.4019 49.9027 33.1397C51.2059 32.993 53.0501 32.4017 53.6995 31.1571C54.0602 30.4636 53.9745 29.5479 53.1854 29.17C51.8913 28.5521 49.8712 29.9213 48.8521 30.5303C48.4824 30.757 48.8205 31.3349 49.1948 31.1082Z" fill="#46A358"/>
<path d="M39.1393 33.5886C35.6221 36.4025 34.3415 40.67 33.9853 44.973C33.9492 45.3998 34.6256 45.3998 34.6617 44.973C35.0044 40.8345 36.2354 36.7626 39.6172 34.0598C39.9554 33.7887 39.4729 33.3219 39.1393 33.5886Z" fill="#46A358"/>
<path d="M24.0023 34.722C22.9562 36.5091 22.9877 38.4561 23.2177 40.4565C23.4116 42.1368 23.6325 43.786 24.8094 45.0929C25.098 45.413 25.576 44.9418 25.2874 44.6217C24.1331 43.3415 23.9888 41.5634 23.8354 39.9275C23.6731 38.2249 23.6957 36.5757 24.5885 35.0554C24.8049 34.6865 24.2232 34.3531 24.0023 34.722Z" fill="#46A358"/>
<path d="M5.34297 30.3301C3.38599 30.3568 4.16157 32.3883 5.20769 33.1173C6.51535 34.0286 8.00338 34.6376 9.3922 35.4066C11.029 36.3135 11.6874 37.8427 12.9454 39.1185C13.2475 39.4252 13.7255 38.954 13.4234 38.6473C12.1744 37.3804 11.5701 35.8645 9.96035 34.9577C9.14871 34.4998 8.29647 34.1131 7.48031 33.673C7.05645 33.4463 6.63259 33.2195 6.22677 32.9662C6.06444 32.8684 5.8976 32.7661 5.73527 32.6683C4.92813 32.366 4.80187 31.8104 5.34748 31.0013C5.77585 30.9924 5.77585 30.3257 5.34297 30.3301Z" fill="#46A358"/>
<path d="M56.2381 33.402C56.2607 34.2911 55.8458 34.7756 54.9846 34.8601C54.5697 35.0245 54.1594 35.1846 53.7445 35.349C53.1268 35.5935 52.5045 35.838 51.8868 36.0825C50.4438 36.6515 48.9964 37.225 47.5535 37.794C47.1521 37.9495 47.328 38.5986 47.7338 38.4385C49.3842 37.7851 51.0345 37.1361 52.6849 36.4826C53.9069 35.9981 55.4671 35.6513 56.5538 34.8956C57.4962 34.2377 57.5232 32.873 56.2336 32.7352C55.8052 32.6863 55.8097 33.3576 56.2381 33.402Z" fill="#46A358"/>
<path d="M46.0022 38.7183C44.1895 40.4076 42.7601 42.3902 41.75 44.6395C41.5742 45.0262 42.1558 45.3685 42.3362 44.9773C43.3237 42.7814 44.708 40.8432 46.4846 39.194C46.7958 38.8962 46.3178 38.425 46.0022 38.7183Z" fill="#46A358"/>
<path d="M14.5507 41.6347C15.0693 42.3904 15.4029 43.2038 15.5608 44.1018C15.6329 44.5241 16.2867 44.3463 16.2146 43.924C16.0478 42.9771 15.6825 42.0925 15.1369 41.2968C14.8934 40.9456 14.3072 41.279 14.5507 41.6347Z" fill="#46A358"/>
</g>
<defs>
<clipPath id="clip0_296_122">
<rect width="55" height="48" fill="white" transform="translate(3 45)"/>
</clipPath>
<clipPath id="clip1_296_122">
<rect width="61" height="46" fill="white"/>
</clipPath>
</defs>
</svg>
