<svg width="83" height="85" viewBox="0 0 83 85" fill="none" xmlns="http://www.w3.org/2000/svg">
<g clip-path="url(#clip0_296_121)">
<path d="M44.3006 44.0271C44.3205 44.5113 44.4595 44.9693 44.7176 45.3815C44.9393 45.7414 45.5053 45.3979 45.2835 45.0413C45.0883 44.7239 44.979 44.3869 44.9658 44.0172C44.946 43.5952 44.2841 43.6083 44.3006 44.0271Z" fill="#46A358"/>
<path d="M52.8094 43.9843C52.7763 44.1675 52.7399 44.3474 52.7068 44.5307C52.6737 44.7041 52.7664 44.884 52.9451 44.9298C53.1106 44.9723 53.3158 44.8676 53.3489 44.6942C53.382 44.511 53.4184 44.3311 53.4515 44.1479C53.4846 43.9745 53.3919 43.7945 53.2132 43.7487C53.0477 43.7062 52.8425 43.8109 52.8094 43.9843Z" fill="#46A358"/>
<path d="M57.3401 44.6354C57.767 44.6256 57.7538 43.9713 57.3268 43.9811C56.8999 43.9909 56.9131 44.6452 57.3401 44.6354Z" fill="#46A358"/>
<path d="M32.4827 45.7936C32.9096 45.7838 32.8963 45.1295 32.4694 45.1393C32.0425 45.1491 32.0557 45.8034 32.4827 45.7936Z" fill="#46A358"/>
<path d="M44.5886 4.38719C42.0336 11.8368 40.6403 19.6398 40.4881 27.5082C40.412 31.4636 40.6469 35.4224 41.193 39.3418C41.4445 41.1478 41.7623 42.9472 42.1462 44.7303C42.4473 46.124 42.6029 47.7174 43.6487 48.7807C44.0955 49.2354 44.7805 48.5255 44.3371 48.074C43.2085 46.9256 43.0927 44.498 42.8014 42.9963C42.4341 41.0987 42.1428 39.1848 41.9277 37.2611C41.5207 33.6229 41.385 29.9587 41.514 26.3009C41.7755 18.92 43.1556 11.6209 45.5516 4.62929C45.7568 4.03057 44.7905 3.79174 44.5886 4.38719Z" fill="#46A358"/>
<path d="M48.4409 4.52147C49.7779 11.9646 49.811 19.5712 50.0791 27.1059C50.2048 30.6459 50.4199 34.1956 50.3471 37.7389C50.271 41.4162 49.5462 44.8744 48.5699 48.4078C48.4011 49.0196 49.3642 49.2585 49.533 48.6499C50.4497 45.3423 51.1778 42.0771 51.3168 38.6353C51.4724 34.7911 51.2109 30.9272 51.0752 27.0895C50.8038 19.4633 50.7476 11.7781 49.394 4.24338C49.2815 3.62176 48.3283 3.90313 48.4409 4.52147Z" fill="#46A358"/>
<path d="M55.6293 17.3104C56.0827 27.4951 56.4931 37.8042 53.9779 47.7796C53.8223 48.3947 54.7854 48.6335 54.9409 48.0217C57.476 37.9613 57.0822 27.5606 56.6222 17.2908C56.5924 16.6593 55.5995 16.6757 55.6293 17.3104Z" fill="#46A358"/>
<path d="M52.8226 17.4608C51.4161 19.0868 50.4762 20.9778 50.0625 23.0815C49.94 23.6999 50.9031 23.9453 51.0256 23.3236C51.4062 21.3803 52.2368 19.6463 53.5375 18.1413C53.9512 17.6604 53.2396 16.9798 52.8226 17.4608Z" fill="#46A358"/>
<path d="M62.6056 23.7164C62.5825 31.0908 61.583 38.3965 59.6238 45.5124C59.455 46.1242 60.4181 46.363 60.5868 45.7545C62.5659 38.5568 63.5753 31.1562 63.5985 23.6968C63.5985 23.0654 62.6056 23.085 62.6056 23.7164Z" fill="#46A358"/>
<path d="M60.7193 21.5211C58.1511 24.4624 56.8902 28.0841 55.9834 31.8106C55.8344 32.4257 56.7975 32.6678 56.9464 32.0527C57.8135 28.5029 58.9851 25.012 61.4375 22.2017C61.8511 21.724 61.1363 21.0402 60.7193 21.5211Z" fill="#46A358"/>
<path d="M36.7552 10.4171C38.5225 14.5329 39.8066 18.7991 40.6009 23.1995C40.7134 23.8212 41.6632 23.5365 41.554 22.9182C40.7597 18.5178 39.4723 14.2515 37.7084 10.1357C37.4602 9.56317 36.507 9.83472 36.7552 10.4171Z" fill="#46A358"/>
<path d="M34.9151 10.7735C34.3955 17.0192 33.8859 23.3434 34.9383 29.5661C36.0404 36.0571 38.7475 42.3911 40.8292 48.6236C41.0278 49.2224 41.9809 48.9443 41.7824 48.3423C39.7669 42.2995 37.1623 36.1553 35.9973 29.8867C34.8258 23.5756 35.3785 17.101 35.908 10.7539C35.9609 10.1258 34.9681 10.1487 34.9151 10.7735Z" fill="#46A358"/>
<path d="M28.5969 25.8625C31.9097 28.9117 34.5937 32.4779 36.6059 36.4857C36.8905 37.0517 37.7345 36.5348 37.4532 35.972C35.4046 31.8922 32.6577 28.2574 29.2853 25.1526C28.8186 24.724 28.1303 25.4307 28.5969 25.8625Z" fill="#46A358"/>
<path d="M26.3233 27.1222C28.8882 34.6994 32.34 41.9364 36.6258 48.7087C36.9634 49.2453 37.8139 48.7349 37.4731 48.1951C33.2303 41.4914 29.8148 34.3395 27.2764 26.8408C27.0746 26.2454 26.1214 26.5202 26.3233 27.1222Z" fill="#46A358"/>
<path d="M32.0687 46.7619C30.6059 44.1773 28.4613 42.0278 25.7939 40.6602C25.2511 40.3821 24.7315 40.4541 25.7839 40.3494C26.1678 40.3102 26.565 40.2938 26.9489 40.3004C28.1999 40.3134 29.3317 40.5359 30.4073 41.2066C31.6583 41.9853 32.7505 43.1042 33.8691 44.0563C34.3523 44.4685 35.0406 43.7618 34.5575 43.3496C33.141 42.139 31.7378 40.6275 30.0003 39.875C29.0306 39.453 27.9815 39.3287 26.929 39.3254C26.2605 39.3221 24.8705 39.1978 24.3112 39.7605C23.2191 40.8533 25.3107 41.4978 25.9626 41.8806C28.1999 43.1827 29.9605 45.0541 31.2215 47.2854C31.5326 47.8285 32.3798 47.3148 32.0687 46.7619Z" fill="#46A358"/>
<path d="M62.2814 38.7923C63.2511 36.6559 65.5048 35.9852 67.6494 35.5402C67.9638 35.4748 68.0896 35.0626 67.9307 34.8139C66.7658 32.9949 64.6444 32.8084 62.6554 32.9883C62.0232 33.0439 62.0365 34.0254 62.6752 33.9698C64.2803 33.8259 66.1171 33.816 67.0835 35.3276C67.1762 35.0855 67.2721 34.8434 67.3648 34.6013C64.9753 35.0953 62.4833 35.9492 61.4143 38.3146C61.1528 38.8872 62.0199 39.3681 62.2814 38.7923Z" fill="#46A358"/>
<path d="M28.4318 24.9137C27.9949 25.483 27.5051 26.1929 26.7803 26.4219C26.0655 26.6477 25.301 26.3238 25.3572 25.4699C25.4003 24.8025 25.9794 24.315 26.542 24.0369C27.1973 23.713 28.9944 23.5592 28.5178 24.8025C28.2928 25.3946 29.2558 25.6269 29.4809 25.0446C29.9409 23.8439 28.8355 22.7936 27.664 22.7707C26.4328 22.7478 24.9998 23.5559 24.5365 24.7108C24.1029 25.7807 24.5563 27.1188 25.761 27.4231C27.2337 27.7928 28.349 26.6379 29.1499 25.5975C29.5305 25.0936 28.819 24.4099 28.4318 24.9137Z" fill="#46A358"/>
<path d="M36.9968 9.68071C36.3779 9.79522 35.4811 10.1944 34.8622 9.8672C34.2433 9.53676 34.3558 8.71557 34.7133 8.24117C35.0872 7.74715 35.6763 7.5672 36.272 7.73079C36.7552 7.86493 38.2611 9.11471 37.2119 9.54657C36.6295 9.78541 36.9042 10.7309 37.4966 10.4888C38.7376 9.97844 38.6946 8.55852 37.897 7.64573C37.0928 6.72311 35.6532 6.37304 34.5776 7.04374C33.6377 7.63264 33.1148 8.91514 33.6244 9.94245C34.3459 11.4016 36.0338 10.852 37.2814 10.623C37.9069 10.5052 37.619 9.56293 36.9968 9.68071Z" fill="#46A358"/>
<path d="M48.7917 3.6937C47.9312 3.9129 46.9285 4.17136 46.0415 3.9587C44.7938 3.66425 44.7475 2.25089 45.6245 1.51803C46.3261 0.932397 47.4017 0.866963 48.2523 1.12215C48.7884 1.28247 49.4172 1.62927 49.5628 2.21162C49.7018 2.758 49.4338 3.29782 48.8778 3.43196C48.2589 3.58246 48.5402 4.5247 49.1624 4.37421C50.6417 4.01432 50.9661 2.19199 50.0559 1.11888C49.03 -0.0883685 46.9715 -0.294485 45.5914 0.372939C44.2941 1.0011 43.5031 2.68929 44.3669 3.97833C45.3664 5.47349 47.6201 5.00237 49.073 4.6294C49.6919 4.47563 49.4106 3.53338 48.7917 3.6937Z" fill="#46A358"/>
<path d="M55.8707 13.3419C54.4443 13.09 52.8822 13.4989 52.2302 14.8959C51.7007 16.0279 52.2004 17.4969 53.4316 17.9222C54.6726 18.3508 56.5557 17.8208 57.2441 16.6823C57.9027 15.5863 57.4261 14.1958 56.387 13.5414C55.8475 13.2012 55.3676 14.0616 55.9038 14.3986C56.5723 14.8174 56.7907 15.7695 56.2446 16.3813C55.7581 16.9276 54.719 17.1599 54.014 17.0356C53.1072 16.8753 52.7564 15.9363 53.2098 15.1609C53.7062 14.3136 54.7289 14.1369 55.6291 14.2939C56.2546 14.4052 56.4995 13.4531 55.8707 13.3419Z" fill="#46A358"/>
<path d="M63.5656 18.7662C62.3113 18.6844 60.5738 18.8611 60.2958 20.3791C60.0674 21.6224 61.4971 23.2648 62.5926 23.7064C65.7201 24.966 66.3886 18.6844 63.6913 18.8513C63.0559 18.8905 63.0724 19.872 63.7112 19.8328C64.5882 19.7771 64.3731 21.8285 64.1745 22.2342C63.7079 23.1993 62.8143 22.846 62.2252 22.2309C61.7718 21.7565 60.9577 20.9157 61.4276 20.2352C61.881 19.5808 62.8937 19.7052 63.5854 19.7477C64.2242 19.7902 64.1977 18.8087 63.5656 18.7662Z" fill="#46A358"/>
<path d="M45.6379 6.17667C45.5386 6.50711 45.436 6.83755 45.3367 7.16799C45.2143 7.57368 45.8563 7.73072 45.9788 7.3283C46.0781 6.99786 46.1807 6.66742 46.28 6.33698C46.4024 5.9313 45.7604 5.77425 45.6379 6.17667Z" fill="#46A358"/>
<path d="M47.0508 6.23258C47.0541 6.45178 47.0608 6.66771 47.0641 6.88692C47.074 7.30896 47.7359 7.29588 47.726 6.87383C47.7227 6.65463 47.716 6.43869 47.7127 6.21949C47.7061 5.79744 47.0442 5.81053 47.0508 6.23258Z" fill="#46A358"/>
<path d="M46.5808 10.1681C47.0077 10.1583 46.9945 9.50397 46.5675 9.51378C46.1439 9.52032 46.1571 10.1747 46.5808 10.1681Z" fill="#46A358"/>
<path d="M44.6053 10.5347C44.5755 10.8978 44.5457 11.2643 44.5192 11.6274C44.506 11.8041 44.6913 11.9513 44.8568 11.9481C45.0521 11.9448 45.1679 11.791 45.1811 11.6143C45.2109 11.2512 45.2407 10.8848 45.2672 10.5216C45.2804 10.3449 45.0951 10.1977 44.9296 10.201C44.7343 10.2043 44.6185 10.358 44.6053 10.5347Z" fill="#46A358"/>
<path d="M46.1705 11.5946C46.1804 11.9938 46.1871 12.3929 46.197 12.7953C46.2069 13.2174 46.8688 13.2043 46.8589 12.7823C46.849 12.3831 46.8424 11.984 46.8324 11.5816C46.8225 11.1595 46.1606 11.1726 46.1705 11.5946Z" fill="#46A358"/>
<path d="M47.3419 9.27835C47.3849 9.60551 47.4279 9.93268 47.471 10.2566C47.4941 10.4332 47.6166 10.5805 47.8085 10.5772C47.9707 10.5739 48.156 10.4202 48.1329 10.2435C48.0898 9.91632 48.0468 9.58915 48.0038 9.26526C47.9806 9.08859 47.8582 8.94136 47.6662 8.94463C47.5008 8.94791 47.3154 9.10167 47.3419 9.27835Z" fill="#46A358"/>
<path d="M47.4381 14.1859C47.4414 14.3692 47.4447 14.5491 47.448 14.7323C47.458 15.1544 48.1199 15.1413 48.1099 14.7192C48.1066 14.536 48.1033 14.3561 48.1 14.1729C48.0901 13.7508 47.4282 13.7639 47.4381 14.1859Z" fill="#46A358"/>
<path d="M46.005 8.86951C45.9719 9.1934 46.0447 9.49767 46.1804 9.79212C46.2532 9.95244 46.4981 9.98515 46.6371 9.90009C46.8059 9.79867 46.8191 9.61218 46.7463 9.4486C46.6603 9.26211 46.647 9.05599 46.6669 8.85315C46.6835 8.67648 46.4915 8.52925 46.3293 8.53252C46.1341 8.53907 46.0215 8.69284 46.005 8.86951Z" fill="#46A358"/>
<path d="M43.6951 14.0648C43.6289 14.4313 43.5627 14.7944 43.4965 15.1608C43.4204 15.5731 44.0624 15.7367 44.1385 15.3212C44.2047 14.9547 44.2709 14.5916 44.3371 14.2251C44.4099 13.8129 43.7712 13.6493 43.6951 14.0648Z" fill="#46A358"/>
<path d="M45.5188 16.3224C45.489 16.5776 45.4559 16.8327 45.4261 17.0879C45.4063 17.2646 45.4758 17.438 45.6644 17.4871C45.82 17.5263 46.045 17.4282 46.0682 17.2515C46.098 16.9963 46.131 16.7411 46.1608 16.486C46.1807 16.3093 46.1112 16.1359 45.9225 16.0868C45.767 16.0443 45.542 16.1457 45.5188 16.3224Z" fill="#46A358"/>
<path d="M44.9359 20.9779C44.9888 21.256 44.9557 21.5275 44.8664 21.7926C44.7307 22.1917 45.3727 22.352 45.5084 21.9529C45.6375 21.5734 45.6474 21.184 45.5713 20.7914C45.5382 20.618 45.3198 20.5231 45.1609 20.5722C44.9723 20.6278 44.8995 20.8045 44.9359 20.9779Z" fill="#46A358"/>
<path d="M42.9138 18.3377C42.884 18.5929 42.8509 18.848 42.8211 19.1032C42.8013 19.2799 42.8708 19.4533 43.0594 19.5024C43.215 19.5416 43.44 19.4435 43.4632 19.2668C43.493 19.0116 43.5261 18.7564 43.5559 18.5012C43.5757 18.3246 43.5062 18.1512 43.3176 18.1021C43.1587 18.0628 42.9337 18.161 42.9138 18.3377Z" fill="#46A358"/>
<path d="M47.4216 18.8579C47.501 19.2211 47.5772 19.5842 47.6566 19.9441C47.7459 20.3564 48.3814 20.1666 48.292 19.7576C48.2126 19.3945 48.1365 19.0313 48.057 18.6714C47.9677 18.2592 47.3356 18.4457 47.4216 18.8579Z" fill="#46A358"/>
<path d="M47.855 23.6674C47.8616 24.0305 47.8716 24.3937 47.8782 24.7569C47.8881 25.1789 48.55 25.1658 48.5401 24.7438C48.5335 24.3806 48.5236 24.0175 48.5169 23.6543C48.5103 23.2323 47.8484 23.2453 47.855 23.6674Z" fill="#46A358"/>
<path d="M47.0739 28.4636C47.117 28.7187 47.1567 28.9707 47.1997 29.2259C47.2295 29.3993 47.4545 29.4909 47.6101 29.4451C47.7987 29.3894 47.8616 29.2128 47.8318 29.0394C47.7888 28.7842 47.7491 28.5323 47.7061 28.2771C47.6763 28.1037 47.4512 28.0121 47.2957 28.0579C47.107 28.1102 47.0442 28.2869 47.0739 28.4636Z" fill="#46A358"/>
<path d="M44.3736 26.0295C44.3769 26.2487 44.3835 26.4646 44.3868 26.6838C44.3968 27.1058 45.0587 27.0928 45.0487 26.6707C45.0454 26.4515 45.0388 26.2356 45.0355 26.0164C45.0289 25.5943 44.367 25.6074 44.3736 26.0295Z" fill="#46A358"/>
<path d="M42.5498 23.2289C42.573 23.5004 42.5465 23.7556 42.4671 24.0174C42.3447 24.423 42.9867 24.5801 43.1092 24.1777C43.2051 23.8669 43.2382 23.5397 43.2117 23.2158C43.1753 22.8003 42.5134 22.8101 42.5498 23.2289Z" fill="#46A358"/>
<path d="M43.3804 30.7603C43.3473 31.0155 43.3175 31.2706 43.2844 31.5258C43.2613 31.7025 43.3341 31.8759 43.5227 31.925C43.6783 31.9642 43.9033 31.8661 43.9265 31.6894C43.9596 31.4342 43.9894 31.179 44.0225 30.9238C44.0456 30.7472 43.9728 30.5738 43.7842 30.5247C43.6253 30.4854 43.4036 30.5836 43.3804 30.7603Z" fill="#46A358"/>
<path d="M46.7565 34.4672C46.7995 34.6831 46.8392 34.9023 46.8822 35.1182C46.9153 35.2916 47.1338 35.3865 47.2926 35.3374C47.478 35.2818 47.5475 35.1051 47.5144 34.9317C47.4713 34.7158 47.4316 34.4966 47.3886 34.2807C47.3555 34.1073 47.1371 34.0124 46.9782 34.0615C46.7929 34.1171 46.7234 34.2938 46.7565 34.4672Z" fill="#46A358"/>
<path d="M44.9657 38.2131C45.0452 38.5763 45.1279 38.9362 45.2073 39.2993C45.3 39.7116 45.9321 39.5218 45.8428 39.1129C45.7633 38.7497 45.6806 38.3898 45.6012 38.0267C45.5085 37.6144 44.8731 37.8009 44.9657 38.2131Z" fill="#46A358"/>
<path d="M48.6595 40.5818C48.59 40.837 48.5238 41.0922 48.4543 41.3507C48.3451 41.7596 48.9872 41.9199 49.0964 41.511C49.1659 41.2558 49.2321 41.0006 49.3016 40.7421C49.4108 40.3332 48.7688 40.1729 48.6595 40.5818Z" fill="#46A358"/>
<path d="M48.166 12.1869C48.2091 12.4421 48.2521 12.6941 48.2951 12.9492C48.3249 13.1226 48.5499 13.2143 48.7055 13.1684C48.8941 13.1128 48.957 12.9362 48.9272 12.7628C48.8842 12.5076 48.8412 12.2556 48.7981 12.0005C48.7684 11.8271 48.5433 11.7355 48.3878 11.7813C48.2024 11.8369 48.1362 12.0135 48.166 12.1869Z" fill="#46A358"/>
<path d="M48.2457 16.679C48.292 17.0061 48.3383 17.33 48.3847 17.6572C48.4111 17.8306 48.527 17.9811 48.7222 17.9778C48.8844 17.9746 49.0697 17.8208 49.0466 17.6441C49.0002 17.317 48.9539 16.9931 48.9076 16.6659C48.8811 16.4925 48.7653 16.342 48.57 16.3453C48.4078 16.3485 48.2192 16.5056 48.2457 16.679Z" fill="#46A358"/>
<path d="M53.2097 20.3107C53.1204 20.8243 53.0277 21.3347 52.9384 21.8484C52.8656 22.2606 53.5076 22.4242 53.5804 22.0087C53.6698 21.495 53.7624 20.9846 53.8518 20.471C53.9246 20.0588 53.2826 19.8952 53.2097 20.3107Z" fill="#46A358"/>
<path d="M54.4971 19.3881C54.5037 19.6433 54.507 19.8985 54.5137 20.1504C54.5236 20.5724 55.1855 20.5594 55.1756 20.1373C55.1689 19.8821 55.1656 19.6269 55.159 19.375C55.1491 18.953 54.4905 18.966 54.4971 19.3881Z" fill="#46A358"/>
<path d="M54.1364 22.8854C54.0735 23.4318 54.0139 23.9781 53.9511 24.5245C53.9047 24.9433 54.5666 24.9237 54.613 24.5114C54.6758 23.9651 54.7354 23.4187 54.7983 22.8723C54.8446 22.4568 54.1827 22.4732 54.1364 22.8854Z" fill="#46A358"/>
<path d="M52.4224 23.8439C52.2801 24.1383 52.1411 24.4328 51.9988 24.724C51.8168 25.1035 52.396 25.4241 52.578 25.0413C52.7203 24.7469 52.8593 24.4524 53.0016 24.1613C53.1836 23.7817 52.6045 23.4611 52.4224 23.8439Z" fill="#46A358"/>
<path d="M51.4263 22.0937C51.3403 22.3162 51.2575 22.5354 51.1715 22.7579C51.1086 22.9247 51.2509 23.1145 51.4097 23.157C51.5984 23.2061 51.7473 23.085 51.8135 22.9215C51.8996 22.699 51.9823 22.4798 52.0683 22.2573C52.1312 22.0904 51.9889 21.9007 51.8301 21.8582C51.6414 21.8091 51.4925 21.9269 51.4263 22.0937Z" fill="#46A358"/>
<path d="M53.316 26.3925C53.3028 26.6837 53.2928 26.9749 53.2796 27.266C53.2631 27.6881 53.925 27.6717 53.9415 27.253C53.9547 26.9618 53.9647 26.6706 53.9779 26.3794C53.9945 25.9574 53.3326 25.9737 53.316 26.3925Z" fill="#46A358"/>
<path d="M54.6729 28.1101C54.6597 28.3817 54.6464 28.6565 54.6332 28.9281C54.6233 29.1047 54.802 29.2519 54.9708 29.2487C55.1594 29.2454 55.2852 29.0916 55.2951 28.915C55.3084 28.6434 55.3216 28.3686 55.3348 28.097C55.3448 27.9204 55.166 27.7731 54.9973 27.7764C54.8086 27.7797 54.6829 27.9335 54.6729 28.1101Z" fill="#46A358"/>
<path d="M54.1499 31.035C54.1201 31.2706 54.087 31.5094 54.0573 31.745C54.0341 31.9184 54.1102 32.095 54.2955 32.1441C54.4544 32.1834 54.6761 32.0852 54.6993 31.9085C54.7291 31.673 54.7622 31.4342 54.792 31.1986C54.8151 31.0252 54.739 30.8485 54.5537 30.7995C54.3948 30.7569 54.1731 30.8583 54.1499 31.035Z" fill="#46A358"/>
<path d="M51.6808 29.0133C51.6477 29.2129 51.6146 29.4157 51.5815 29.6153C51.5517 29.7887 51.6377 29.9653 51.8198 30.0144C51.9819 30.0537 52.1937 29.9523 52.2235 29.7789C52.2566 29.5793 52.2897 29.3764 52.3228 29.1769C52.3526 29.0035 52.2665 28.8268 52.0845 28.7777C51.9224 28.7352 51.7105 28.8366 51.6808 29.0133Z" fill="#46A358"/>
<path d="M52.1573 34.2152C52.1606 34.3592 52.164 34.5064 52.1673 34.6504C52.1772 35.0724 52.8391 35.0593 52.8292 34.6373C52.8259 34.4933 52.8225 34.3461 52.8192 34.2022C52.8093 33.7801 52.1474 33.7932 52.1573 34.2152Z" fill="#46A358"/>
<path d="M54.2955 36.1357C54.2988 36.2796 54.3021 36.4268 54.3054 36.5708C54.3154 36.9928 54.9773 36.9797 54.9674 36.5577C54.964 36.4137 54.9607 36.2665 54.9574 36.1226C54.9475 35.7005 54.2856 35.7136 54.2955 36.1357Z" fill="#46A358"/>
<path d="M52.3894 40.101C52.4158 40.3562 52.3894 40.5918 52.3066 40.8339C52.2504 41.0007 52.3827 41.1905 52.5449 41.233C52.7302 41.2788 52.8891 41.1643 52.9487 40.9974C53.048 40.7063 53.0844 40.3955 53.0513 40.0912C53.0314 39.9145 52.9023 39.7673 52.7137 39.7706C52.5449 39.7706 52.3695 39.9243 52.3894 40.101Z" fill="#46A358"/>
<path d="M53.2065 18.6517C53.1205 18.8185 53.0311 18.9854 52.9451 19.149C52.7498 19.5219 53.3257 19.8425 53.5243 19.4663C53.6103 19.2994 53.6997 19.1326 53.7857 18.969C53.981 18.596 53.4051 18.2754 53.2065 18.6517Z" fill="#46A358"/>
<path d="M36.0399 12.4323C36.0995 12.7758 36.1624 13.1226 36.2219 13.4662C36.2517 13.6396 36.4768 13.7312 36.6323 13.6854C36.821 13.6297 36.8871 13.4531 36.854 13.2797C36.7945 12.9361 36.7316 12.5893 36.672 12.2458C36.6422 12.0724 36.4172 11.9808 36.2616 12.0266C36.073 12.0822 36.0068 12.2589 36.0399 12.4323Z" fill="#46A358"/>
<path d="M37.0265 14.595C37.1787 14.9549 37.3343 15.318 37.4865 15.6779C37.556 15.8415 37.7149 15.9527 37.8969 15.8971C38.0524 15.8513 38.1881 15.655 38.1186 15.4914C37.9664 15.1315 37.8108 14.7684 37.6586 14.4085C37.5891 14.2449 37.4303 14.1337 37.2482 14.1893C37.0927 14.2351 36.957 14.4314 37.0265 14.595Z" fill="#46A358"/>
<path d="M36.1228 15.8021C36.0467 16.306 36.0533 16.7869 36.1427 17.2842C36.2155 17.6964 36.8476 17.51 36.7781 17.0977C36.7119 16.7248 36.7119 16.3387 36.7682 15.9624C36.8244 15.5502 36.1824 15.3866 36.1228 15.8021Z" fill="#46A358"/>
<path d="M37.3805 17.6931C37.493 18.0006 37.6022 18.3114 37.7148 18.619C37.8571 19.0149 38.4925 18.8316 38.3502 18.4325C38.2377 18.125 38.1284 17.8141 38.0159 17.5066C37.8736 17.1107 37.2382 17.294 37.3805 17.6931Z" fill="#46A358"/>
<path d="M35.8414 19.0019C35.848 19.365 35.8579 19.7282 35.8645 20.0913C35.8745 20.5134 36.5364 20.5003 36.5264 20.0783C36.5198 19.7151 36.5099 19.3519 36.5033 18.9888C36.4966 18.5667 35.8347 18.5798 35.8414 19.0019Z" fill="#46A358"/>
<path d="M37.0826 20.2321C37.0892 20.5593 37.0959 20.8864 37.1025 21.2136C37.1124 21.6356 37.7743 21.6226 37.7644 21.2005C37.7578 20.8733 37.7512 20.5462 37.7445 20.219C37.7346 19.797 37.0727 19.81 37.0826 20.2321Z" fill="#46A358"/>
<path d="M38.9328 20.8799C39.0652 21.2594 39.2009 21.6389 39.3333 22.0184C39.4723 22.4143 40.1077 22.2311 39.9687 21.8319C39.8363 21.4524 39.7006 21.0729 39.5683 20.6934C39.4293 20.2975 38.7938 20.4807 38.9328 20.8799Z" fill="#46A358"/>
<path d="M39.6573 24.1383C39.697 24.3379 39.74 24.5375 39.7798 24.737C39.8162 24.9104 40.0313 25.0053 40.1901 24.9562C40.3755 24.9006 40.4483 24.7239 40.4119 24.5505C40.3722 24.351 40.3291 24.1514 40.2894 23.9518C40.253 23.7784 40.0379 23.6835 39.879 23.7326C39.697 23.785 39.6209 23.9649 39.6573 24.1383Z" fill="#46A358"/>
<path d="M37.8405 24.1743C37.9497 24.4818 38.0291 24.7959 38.0655 25.1198C38.0854 25.2965 38.2144 25.4437 38.4031 25.4404C38.5686 25.4372 38.7473 25.2834 38.7274 25.1067C38.6844 24.7239 38.605 24.351 38.4759 23.9878C38.3336 23.5919 37.6981 23.7752 37.8405 24.1743Z" fill="#46A358"/>
<path d="M36.1426 22.8691C36.1492 23.1242 36.1526 23.3794 36.1592 23.6314C36.1691 24.0534 36.831 24.0403 36.8211 23.6183C36.8145 23.3631 36.8111 23.1079 36.8045 22.856C36.7946 22.4339 36.136 22.447 36.1426 22.8691Z" fill="#46A358"/>
<path d="M36.9404 26.7787C36.9669 27.1059 37.0298 27.4265 37.139 27.734C37.2813 28.1299 37.9167 27.9467 37.7744 27.5475C37.6818 27.2924 37.6222 27.0339 37.6023 26.7656C37.5725 26.3468 36.9106 26.3599 36.9404 26.7787Z" fill="#46A358"/>
<path d="M38.3898 29.563C38.4494 29.7626 38.5089 29.9622 38.5685 30.1585C38.6877 30.5609 39.3231 30.3777 39.2039 29.972C39.1444 29.7724 39.0848 29.5761 39.0252 29.3765C38.9061 28.9741 38.2707 29.1573 38.3898 29.563Z" fill="#46A358"/>
<path d="M39.1676 27.0371C39.2073 27.181 39.247 27.325 39.2867 27.4722C39.3993 27.8779 40.0347 27.6914 39.9222 27.2857C39.8824 27.1418 39.8427 26.9978 39.803 26.8506C39.6905 26.4449 39.0551 26.6314 39.1676 27.0371Z" fill="#46A358"/>
<path d="M37.291 32.4779C37.3737 32.8018 37.4531 33.129 37.5359 33.4529C37.6385 33.8618 38.2739 33.6753 38.1713 33.2664C38.0885 32.9425 38.0091 32.6153 37.9264 32.2914C37.8238 31.8824 37.1884 32.0689 37.291 32.4779Z" fill="#46A358"/>
<path d="M38.9362 37.2415C38.9958 37.3854 39.052 37.5294 39.1116 37.6733C39.1778 37.8369 39.34 37.9481 39.522 37.8925C39.6808 37.8467 39.8099 37.6504 39.7437 37.4868C39.6841 37.3429 39.6279 37.1989 39.5683 37.055C39.5021 36.8914 39.34 36.7802 39.1579 36.8358C38.9991 36.8816 38.87 37.0779 38.9362 37.2415Z" fill="#46A358"/>
<path d="M60.4811 23.6836C60.3057 24.0336 60.1269 24.3804 59.9515 24.7305C59.7596 25.1068 60.3388 25.4274 60.5307 25.0479C60.7061 24.6978 60.8848 24.351 61.0602 24.0009C61.2522 23.6247 60.673 23.3073 60.4811 23.6836Z" fill="#46A358"/>
<path d="M61.4078 24.5047C61.3251 24.8352 61.239 25.1623 61.1563 25.4928C61.0504 25.9017 61.6924 26.0621 61.7983 25.6531C61.8811 25.3227 61.9671 24.9955 62.0499 24.6651C62.1524 24.2594 61.5104 24.0991 61.4078 24.5047Z" fill="#46A358"/>
<path d="M60.5936 27.6325C60.5109 27.9073 60.4282 28.1821 60.3421 28.457C60.2197 28.8627 60.8617 29.0197 60.9842 28.6173C61.0669 28.3425 61.1496 28.0676 61.2357 27.7928C61.3548 27.3904 60.7128 27.2301 60.5936 27.6325Z" fill="#46A358"/>
<path d="M60.0374 26.3076C59.9679 26.4352 59.895 26.566 59.8255 26.6936C59.6204 27.0633 60.1995 27.384 60.4047 27.011C60.4742 26.8834 60.547 26.7525 60.6165 26.6249C60.8217 26.2585 60.2425 25.9379 60.0374 26.3076Z" fill="#46A358"/>
<path d="M61.6722 26.4646C61.6424 26.7198 61.6126 26.975 61.5829 27.2302C61.563 27.4069 61.6325 27.5803 61.8211 27.6293C61.9767 27.6686 62.2017 27.5704 62.2249 27.3938C62.2547 27.1386 62.2845 26.8834 62.3143 26.6282C62.3341 26.4515 62.2646 26.2781 62.076 26.2291C61.9171 26.1898 61.6921 26.2879 61.6722 26.4646Z" fill="#46A358"/>
<path d="M58.5546 28.1625C58.4884 28.3719 58.3891 28.5616 58.27 28.7448C58.0383 29.0982 58.6175 29.4155 58.8492 29.0622C59.0014 28.8332 59.1139 28.5845 59.1966 28.3228C59.2496 28.1559 59.1238 27.9662 58.9584 27.9236C58.773 27.8811 58.6076 27.9923 58.5546 28.1625Z" fill="#46A358"/>
<path d="M58.5351 30.9761C58.3928 31.2084 58.3233 31.4734 58.3366 31.745C58.3564 32.1638 59.0183 32.1539 58.9985 31.7319C58.9918 31.5683 59.0249 31.4342 59.1143 31.2968C59.336 30.9336 58.7569 30.6162 58.5351 30.9761Z" fill="#46A358"/>
<path d="M60.2592 30.2565C60.1931 30.4757 60.1269 30.6982 60.064 30.9174C59.9448 31.3231 60.5869 31.4801 60.706 31.0777C60.7722 30.8585 60.8384 30.636 60.9013 30.4168C61.0204 30.0111 60.3784 29.8541 60.2592 30.2565Z" fill="#46A358"/>
<path d="M59.7132 33.4824C59.6437 33.7212 59.5776 33.9568 59.5081 34.1956C59.3922 34.6013 60.0343 34.7616 60.1501 34.3559C60.2196 34.1171 60.2858 33.8815 60.3553 33.6427C60.4711 33.2403 59.8291 33.0799 59.7132 33.4824Z" fill="#46A358"/>
<path d="M61.8114 28.8364C61.7949 28.9837 61.7816 29.1276 61.7651 29.2749C61.7452 29.4515 61.9405 29.5987 62.1026 29.5955C62.3012 29.5922 62.4071 29.4384 62.427 29.2618C62.4435 29.1145 62.4568 28.9706 62.4733 28.8234C62.4932 28.6467 62.2979 28.4995 62.1357 28.5027C61.9372 28.5093 61.8313 28.6598 61.8114 28.8364Z" fill="#46A358"/>
<path d="M57.6545 35.3799C57.6214 35.4911 57.585 35.5991 57.5519 35.7103C57.4261 36.1127 58.0682 36.2731 58.1939 35.8706C58.227 35.7594 58.2634 35.6514 58.2965 35.5402C58.4223 35.1378 57.7802 34.9807 57.6545 35.3799Z" fill="#46A358"/>
<path d="M57.1216 38.7202C57.0521 38.9034 56.9792 39.0866 56.9097 39.2698C56.8469 39.4334 56.9892 39.6264 57.148 39.669C57.34 39.718 57.4856 39.597 57.5518 39.4334C57.6213 39.2502 57.6941 39.067 57.7636 38.8838C57.8265 38.7202 57.6842 38.5272 57.5253 38.4846C57.3334 38.4355 57.1877 38.5533 57.1216 38.7202Z" fill="#46A358"/>
<path d="M59.7262 37.3888C59.7295 37.4968 59.7295 37.608 59.7328 37.716C59.7427 38.138 60.4046 38.1249 60.3947 37.7029C60.3914 37.5949 60.3914 37.4837 60.3881 37.3757C60.3782 36.9537 59.7163 36.9668 59.7262 37.3888Z" fill="#46A358"/>
<path d="M58.4921 41.7237C58.4755 41.8709 58.4623 42.0148 58.4457 42.1621C58.4259 42.3387 58.6211 42.486 58.7833 42.4827C58.9819 42.4794 59.0878 42.3257 59.1076 42.149C59.1242 42.0018 59.1374 41.8578 59.154 41.7106C59.1738 41.5339 58.9786 41.3867 58.8164 41.3899C58.6211 41.3932 58.5119 41.547 58.4921 41.7237Z" fill="#46A358"/>
<path d="M28.2594 28.0806C28.3157 28.2606 28.3752 28.4438 28.4315 28.6237C28.5572 29.0261 29.1927 28.8397 29.0669 28.4373C29.0106 28.2573 28.9511 28.0741 28.8948 27.8942C28.7657 27.4917 28.1303 27.6782 28.2594 28.0806Z" fill="#46A358"/>
<path d="M28.941 27.3381C29.1628 27.6097 29.3878 27.8812 29.6095 28.1495C29.7221 28.2869 29.9637 28.2574 30.0762 28.1397C30.2119 27.999 30.1788 27.8158 30.0663 27.6784C29.8445 27.4068 29.6195 27.1353 29.3977 26.867C29.2852 26.7296 29.0436 26.759 28.9311 26.8768C28.7954 27.0142 28.8285 27.2007 28.941 27.3381Z" fill="#46A358"/>
<path d="M30.212 29.6415C30.4039 29.9098 30.5959 30.1781 30.7845 30.4431C31.0294 30.7866 31.5954 30.4464 31.3504 30.1029C31.1585 29.8346 30.9665 29.5663 30.7779 29.3013C30.5297 28.9578 29.9638 29.2947 30.212 29.6415Z" fill="#46A358"/>
<path d="M29.3981 30.4233C29.5503 30.6752 29.7026 30.9271 29.8548 31.1791C30.0732 31.5389 30.6392 31.1987 30.4207 30.8388C30.2685 30.5869 30.1163 30.335 29.964 30.083C29.7423 29.7199 29.1797 30.0601 29.3981 30.4233Z" fill="#46A358"/>
<path d="M30.8805 33.1224C31.0725 33.4626 31.2677 33.8029 31.4597 34.1431C31.6682 34.5096 32.2341 34.1693 32.0256 33.8029C31.8337 33.4626 31.6384 33.1224 31.4465 32.7821C31.2346 32.4157 30.672 32.756 30.8805 33.1224Z" fill="#46A358"/>
<path d="M31.4665 32.131C31.5989 32.3273 31.7313 32.5269 31.8637 32.7232C32.0987 33.0732 32.6646 32.733 32.4296 32.3829C32.2972 32.1866 32.1649 31.987 32.0325 31.7907C31.7942 31.4407 31.2283 31.7777 31.4665 32.131Z" fill="#46A358"/>
<path d="M31.7742 30.757C31.8834 30.9893 32.0687 31.1693 32.2905 31.3001C32.6611 31.5128 32.9822 30.9402 32.6115 30.7276C32.4791 30.6523 32.3997 30.5509 32.3368 30.4168C32.2607 30.2565 32.0224 30.2237 31.8801 30.3088C31.7179 30.4102 31.6981 30.5967 31.7742 30.757Z" fill="#46A358"/>
<path d="M29.2922 32.4745C29.3353 32.6544 29.375 32.8344 29.418 33.0176C29.4577 33.191 29.6662 33.2859 29.8284 33.2368C30.0104 33.1844 30.0898 33.0012 30.0501 32.8311C30.0071 32.6512 29.9674 32.4712 29.9244 32.288C29.8846 32.1146 29.6761 32.0197 29.514 32.0688C29.3319 32.1211 29.2525 32.3044 29.2922 32.4745Z" fill="#46A358"/>
<path d="M31.3805 35.8936C31.5327 36.2011 31.6849 36.5087 31.8339 36.8129C31.9133 36.9733 32.1483 37.006 32.2906 36.9209C32.4561 36.8228 32.4792 36.6297 32.3998 36.4694C32.2476 36.1619 32.0953 35.8543 31.9464 35.5501C31.867 35.3898 31.632 35.357 31.4897 35.4421C31.3242 35.5435 31.301 35.7366 31.3805 35.8936Z" fill="#46A358"/>
<path d="M33.8523 34.9679C33.9682 35.1838 34.0807 35.3997 34.1965 35.6156C34.3951 35.9886 34.9577 35.6451 34.7625 35.2754C34.6466 35.0595 34.5341 34.8435 34.4183 34.6276C34.2164 34.2546 33.6538 34.5949 33.8523 34.9679Z" fill="#46A358"/>
<path d="M34.6073 39.6463C34.7033 39.8263 34.7993 40.0062 34.8985 40.1829C35.1004 40.5558 35.663 40.2123 35.4645 39.8426C35.3685 39.6627 35.2725 39.4827 35.1732 39.3061C34.9714 38.9331 34.4054 39.2734 34.6073 39.6463Z" fill="#46A358"/>
<path d="M35.7818 37.9875C35.8943 38.1675 36.0101 38.3474 36.1227 38.5273C36.3477 38.884 36.9136 38.5437 36.6886 38.1871C36.5761 38.0071 36.4602 37.8272 36.3477 37.6473C36.1193 37.2907 35.5534 37.6309 35.7818 37.9875Z" fill="#46A358"/>
<path d="M37.0994 43.0323C37.1921 43.1959 37.288 43.3562 37.3807 43.5198C37.5925 43.8862 38.1551 43.5427 37.9466 43.1795C37.854 43.0159 37.758 42.8556 37.6653 42.692C37.4535 42.3256 36.8876 42.6659 37.0994 43.0323Z" fill="#46A358"/>
<path d="M26.4258 41.0104C26.6475 41.1151 26.8726 41.2165 27.0943 41.3212C27.4782 41.5012 27.8025 40.9286 27.4153 40.7487C27.1936 40.644 26.9685 40.5426 26.7468 40.4379C26.3662 40.2612 26.0419 40.8305 26.4258 41.0104Z" fill="#46A358"/>
<path d="M28.5342 41.9624C28.7791 42.1358 29.024 42.3124 29.2656 42.4858C29.4112 42.5905 29.6363 42.5022 29.7157 42.3582C29.8117 42.1881 29.7322 42.018 29.5866 41.9133C29.3417 41.7399 29.0968 41.5632 28.8552 41.3898C28.7096 41.2851 28.4845 41.3735 28.4051 41.5174C28.3125 41.6875 28.3919 41.8577 28.5342 41.9624Z" fill="#46A358"/>
<path d="M28.21 40.9613C28.3788 40.9973 28.5343 41.053 28.6866 41.138C29.0606 41.3409 29.3816 40.7683 29.0076 40.5655C28.809 40.4575 28.5939 40.3757 28.3722 40.3266C27.9585 40.235 27.793 40.8697 28.21 40.9613Z" fill="#46A358"/>
<path d="M30.1491 42.3584C30.298 42.4631 30.4469 42.571 30.5959 42.6757C30.7415 42.7772 30.9665 42.6921 31.046 42.5481C31.1419 42.378 31.0625 42.2046 30.9169 42.1032C30.768 41.9985 30.619 41.8905 30.4701 41.7858C30.3245 41.6844 30.0994 41.7695 30.02 41.9134C29.9273 42.0836 30.0035 42.2537 30.1491 42.3584Z" fill="#46A358"/>
<path d="M30.1029 43.3366C30.179 43.4446 30.2551 43.5525 30.3313 43.6605C30.5728 44.004 31.1388 43.667 30.8972 43.3202C30.8211 43.2123 30.7449 43.1043 30.6688 42.9963C30.4272 42.6495 29.858 42.9898 30.1029 43.3366Z" fill="#46A358"/>
<path d="M31.6023 43.8634C31.7512 43.9877 31.9001 44.1121 32.0524 44.2364C32.188 44.3509 32.3899 44.3607 32.519 44.2266C32.6381 44.1055 32.6481 43.8765 32.5091 43.7653C32.3601 43.6409 32.2112 43.5166 32.059 43.3923C31.9233 43.2778 31.7214 43.268 31.5923 43.4021C31.4732 43.5199 31.4633 43.7489 31.6023 43.8634Z" fill="#46A358"/>
<path d="M65.7629 34.2251C65.4088 34.1597 65.0579 34.1662 64.7071 34.2546C64.2935 34.3593 64.4821 34.9874 64.8958 34.8827C65.1274 34.8238 65.3624 34.814 65.5974 34.8598C66.0177 34.9384 66.1799 34.3037 65.7629 34.2251Z" fill="#46A358"/>
<path d="M63.4791 34.9021C63.3534 34.997 63.2243 35.0886 63.0986 35.1835C62.9562 35.2882 62.8901 35.4714 62.9893 35.635C63.0754 35.7756 63.3004 35.8509 63.4461 35.7429C63.5718 35.648 63.7009 35.5564 63.8266 35.4616C63.969 35.3569 64.0351 35.1737 63.9359 35.0101C63.8498 34.8694 63.6248 34.7974 63.4791 34.9021Z" fill="#46A358"/>
<path d="M63.5852 34.5817C64.0121 34.5719 63.9989 33.9175 63.572 33.9274C63.145 33.9372 63.1583 34.5915 63.5852 34.5817Z" fill="#46A358"/>
</g>
<g clip-path="url(#clip1_296_121)">
<path d="M30.3859 47.6164C28.0447 53.6309 26.3971 59.9163 25.8568 66.3708C25.3966 71.8878 25.5367 77.8381 28.5583 82.6511C28.9051 83.2028 29.7589 82.6748 29.412 82.1197C26.3804 77.2931 26.3871 71.238 26.9141 65.7243C27.501 59.5812 29.1285 53.5937 31.3564 47.8668C31.5898 47.261 30.6193 47.0173 30.3859 47.6164Z" fill="#727272"/>
<path d="M60.7885 46.6855C66.1146 50.7471 66.1213 58.1933 66.6949 64.3061C66.9851 67.3895 67.3853 70.4831 67.5254 73.58C67.6554 76.4096 67.422 79.4152 65.2141 81.4189C64.7339 81.8556 65.4576 82.5562 65.9345 82.1229C67.8789 80.3595 68.4792 77.8346 68.5459 75.2724C68.6426 71.6237 68.0323 67.9141 67.6921 64.2891C67.0951 57.9192 67.0218 50.1818 61.4789 45.9544C60.9719 45.5652 60.2749 46.2929 60.7885 46.6855Z" fill="#727272"/>
<path d="M28.7584 82.8542C31.5832 83.8865 34.4714 84.1437 37.443 84.3976C40.7313 84.6785 44.0497 85.1016 47.3548 84.9831C50.7099 84.8647 54.075 84.3806 57.41 84.0151C60.3282 83.6936 63.2231 83.2874 65.9445 82.1095C66.5281 81.8557 66.2513 80.8775 65.6577 81.1348C62.8362 82.3566 59.8413 82.7357 56.8164 83.0606C53.6681 83.3991 50.4998 83.856 47.3348 83.9677C44.2332 84.0794 41.1249 83.6969 38.0366 83.4363C34.9583 83.1723 31.9367 82.9422 29.0052 81.8726C28.3982 81.6458 28.1581 82.6342 28.7584 82.8542Z" fill="#727272"/>
<path d="M30.6258 48.1849C32.9537 49.1495 35.3316 50.0025 37.8429 50.3037C40.4543 50.6151 43.1157 50.1683 45.7437 50.236C47.2012 50.2732 48.5118 50.4729 49.9826 50.2597C51.2499 50.0735 52.5173 49.8163 53.7479 49.4609C56.2992 48.723 58.7705 47.6941 61.2752 46.8073C61.8788 46.5941 61.5987 45.6193 60.9884 45.8325C56.0858 47.5689 51.4901 49.5963 46.1973 49.2477C43.9962 49.1021 41.805 49.4304 39.6105 49.4101C36.6557 49.3797 33.8142 48.4184 31.1061 47.2981C30.5225 47.0544 30.0289 47.9378 30.6258 48.1849Z" fill="#727272"/>
<path d="M0.663355 51.2413C6.26628 52.1348 11.479 54.8257 15.3844 59.0193C19.163 63.0775 21.2875 68.4252 25.4096 72.1924C25.8865 72.629 26.5836 71.8979 26.1033 71.4613C21.7344 67.4674 19.5499 61.6898 15.3477 57.5368C11.4123 53.6478 6.32298 51.1194 0.910151 50.2564C0.276487 50.1548 0.026356 51.1398 0.663355 51.2413Z" fill="#727272"/>
<path d="M1.53758 49.4236C6.62357 48.2458 12.0297 48.9464 16.5988 51.5424C20.244 53.6138 23.2356 56.8868 27.5879 57.3336C28.2282 57.3979 28.2015 56.3825 27.5678 56.3182C22.6853 55.8173 19.1635 51.3529 14.7612 49.5184C10.4689 47.7313 5.76312 47.4064 1.2541 48.4488C0.623774 48.5944 0.910591 49.5692 1.53758 49.4236Z" fill="#727272"/>
<path d="M0.723598 48.7433C0.340064 49.2781 0.0932688 49.9042 0.0065569 50.5575C-0.0301289 50.8316 0.0865987 51.099 0.37008 51.1735C0.60687 51.2378 0.940378 51.0787 0.977064 50.8045C1.05377 50.2224 1.25721 49.7113 1.59739 49.2341C1.75747 49.0107 1.6174 48.6688 1.40395 48.5436C1.14715 48.3981 0.880347 48.5233 0.723598 48.7433Z" fill="#727272"/>
<path d="M64.8103 49.6708C66.8781 45.6532 73.4482 45.1354 77.1568 46.9766C81.1755 48.9736 83.0298 53.8103 81.3823 58.0411C79.9482 61.727 76.2629 63.531 73.2314 65.6566C71.954 66.5535 70.5333 67.5622 69.6495 68.8856C68.7257 70.2699 68.8457 72.0299 67.9319 73.4109C67.5718 73.9558 68.4489 74.4432 68.8057 73.905C69.3827 73.0352 69.5494 72.1078 69.8062 71.1127C70.1698 69.7216 70.8968 68.828 71.9407 67.9176C73.7383 66.3505 75.8461 65.2166 77.7604 63.812C81.1488 61.3242 83.5267 57.7906 82.8964 53.3635C82.3194 49.3324 79.1244 45.9985 75.1791 45.264C71.2036 44.5227 65.9642 45.2369 63.9332 49.18C63.6364 49.7554 64.5102 50.2496 64.8103 49.6708Z" fill="#727272"/>
<path d="M65.8242 52.2263C67.2082 49.4238 70.3599 48.6995 73.2214 48.9229C75.129 49.0718 76.3063 49.8334 77.3035 51.4953C78.4074 53.3297 78.3541 54.8833 77.7304 56.8396C76.7499 59.9062 74.9823 61.3277 72.2642 62.7662C70.4833 63.7071 67.7652 64.9392 67.0548 67.0207C66.8447 67.6401 67.8152 67.8838 68.0253 67.2712C68.6723 65.3758 71.8473 64.1438 73.4815 63.2671C74.8989 62.509 76.2263 61.673 77.1834 60.336C78.6976 58.224 79.9416 54.775 78.8443 52.2737C77.5036 49.214 75.4525 47.8567 72.1775 47.8804C69.2627 47.9007 66.3245 48.9568 64.9537 51.7322C64.6636 52.3143 65.5374 52.8085 65.8242 52.2263Z" fill="#727272"/>
<path d="M47.3081 59.5709C44.3666 60.0143 41.8819 62.2346 41.5851 65.3383C41.3016 68.2965 43.2693 72.1483 46.6111 71.9215C49.6593 71.715 52.3674 68.7162 52.6475 65.7174C52.9577 62.4174 50.5198 59.5404 47.208 59.6859C46.5644 59.713 46.5844 60.7284 47.228 60.7013C50.1329 60.5727 52.1339 63.2669 51.5903 66.1033C51.1501 68.3981 48.969 70.7132 46.591 70.9095C43.6695 71.1498 42.1787 67.3962 42.6423 64.9593C43.0859 62.6238 45.0569 60.9315 47.3281 60.5896C47.9551 60.4915 47.9451 59.4727 47.3081 59.5709Z" fill="#727272"/>
<path d="M47.8815 60.0143C47.7048 57.8616 51.0365 54.5886 52.7041 57.0798C53.221 57.8515 53.7213 59.2223 53.5078 60.1733C53.2777 61.1921 52.2938 61.9537 51.5401 62.5798C51.0432 62.9928 51.7702 63.6934 52.2605 63.2839C53.4478 62.2989 54.6684 61.1177 54.555 59.4287C54.4616 58.0478 53.7079 56.2268 52.5206 55.4687C49.986 53.8474 46.6776 57.5604 46.881 60.038C46.9344 60.6844 47.9349 60.6675 47.8815 60.0143Z" fill="#727272"/>
<path d="M52.5274 63.5106C53.7814 62.7559 57.0264 62.9555 56.6896 65.1353C56.3694 67.2135 53.718 67.2981 52.1472 67.3184C51.5035 67.3252 51.5235 68.3406 52.1672 68.3338C54.3717 68.3067 58.227 67.6027 57.6767 64.438C57.2432 61.9537 53.788 61.5678 52.0038 62.6442C51.4501 62.9792 51.9704 63.8457 52.5274 63.5106Z" fill="#727272"/>
<path d="M51.5203 68.5198C53.2745 69.3051 55.2489 71.6371 53.5814 73.519C51.6304 75.719 48.8089 73.5427 48.0885 71.4205C47.8784 70.8045 46.9179 71.0888 47.128 71.7116C48.0618 74.4532 51.4269 76.8224 54.0216 74.4972C56.5429 72.2396 54.5385 68.7669 52.0072 67.6297C51.4236 67.3691 50.9333 68.2558 51.5203 68.5198Z" fill="#727272"/>
<path d="M46.6476 71.6746C46.7377 73.3805 46.2674 75.919 44.0063 75.6143C42.9791 75.4756 42.1886 74.538 42.2353 73.4752C42.2754 72.5208 42.939 71.4072 43.3026 70.534C43.5494 69.9383 42.6789 69.4373 42.4288 70.0398C41.8985 71.3192 40.978 72.8118 41.3182 74.2571C41.595 75.4282 42.5055 76.359 43.6728 76.5925C46.651 77.1916 47.7749 74.0743 47.6482 71.6509C47.6148 71.001 46.6143 71.018 46.6476 71.6746Z" fill="#727272"/>
<path d="M43.1656 69.2715C41.3013 70.0534 38.4232 69.8537 37.7728 67.481C37.4894 66.4385 37.8062 65.2065 38.77 64.6413C39.7072 64.093 40.9178 64.2385 41.9383 64.3637C42.5687 64.4416 42.8221 63.4567 42.1851 63.3788C40.7711 63.2062 39.1669 63.0539 37.9496 63.9745C36.9391 64.7394 36.5288 66.0798 36.7223 67.3152C37.2225 70.5069 40.9011 71.3091 43.4491 70.2429C44.0428 69.9992 43.7626 69.021 43.1656 69.2715Z" fill="#727272"/>
<path d="M42.5452 63.4936C40.861 62.5798 39.9805 59.2222 41.458 57.7702C43.399 55.8646 45.7835 58.5656 46.9575 60.0277C47.3644 60.5321 48.0514 59.7976 47.6512 59.2966C46.1171 57.3877 42.7987 54.4667 40.5308 57.2185C38.8633 59.2459 39.8605 63.189 42.0583 64.3838C42.6252 64.6918 43.1155 63.805 42.5452 63.4936Z" fill="#727272"/>
<path d="M44.153 70.9569C43.3626 71.7286 42.849 73.8169 44.0629 74.4499C45.517 75.2114 46.1607 72.6221 46.3541 71.688C46.4408 71.2615 45.7938 71.0956 45.7071 71.5221C45.6204 71.9452 45.5104 72.3615 45.3569 72.7677C45.2802 72.9674 45.1969 73.1671 45.0968 73.3566C44.9434 73.6511 44.8533 73.8406 44.4998 73.8C43.546 73.6815 44.1997 71.8504 44.6366 71.4273C44.9434 71.1227 44.4631 70.6556 44.153 70.9569Z" fill="#727272"/>
<path d="M48.4519 71.0043C48.2818 71.9791 49.369 72.744 50.1461 73.0926C50.9331 73.4446 52.0304 73.5631 52.7674 73.0114C53.4711 72.4834 53.3611 71.5255 53.0576 70.7944C52.644 69.7993 51.7936 69.1292 50.8098 68.7772C50.4029 68.6316 50.2428 69.2916 50.6463 69.4338C51.24 69.647 51.7736 70.0058 52.1504 70.527C52.2805 70.7098 52.3806 70.9027 52.4639 71.1126C52.6574 71.6068 52.6874 71.8301 52.3439 72.26C52.0504 72.6255 51.897 72.7102 51.4501 72.7135C51.1699 72.7135 50.8798 72.656 50.6163 72.5612C50.2128 72.4157 48.9955 71.7726 49.0989 71.1769C49.1722 70.7437 48.5286 70.5744 48.4519 71.0043Z" fill="#727272"/>
<path d="M52.3203 66.6246C53.1574 66.8378 53.9912 66.4723 54.6949 66.0221C55.2085 65.6938 55.8855 65.0947 55.8255 64.4009C55.7754 63.8221 55.2085 63.5479 54.7015 63.487C53.8278 63.3787 52.9706 63.7612 52.2603 64.2418C51.9034 64.4821 52.2503 65.0643 52.6071 64.8206C52.9773 64.5667 53.3709 64.3433 53.8077 64.2316C54.2113 64.1267 55.3852 63.9575 55.0284 64.807C54.7149 65.5618 53.1941 66.1474 52.4837 65.968C52.0668 65.863 51.9034 66.5197 52.3203 66.6246Z" fill="#727272"/>
<path d="M49.2088 60.3056C49.1554 59.7912 49.2621 59.2801 49.629 58.901C49.8958 58.6201 50.5428 58.2478 50.923 58.4644C51.2598 58.6573 51.2365 59.4696 51.2365 59.8453C51.2332 60.3835 51.1198 60.8946 50.943 61.3989C50.7996 61.8084 51.4466 61.9709 51.59 61.5647C51.8768 60.7456 51.9769 59.8859 51.8401 59.0228C51.7468 58.4305 51.6467 57.8416 50.9897 57.7536C49.5356 57.5539 48.405 58.9247 48.5484 60.3226C48.5851 60.749 49.2521 60.7389 49.2088 60.3056Z" fill="#727272"/>
<path d="M43.0155 62.5697C42.4986 61.9097 42.055 60.7116 42.2285 59.862C42.3318 59.3475 42.4519 59.1986 42.9788 59.1445C43.5058 59.0903 43.6359 59.2494 44.0161 59.5608C44.4029 59.8755 44.7798 60.2005 45.1633 60.5186C45.4935 60.7928 45.9571 60.3088 45.6236 60.0312C44.6831 59.246 43.1723 57.4352 41.975 58.8128C41.0478 59.8823 41.6715 61.9402 42.4452 62.9251C42.7087 63.2602 43.2823 62.9116 43.0155 62.5697Z" fill="#727272"/>
<path d="M41.8182 65.2065C40.5175 64.6785 38.82 65.8529 39.0201 67.3354C39.2068 68.7401 41.438 69.2613 42.4419 68.4693C42.7754 68.2053 42.4319 67.6231 42.095 67.8905C41.5481 68.3237 40.1874 68.2087 39.7872 67.5622C39.2002 66.6246 40.6309 65.4434 41.4981 65.7988C41.8883 65.9579 42.2151 65.3689 41.8182 65.2065Z" fill="#727272"/>
</g>
<defs>
<clipPath id="clip0_296_121">
<rect width="44" height="49" fill="white" transform="translate(24)"/>
</clipPath>
<clipPath id="clip1_296_121">
<rect width="83" height="40" fill="white" transform="translate(0 45)"/>
</clipPath>
</defs>
</svg>
