<svg width="20" height="20" viewBox="0 0 20 20" fill="none" xmlns="http://www.w3.org/2000/svg">
<path d="M14.5655 16.0023C10.5703 19.1859 4.98543 18.3049 2.02723 14.6537C-0.827947 11.1286 -0.649381 6.04318 2.44805 2.82462C5.6485 -0.500702 10.6802 -0.94462 14.3277 1.78319C15.6344 2.76031 16.6103 4.00341 17.2459 5.50811C17.8852 7.02155 18.0794 8.59617 17.8578 10.2201C17.6367 11.8366 16.9918 13.277 15.9422 14.6212C16.0272 14.6768 16.1177 14.7167 16.1826 14.7817C17.3364 15.9305 18.4859 17.0837 19.6397 18.2325C19.9131 18.5047 20.0493 18.8219 19.9681 19.204C19.807 19.9645 18.9017 20.2579 18.321 19.7359C18.0488 19.4918 17.7985 19.2227 17.54 18.9642C16.5922 18.0171 15.6451 17.0693 14.6973 16.1222C14.6579 16.0847 14.6167 16.0497 14.5655 16.0023ZM15.9529 8.9864C15.9629 5.12662 12.8467 2.00609 8.97818 2.00047C5.12029 1.99485 2.00663 5.09041 1.98977 8.94769C1.97291 12.8168 5.08283 15.9461 8.9632 15.9642C12.8055 15.9823 15.9429 12.8499 15.9529 8.9864Z" fill="#3D3D3D"/>
</svg>
