<svg xmlns="http://www.w3.org/2000/svg">
<!-- Social Media -->

<!-- icon facebook -->
<symbol viewBox="0 0 8 16" id="facebook">
<path d="M2 5.33333H0V8H2V16H5.33333V8H7.73333L8 5.33333H5.33333V4.2C5.33333 3.6 5.46667 3.33333 6.06667 3.33333H8V0H5.46667C3.06667 0 2 1.06667 2 3.06667V5.33333Z"/>
</symbol>
<!-- icon instagram -->
<symbol viewBox="0 0 16 16" id="instagram">
<path d="M8 1.46667C10.1333 1.46667 10.4 1.46667 11.2667 1.53333C13.4667 1.6 14.4667 2.66667 14.5333 4.8C14.6 5.66667 14.6 5.86667 14.6 8C14.6 10.1333 14.6 10.4 14.5333 11.2C14.4667 13.3333 13.4 14.4 11.2667 14.4667C10.4 14.5333 10.2 14.5333 8 14.5333C5.86667 14.5333 5.6 14.5333 4.8 14.4667C2.6 14.4 1.6 13.3333 1.53333 11.2C1.46667 10.3333 1.46667 10.1333 1.46667 8C1.46667 5.86667 1.46667 5.6 1.53333 4.8C1.6 2.66667 2.66667 1.6 4.8 1.53333C5.6 1.46667 5.86667 1.46667 8 1.46667ZM8 0C5.8 0 5.53333 0 4.73333 0.0666667C1.8 0.2 0.2 1.8 0.0666667 4.73333C0 5.53333 0 5.8 0 8C0 10.2 0 10.4667 0.0666667 11.2667C0.2 14.2 1.8 15.8 4.73333 15.9333C5.53333 16 5.8 16 8 16C10.2 16 10.4667 16 11.2667 15.9333C14.2 15.8 15.8 14.2 15.9333 11.2667C16 10.4667 16 10.2 16 8C16 5.8 16 5.53333 15.9333 4.73333C15.8 1.8 14.2 0.2 11.2667 0.0666667C10.4667 0 10.2 0 8 0ZM8 3.86667C5.73333 3.86667 3.86667 5.73333 3.86667 8C3.86667 10.2667 5.73333 12.1333 8 12.1333C10.2667 12.1333 12.1333 10.2667 12.1333 8C12.1333 5.73333 10.2667 3.86667 8 3.86667ZM8 10.6667C6.53333 10.6667 5.33333 9.46667 5.33333 8C5.33333 6.53333 6.53333 5.33333 8 5.33333C9.46667 5.33333 10.6667 6.53333 10.6667 8C10.6667 9.46667 9.46667 10.6667 8 10.6667ZM12.2667 2.8C11.7333 2.8 11.3333 3.2 11.3333 3.73333C11.3333 4.26667 11.7333 4.66667 12.2667 4.66667C12.8 4.66667 13.2 4.26667 13.2 3.73333C13.2 3.2 12.8 2.8 12.2667 2.8Z"/>
</symbol>
<!-- icon linkedin -->
<symbol viewBox="0 0 16 16" id="linkedin">
<path d="M3.33333 1.66667C3.33333 2.6 2.6 3.33333 1.66667 3.33333C0.733333 3.33333 0 2.6 0 1.66667C0 0.733333 0.733333 0 1.66667 0C2.6 0 3.33333 0.733333 3.33333 1.66667ZM3.33333 4.66667H0V15.3333H3.33333V4.66667ZM8.66667 4.66667H5.33333V15.3333H8.66667V9.73333C8.66667 6.6 12.6667 6.33333 12.6667 9.73333V15.3333H16V8.6C16 3.33333 10.0667 3.53333 8.66667 6.13333V4.66667Z"/>
</symbol>
<!-- icon twitter -->
<symbol viewBox="0 0 16 13" id="twitter">
<path d="M5.03186 13.0036C11.0699 13.0036 14.3718 8.00118 14.3718 3.66357C14.3718 3.52144 14.3689 3.38005 14.3624 3.2392C15.0033 2.77588 15.5605 2.19756 16 1.53953C15.4118 1.80085 14.7789 1.97682 14.1149 2.05616C14.7926 1.64981 15.313 1.0067 15.5585 0.24021C14.9241 0.616357 14.2217 0.889688 13.4742 1.03709C12.8749 0.399076 12.0218 0 11.0779 0C9.26483 0 7.79464 1.4702 7.79464 3.28233C7.79464 3.54001 7.82357 3.79041 7.87962 4.0308C5.1516 3.89377 2.73239 2.58735 1.11352 0.601253C0.831273 1.08622 0.668767 1.64999 0.668767 2.25106C0.668767 3.38988 1.24837 4.3953 2.12968 4.98363C1.59121 4.96707 1.08531 4.81894 0.642926 4.57291C0.642198 4.58656 0.642198 4.60039 0.642198 4.61476C0.642198 6.2047 1.77392 7.53204 3.27578 7.83285C3.00008 7.90801 2.71001 7.94841 2.41047 7.94841C2.19901 7.94841 1.99338 7.9273 1.79339 7.88927C2.21121 9.19332 3.42318 10.1425 4.86007 10.1693C3.73636 11.0499 2.32094 11.5745 0.783049 11.5745C0.518272 11.5745 0.256952 11.5594 0 11.529C1.45273 12.46 3.17769 13.0036 5.03186 13.0036Z"/>
</symbol>
<!-- icon union -->
<symbol viewBox="0 0 19 14" id="union">
<path d="M15.1653 4.42995L15.168 4.43062C15.168 4.43062 15.1676 4.4305 15.1667 4.4303C15.1663 4.4302 15.1658 4.43008 15.1653 4.42995ZM4.32444 4.35686C6.91762 4.19575 11.7483 4.19575 14.3415 4.35686L14.3422 4.3644C14.4047 4.99716 14.4299 5.84143 14.4299 7.01915C14.4299 8.18238 14.4053 9.02689 14.3441 9.66498C11.6962 9.77026 6.97129 9.77027 4.32282 9.66502C4.261 9.03324 4.23602 8.19137 4.23602 7.01915C4.23602 5.84143 4.26123 4.99716 4.32369 4.3644L4.32444 4.35686ZM15.2422 9.61106C15.2422 9.61109 15.2405 9.61148 15.237 9.61215L15.2422 9.61106ZM3.49794 9.60768L3.50063 9.60836C3.49881 9.60793 3.49792 9.60769 3.49794 9.60768ZM0 7.01915C0 11.8412 0.388873 13.63 3.42208 13.8633C6.22196 14.0189 12.4439 14.0189 15.2438 13.8633C18.277 13.7078 18.6659 11.8412 18.6659 7.01915C18.6659 2.19713 18.277 0.408316 15.2438 0.174993C12.4439 -0.0583309 6.22196 -0.0583309 3.42208 0.174993C0.388873 0.408316 0 2.19713 0 7.01915ZM3.49794 4.43062C3.49792 4.43061 3.49884 4.43037 3.50073 4.42992L3.49794 4.43062ZM9.78228 8.73886C8.50388 9.37806 6.99973 8.44845 6.99973 7.01915C6.99973 5.58986 8.50388 4.66025 9.78228 5.29945C11.1994 6.008 11.1994 8.0303 9.78228 8.73886Z"/>
</symbol>
<!-- Social Media End -->

<!-- icon email -->
<symbol viewBox="0 0 18 18" id="email-icon">
<path d="M13.621 6.51587C13.621 6.51587 10.946 9.7264 8.98943 9.7264C7.03371 9.7264 4.32861 6.51587 4.32861 6.51587"  stroke-linecap="round" stroke-linejoin="round"/>
<path d="M1.04346 8.97404C1.04346 3.27562 3.02758 1.37671 8.97997 1.37671C14.9323 1.37671 16.9165 3.27562 16.9165 8.97404C16.9165 14.6716 14.9323 16.5714 8.97997 16.5714C3.02758 16.5714 1.04346 14.6716 1.04346 8.97404Z" stroke-linecap="round" stroke-linejoin="round"/>
</symbol>
<!-- icon phone -->
<symbol viewBox="0 0 18 18" id="phone-icon">
<path d="M11.9604 1.29175C15.0446 1.63425 17.4813 4.06758 17.8279 7.15175" stroke-linecap="round" stroke-linejoin="round"/>
<path d="M11.9604 4.24414C13.4363 4.53081 14.5896 5.68497 14.8771 7.16081" stroke-linecap="round" stroke-linejoin="round"/>
<path d="M6.41691 12.5825C0.66859 6.83352 1.48599 4.20096 2.09196 3.35263C2.16981 3.21552 4.08857 0.343233 6.14533 2.02839C11.2505 6.23288 4.78742 5.63843 9.07434 9.92607C13.3621 14.2128 12.7668 7.74996 16.9714 12.8541C18.6566 14.9117 15.7842 16.8303 15.648 16.9073C14.7997 17.5141 12.1661 18.3315 6.41691 12.5825Z" stroke-linecap="round" stroke-linejoin="round"/>
</symbol>
<!-- icon location -->
<symbol viewBox="0 0 18 18" id="location-icon">
<path d="M9.09196 7.92531C9.09196 6.77425 8.15926 5.84155 7.0082 5.84155C5.85799 5.84155 4.92529 6.77425 4.92529 7.92531C4.92529 9.07552 5.85799 10.0082 7.0082 10.0082C8.15926 10.0082 9.09196 9.07552 9.09196 7.92531Z" stroke-linecap="round" stroke-linejoin="round"/>
<path d="M6.99959 16.5C4.58457 16.5 0.75 12.2989 0.75 7.8322C0.75 4.33539 3.54758 1.5 6.99959 1.5C10.4516 1.5 13.25 4.33539 13.25 7.8322C13.25 12.2989 9.41543 16.5 6.99959 16.5Z" stroke-linecap="round" stroke-linejoin="round"/>
</symbol>
<!-- icon login -->
<symbol viewBox="0 0 18 18" id="login-icon">
<path d="M17.1601 9.1006H7.12598" stroke="white" stroke-width="1.5" stroke-linecap="round" stroke-linejoin="round"/>
<path d="M14.7212 6.67059L17.1612 9.10059L14.7212 11.5306" stroke="white" stroke-width="1.5" stroke-linecap="round" stroke-linejoin="round"/>
<path d="M12.6343 5.35826C12.3593 2.37493 11.2426 1.2916 6.80094 1.2916C0.883444 1.2916 0.883444 3.2166 0.883444 8.99993C0.883444 14.7833 0.883444 16.7083 6.80094 16.7083C11.2426 16.7083 12.3593 15.6249 12.6343 12.6416" stroke="white" stroke-width="1.5" stroke-linecap="round" stroke-linejoin="round"/>
</symbol>
<!-- icon arrow -->
<symbol viewBox="0 0 18 18" id="arrow-icon">
<path d="M1.375 0.75C1.375 0.75 6.625 3.858 6.625 6C6.625 8.14125 1.375 11.25 1.375 11.25" stroke="#3D3D3D" stroke-width="1.5" stroke-linecap="round" stroke-linejoin="round"/>
</symbol>
<!-- icon arrow-btn -->
<symbol viewBox="0 0 18 18" id="arrow-btn-icon">
<path d="M12.8125 5.79419L1.5625 5.79419" stroke="white" stroke-width="1.5" stroke-linecap="round" stroke-linejoin="round"/>
<path d="M8.2749 1.27587C8.2749 1.27587 12.8124 3.72162 12.8124 5.79312C12.8124 7.86612 8.2749 10.3126 8.2749 10.3126" stroke="white" stroke-width="1.5" stroke-linecap="round" stroke-linejoin="round"/>
</symbol>
<!-- icon loop -->
<symbol viewBox="0 0 18 18" id="loop-icon">
<path d="M14.5655 16.0023C10.5703 19.1859 4.98543 18.3049 2.02723 14.6537C-0.827947 11.1286 -0.649381 6.04318 2.44805 2.82462C5.6485 -0.500702 10.6802 -0.94462 14.3277 1.78319C15.6344 2.76031 16.6103 4.00341 17.2459 5.50811C17.8852 7.02155 18.0794 8.59617 17.8578 10.2201C17.6367 11.8366 16.9918 13.277 15.9422 14.6212C16.0272 14.6768 16.1177 14.7167 16.1826 14.7817C17.3364 15.9305 18.4859 17.0837 19.6397 18.2325C19.9131 18.5047 20.0493 18.8219 19.9681 19.204C19.807 19.9645 18.9017 20.2579 18.321 19.7359C18.0488 19.4918 17.7985 19.2227 17.54 18.9642C16.5922 18.0171 15.6451 17.0693 14.6973 16.1222C14.6579 16.0847 14.6167 16.0497 14.5655 16.0023ZM15.9529 8.9864C15.9629 5.12662 12.8467 2.00609 8.97818 2.00047C5.12029 1.99485 2.00663 5.09041 1.98977 8.94769C1.97291 12.8168 5.08283 15.9461 8.9632 15.9642C12.8055 15.9823 15.9429 12.8499 15.9529 8.9864Z"/>
</symbol>
<!-- icon heart -->
<symbol viewBox="0 0 20 18" id="heart-icon">
<path d="M10 17.8873C9.71527 17.8873 9.44077 17.7842 9.22684 17.5968C8.41888 16.8903 7.63992 16.2264 6.95267 15.6408L6.94916 15.6377C4.93423 13.9207 3.19427 12.4378 1.98364 10.9771C0.630341 9.34409 0 7.79578 0 6.10434C0 4.46097 0.563507 2.94485 1.58661 1.83508C2.62192 0.712189 4.04251 0.09375 5.58716 0.09375C6.74164 0.09375 7.79892 0.45874 8.72955 1.1785C9.19922 1.54181 9.62494 1.98645 10 2.5051C10.3752 1.98645 10.8008 1.54181 11.2706 1.1785C12.2012 0.45874 13.2585 0.09375 14.413 0.09375C15.9575 0.09375 17.3782 0.712189 18.4135 1.83508C19.4366 2.94485 20 4.46097 20 6.10434C20 7.79578 19.3698 9.34409 18.0165 10.9769C16.8059 12.4378 15.0661 13.9205 13.0515 15.6374C12.363 16.224 11.5828 16.8889 10.773 17.5971C10.5592 17.7842 10.2846 17.8873 10 17.8873ZM5.58716 1.26532C4.37363 1.26532 3.25882 1.74963 2.44781 2.62915C1.62476 3.52194 1.17142 4.75607 1.17142 6.10434C1.17142 7.52692 1.70013 8.79919 2.88559 10.2296C4.03137 11.6122 5.73563 13.0645 7.70889 14.7462L7.71255 14.7492C8.4024 15.3371 9.18442 16.0036 9.99832 16.7153C10.8171 16.0023 11.6003 15.3347 12.2916 14.7458C14.2647 13.0642 15.9688 11.6122 17.1146 10.2296C18.2999 8.79919 18.8286 7.52692 18.8286 6.10434C18.8286 4.75607 18.3752 3.52194 17.5522 2.62915C16.7413 1.74963 15.6264 1.26532 14.413 1.26532C13.524 1.26532 12.7078 1.54791 11.9872 2.10516C11.3449 2.60199 10.8975 3.23004 10.6352 3.66949C10.5003 3.89548 10.2629 4.03036 10 4.03036C9.73709 4.03036 9.49966 3.89548 9.36478 3.66949C9.10263 3.23004 8.65524 2.60199 8.01285 2.10516C7.29218 1.54791 6.47598 1.26532 5.58716 1.26532Z"/>
</symbol>

<!-- icon shopping -->
<symbol viewBox="0 0 18 18" id="shopping-icon">
<g clip-path="url(#clip0_189_218)">
<path d="M14.294 16.8745H8.24077C5.65655 16.8745 3.55412 14.7721 3.55412 12.1879V7.38404C3.55412 4.98174 2.35676 2.75812 0.351225 1.43578C-0.00894369 1.19832 -0.108379 0.71388 0.129078 0.353711C0.366535 -0.00649689 0.850939 -0.105971 1.21119 0.131564C2.35606 0.886427 3.28487 1.88203 3.94905 3.0283C4.09258 3.1891 5.24995 4.41583 7.14726 4.41583H16.142C18.596 4.36994 20.5168 6.83265 19.8752 9.20136L18.8397 13.3283C18.3159 15.4163 16.4466 16.8745 14.294 16.8745ZM4.91926 5.53676C5.04912 6.13669 5.11634 6.75528 5.11634 7.38404V12.1879C5.11634 13.9107 6.51796 15.3123 8.24077 15.3123H14.294C15.7291 15.3123 16.9752 14.3401 17.3245 12.9482L18.3599 8.8212C18.7412 7.41372 17.5997 5.95082 16.142 5.97804H7.14722C6.28913 5.97804 5.54224 5.79304 4.91926 5.53676ZM7.85021 19.0226C7.85021 18.4833 7.41307 18.0462 6.87383 18.0462C5.57828 18.0978 5.57942 19.9479 6.87383 19.9989C7.41307 19.9989 7.85021 19.5618 7.85021 19.0226ZM15.6222 19.0226C15.6222 18.4833 15.1851 18.0462 14.6459 18.0462C13.3503 18.0978 13.3514 19.9479 14.6459 19.9989C15.1851 19.9989 15.6222 19.5618 15.6222 19.0226ZM16.9231 8.32137C16.9231 7.88996 16.5734 7.54026 16.142 7.54026H7.45966C6.42329 7.5815 6.42407 9.06158 7.45966 9.10248H16.142C16.5734 9.10248 16.9231 8.75277 16.9231 8.32137Z"/>
</g>
<defs>
<clipPath id="clip0_189_218">
<rect width="20" height="20" />
</clipPath>
</defs>
</symbol>

<symbol viewBox="0 0 20 20" id="shop-icon">
<path d="M14.294 16.8745H8.24077C5.65655 16.8745 3.55412 14.7721 3.55412 12.1879V7.38404C3.55412 4.98174 2.35676 2.75812 0.351225 1.43578C-0.00894369 1.19832 -0.108379 0.71388 0.129078 0.353711C0.366535 -0.00649689 0.850939 -0.105971 1.21119 0.131564C2.35606 0.886427 3.28487 1.88203 3.94905 3.0283C4.09258 3.1891 5.24995 4.41583 7.14726 4.41583H16.142C18.596 4.36994 20.5168 6.83265 19.8752 9.20136L18.8397 13.3283C18.3159 15.4163 16.4466 16.8745 14.294 16.8745ZM4.91926 5.53676C5.04912 6.13669 5.11634 6.75528 5.11634 7.38404V12.1879C5.11634 13.9107 6.51796 15.3123 8.24077 15.3123H14.294C15.7291 15.3123 16.9752 14.3401 17.3245 12.9482L18.3599 8.8212C18.7412 7.41372 17.5997 5.95082 16.142 5.97804H7.14722C6.28913 5.97804 5.54224 5.79304 4.91926 5.53676ZM7.85021 19.0226C7.85021 18.4833 7.41307 18.0462 6.87383 18.0462C5.57828 18.0978 5.57942 19.9479 6.87383 19.9989C7.41307 19.9989 7.85021 19.5618 7.85021 19.0226ZM15.6222 19.0226C15.6222 18.4833 15.1851 18.0462 14.6459 18.0462C13.3503 18.0978 13.3514 19.9479 14.6459 19.9989C15.1851 19.9989 15.6222 19.5618 15.6222 19.0226ZM16.9231 8.32137C16.9231 7.88996 16.5734 7.54026 16.142 7.54026H7.45966C6.42329 7.5815 6.42407 9.06158 7.45966 9.10248H16.142C16.5734 9.10248 16.9231 8.75277 16.9231 8.32137Z"/>
</symbol>
<!-- header arrow icon -->
<svg viewBox="0 0 7 10" id="header-arrow-icon">
<path d="M6.79132 9.0542C7.02458 9.2699 7.02539 9.62039 6.79313 9.83703C6.58198 10.034 6.2509 10.0525 6.0172 9.89217L5.95022 9.83871L1.14228 5.39263C0.929586 5.19594 0.910237 4.88735 1.08424 4.67031L1.14224 4.60814L5.95019 0.16132C6.18343 -0.0544048 6.56082 -0.0536792 6.7931 0.162941C7.00426 0.359869 7.02281 0.667429 6.8492 0.883799L6.79135 0.945772L2.40775 5.00059L6.79132 9.0542Z"/>
</svg>

</svg>