<svg xmlns="http://www.w3.org/2000/svg">


<!-- Service-icon-1 -->
<symbol width="70" height="70" viewBox="0 0 70 70" fill="none" id="service-1">
<path d="M67.3158 48.3385L48.8463 29.7337L50.8961 19.6373C51.4251 19.8438 51.9874 19.9517 52.5551 19.9558H52.5691C55.1772 19.9866 57.3164 17.8974 57.3474 15.2893C57.3783 12.6812 55.2889 10.542 52.6808 10.5111C50.0728 10.4803 47.9335 12.5695 47.9026 15.1776C47.896 15.7357 47.9884 16.2905 48.1755 16.8163L37.3255 18.1405L19.6271 0.35C19.41 0.128479 19.1137 0.00247917 18.8035 0C18.4972 0.00160417 18.2039 0.123521 17.9868 0.3395L14.6781 3.6295C14.2227 4.08508 14.2227 4.82358 14.6781 5.27917L16.4585 7.08517C9.56113 19.7681 11.8014 35.4741 21.9698 45.7228C22.0631 45.8121 22.1713 45.8843 22.2895 45.9363C22.216 46.3311 22.1776 46.7317 22.1751 47.1333V60.6667H8.17513C4.95513 60.6705 2.34559 63.28 2.3418 66.5V68.8333C2.3418 69.4776 2.86417 70 3.50846 70H57.1751C57.8194 70 58.3418 69.4776 58.3418 68.8333V66.5C58.338 63.28 55.7285 60.6705 52.5085 60.6667H38.5085V54.6688C40.7017 55.1288 42.9363 55.3633 45.1771 55.3688C50.5543 55.363 55.8459 54.0225 60.5771 51.4675L62.3668 53.2677C62.5839 53.4892 62.8803 53.6152 63.1905 53.6177C63.4967 53.6161 63.79 53.4941 64.0071 53.2782L67.3158 49.9882C67.7712 49.5326 67.7712 48.7941 67.3158 48.3385ZM50.9241 13.6348C51.8378 12.726 53.3152 12.7301 54.2239 13.6437C55.1327 14.5574 55.1287 16.0348 54.215 16.9435C53.7777 17.3785 53.1859 17.6226 52.569 17.6225H52.562C51.2734 17.6158 50.234 16.5658 50.2408 15.2771C50.244 14.6602 50.4913 14.0699 50.9287 13.6348H50.9241ZM48.1778 21.301L46.8688 27.7445L44.2975 25.158L48.1778 21.301ZM46.8525 19.3282L42.6525 23.5037L39.4033 20.237L46.8525 19.3282ZM52.5085 63C54.4415 63 56.0085 64.567 56.0085 66.5V67.6667H4.67513V66.5C4.67513 64.567 6.24211 63 8.17513 63H52.5085ZM36.1751 58.3333V60.6667H24.5085V58.3333H36.1751ZM24.5085 56V47.1333C24.5085 44.303 27.1253 42 30.3418 42C33.5583 42 36.1751 44.303 36.1751 47.1333V56H24.5085ZM38.5085 52.29V47.1333C38.5085 43.0162 34.8451 39.6667 30.3418 39.6667C27.4301 39.622 24.7074 41.1041 23.1645 43.5738C14.2882 34.2249 12.2894 20.2875 18.18 8.82073L58.8715 49.7455C52.5881 52.9419 45.3852 53.8418 38.5085 52.29ZM63.2033 50.7943L61.5595 49.1412L18.7918 6.11567L17.141 4.46133L18.7918 2.81633L36.1495 20.272C36.1576 20.272 36.1623 20.2872 36.1705 20.293L64.8588 49.1493L63.2033 50.7943Z" fill="#212121"/>
<path d="M30.3527 44.3335H30.3422C28.4091 44.3306 26.8398 45.8952 26.8369 47.8283C26.834 49.7613 28.3986 51.3306 30.3317 51.3335H30.3422C32.2752 51.3364 33.8445 49.7718 33.8474 47.8388C33.8503 45.9057 32.2857 44.3364 30.3527 44.3335ZM31.1693 48.6607C30.9497 48.8791 30.6521 49.0013 30.3422 49.0002C29.6979 48.9968 29.1783 48.4718 29.1816 47.8275C29.1832 47.5191 29.3069 47.2239 29.5255 47.0063C29.7426 46.7904 30.0359 46.6684 30.3422 46.6668C30.9865 46.6702 31.5061 47.1952 31.5027 47.8395C31.5011 48.1479 31.3774 48.4431 31.1588 48.6607H31.1693Z" fill="#2196F3"/>
</symbol>

<!-- Service-icon-2 -->
<symbol width="70" height="70" viewBox="0 0 70 70" fill="none" id="service-2">
<g clip-path="url(#clip0_307_191)">
<path d="M68.4614 33.4715C68.4576 14.9819 53.4656 -0.00373771 34.9754 6.99302e-07C16.4858 0.00373911 1.50017 14.9963 1.50391 33.4859C1.50711 48.0502 10.9252 60.9413 24.7995 65.3713C24.9319 65.413 25.0697 65.4343 25.2081 65.4338C25.4719 65.4333 25.7304 65.3628 25.9573 65.2287C26.2527 65.0541 26.4732 64.7764 26.5768 64.449L35.0315 37.6521C37.3429 37.6404 39.2068 35.7568 39.1945 33.4459C39.1827 31.1345 37.2997 29.2706 34.9883 29.2824C34.3666 29.285 33.753 29.4282 33.1944 29.7011L22.0251 18.5302C21.4707 17.9951 20.5879 18.0106 20.0528 18.5644C19.5305 19.1054 19.5305 19.962 20.0528 20.503L31.2162 31.6792C30.3596 33.4277 30.8493 35.5383 32.3895 36.7303L24.3338 62.2647C8.41354 56.4002 0.261689 38.7405 6.12618 22.8203C11.9907 6.90002 29.6503 -1.25183 45.5706 4.61266C61.4909 10.4771 69.6427 28.1374 63.7782 44.0571C60.913 51.8351 55.0261 58.1252 47.4548 61.4989L46.5842 57.3989C46.4251 56.6454 45.6844 56.1636 44.9308 56.3233C44.6931 56.3741 44.4726 56.4857 44.291 56.6475L35.8978 64.1409C35.322 64.653 35.2708 65.5347 35.7835 66.1105C35.9501 66.2974 36.1637 66.4362 36.403 66.5126L47.1188 69.9327C47.8521 70.1682 48.6377 69.765 48.8732 69.0312C48.948 68.7994 48.9603 68.5527 48.9101 68.3145L48.0545 64.2915C60.4452 59.0678 68.4902 46.918 68.4614 33.4715ZM34.9829 32.0766C35.753 32.0766 36.3779 32.7014 36.3779 33.4715C36.3779 34.2422 35.753 34.8665 34.9829 34.8665C34.2123 34.8665 33.588 34.2422 33.588 33.4715C33.588 32.7014 34.2123 32.0766 34.9829 32.0766ZM39.5774 64.5916L44.3551 60.3298L45.6737 66.543L39.5774 64.5916Z" fill="#212121"/>
<path d="M33.5879 6.96722V9.75714C33.5879 10.5278 34.2122 11.1521 34.9828 11.1521C35.753 11.1521 36.3778 10.5278 36.3778 9.75714V6.96722C36.3778 6.19711 35.753 5.57227 34.9828 5.57227C34.2122 5.57227 33.5879 6.19711 33.5879 6.96722Z" fill="#2196F3"/>
<path d="M8.47894 32.0767C7.7083 32.0767 7.08398 32.7015 7.08398 33.4716C7.08398 34.2423 7.7083 34.8666 8.47894 34.8666H11.2689C12.0395 34.8666 12.6638 34.2423 12.6638 33.4716C12.6638 32.7015 12.0395 32.0767 11.2689 32.0767H8.47894Z" fill="#2196F3"/>
<path d="M61.4866 34.8666C62.2573 34.8666 62.8816 34.2423 62.8816 33.4716C62.8816 32.7015 62.2573 32.0767 61.4866 32.0767H58.6967C57.9266 32.0767 57.3018 32.7015 57.3018 33.4716C57.3018 34.2423 57.9266 34.8666 58.6967 34.8666H61.4866Z" fill="#2196F3"/>
</g>
<defs>
<clipPath id="clip0_307_191">
<rect width="70" height="70" fill="white"/>
</clipPath>
</defs>
</symbol>


<!-- Service-icon-3 -->
<symbol width="70" height="70" viewBox="0 0 70 70" fill="none" id="service-3">
<g clip-path="url(#clip0_307_201)">
<path d="M32.6494 32.7349H34.9815V43.2294H32.6494V32.7349Z" fill="#2196F3"/>
<path d="M41.9785 37.3994H44.3106V43.2297H41.9785V37.3994Z" fill="#2196F3"/>
<path d="M23.3213 40.8975H25.6534V43.2296H23.3213V40.8975Z" fill="#2196F3"/>
<path d="M16.3252 39.7314H18.6573V43.2296H16.3252V39.7314Z" fill="#2196F3"/>
<path d="M3.49817 61.8866H59.4689C61.4007 61.8866 62.967 60.3203 62.967 58.3884V53.7242C62.967 51.7923 61.4007 50.226 59.4689 50.226H58.3028V21.1469L64.9262 14.8725C66.4635 15.6304 68.3242 15.1703 69.3302 13.7816C70.3369 12.3935 70.1957 10.4822 68.9966 9.2569C67.7975 8.03163 65.8901 7.84886 64.4798 8.82418C63.0701 9.80007 62.569 11.6499 63.2933 13.2037L58.3028 17.9346V15.2443C58.3028 13.3125 56.7365 11.7462 54.8046 11.7462H8.16239C6.23054 11.7462 4.66422 13.3125 4.66422 15.2443V50.226H3.49817C1.56632 50.226 0 51.7923 0 53.7242V58.3884C0 60.3203 1.56632 61.8866 3.49817 61.8866ZM66.4652 10.5801C67.1091 10.5801 67.6312 11.1022 67.6312 11.7462C67.6312 12.3901 67.1091 12.9122 66.4652 12.9122C65.8212 12.9122 65.2991 12.3901 65.2991 11.7462C65.2991 11.1022 65.8212 10.5801 66.4652 10.5801ZM6.99634 15.2443C6.99634 14.6004 7.51844 14.0783 8.16239 14.0783H54.8046C55.4486 14.0783 55.9707 14.6004 55.9707 15.2443V20.1414L53.6386 22.3574V17.5764C53.6386 16.9325 53.1165 16.4104 52.4725 16.4104H10.4945C9.85055 16.4104 9.32845 16.9325 9.32845 17.5764V46.7278C9.32845 47.3718 9.85055 47.8939 10.4945 47.8939H52.4725C53.1165 47.8939 53.6386 47.3718 53.6386 46.7278V25.5652L55.9707 23.3555V50.226H6.99634V15.2443ZM17.4908 30.4031C15.9131 30.3985 14.5279 31.4495 14.1083 32.9703C13.6886 34.4911 14.3383 36.1041 15.6951 36.9092C17.0513 37.7143 18.7793 37.5121 19.9129 36.415L23.9662 38.4487C24.4371 38.6844 25.0081 38.574 25.3583 38.1806L33.9745 28.4871L42.4443 34.8338C42.8987 35.1743 43.5329 35.1379 43.9452 34.7479L51.3065 27.7749V45.5618H11.6606V18.7425H51.3065V24.562L43.0564 32.3748L34.5154 25.9717C34.0303 25.6084 33.3476 25.6768 32.9445 26.1294L24.2099 35.9572L20.9446 34.3243C20.9685 34.1842 20.9833 34.043 20.989 33.9012C20.989 31.9694 19.4227 30.4031 17.4908 30.4031ZM18.6569 33.9012C18.6569 34.5452 18.1348 35.0673 17.4908 35.0673C16.8469 35.0673 16.3248 34.5452 16.3248 33.9012C16.3248 33.2573 16.8469 32.7352 17.4908 32.7352C18.1348 32.7352 18.6569 33.2573 18.6569 33.9012ZM25.6532 52.5581H37.3138V53.7242C37.3138 54.3681 36.7917 54.8902 36.1477 54.8902H26.8193C26.1753 54.8902 25.6532 54.3681 25.6532 53.7242V52.5581ZM2.33211 53.7242C2.33211 53.0802 2.85422 52.5581 3.49817 52.5581H23.3211V53.7242C23.3211 55.656 24.8874 57.2223 26.8193 57.2223H36.1477C38.0796 57.2223 39.6459 55.656 39.6459 53.7242V52.5581H59.4689C60.1128 52.5581 60.6349 53.0802 60.6349 53.7242V58.3884C60.6349 59.0324 60.1128 59.5545 59.4689 59.5545H3.49817C2.85422 59.5545 2.33211 59.0324 2.33211 58.3884V53.7242Z" fill="#212121"/>
</g>
<defs>
<clipPath id="clip0_307_201">
<rect width="70" height="70" fill="white"/>
</clipPath>
</defs>
</symbol>

<!-- Service-icon-4 -->
<symbol width="70" height="70" viewBox="0 0 70 70" fill="none" id="service-4">
<path d="M69.943 9.89619C69.8053 9.47495 69.4413 9.16706 69.0015 9.1028L64.8225 8.49494L62.9523 4.7079C62.5603 3.90987 61.2524 3.90987 60.8605 4.7079L58.9903 8.49494L54.8111 9.10293C54.3713 9.16706 54.0073 9.47399 53.8684 9.89632C53.732 10.3187 53.845 10.783 54.1636 11.0922L57.1888 14.0405L56.4749 18.2032C56.4002 18.6407 56.5799 19.0829 56.9381 19.3443C57.3009 19.608 57.7745 19.6406 58.1677 19.4329L61.9058 17.467L65.6439 19.4329C65.8143 19.5227 66.0021 19.567 66.1876 19.567C66.4291 19.567 66.6707 19.4924 66.8737 19.3441C67.233 19.0829 67.4127 18.6406 67.3369 18.2031L66.623 14.0403L69.6482 11.0921C69.9651 10.7817 70.0795 10.3185 69.943 9.89619ZM64.5553 12.7989C64.2812 13.0661 64.1551 13.4534 64.2205 13.8314L64.6382 16.2686L62.4496 15.1182C62.2792 15.0284 62.0926 14.9841 61.9058 14.9841C61.7192 14.9841 61.5337 15.0284 61.3621 15.1182L59.1733 16.2686L59.591 13.8314C59.6564 13.4534 59.5303 13.0673 59.2562 12.7989L57.484 11.0723L59.9317 10.7164C60.3121 10.6616 60.6399 10.4224 60.8103 10.0782L61.9046 7.86151L62.9989 10.0782C63.1693 10.4223 63.4971 10.6616 63.8775 10.7164L66.3252 11.0723L64.5553 12.7989Z" fill="#2196F3"/>
<path d="M57.1674 44.8921H54.834V47.2255H57.1674V44.8921Z" fill="#2196F3"/>
<path d="M57.1674 49.5591H54.834V51.8925H57.1674V49.5591Z" fill="#2196F3"/>
<path d="M59.5004 47.2256H57.167V49.559H59.5004V47.2256Z" fill="#2196F3"/>
<path d="M54.8334 47.2256H52.5V49.559H54.8334V47.2256Z" fill="#2196F3"/>
<path d="M49.0004 57.7261H46.667V60.0595H49.0004V57.7261Z" fill="#2196F3"/>
<path d="M49.0004 62.3926H46.667V64.726H49.0004V62.3926Z" fill="#2196F3"/>
<path d="M51.3334 60.0591H49V62.3925H51.3334V60.0591Z" fill="#2196F3"/>
<path d="M46.6664 60.0591H44.333V62.3925H46.6664V60.0591Z" fill="#2196F3"/>
<path d="M35.0004 53.0591H32.667V55.3925H35.0004V53.0591Z" fill="#2196F3"/>
<path d="M35.0004 57.7261H32.667V60.0595H35.0004V57.7261Z" fill="#2196F3"/>
<path d="M37.3334 55.3926H35V57.726H37.3334V55.3926Z" fill="#2196F3"/>
<path d="M32.6664 55.3926H30.333V57.726H32.6664V55.3926Z" fill="#2196F3"/>
<path d="M12.8334 13.3916H10.5V15.725H12.8334V13.3916Z" fill="#2196F3"/>
<path d="M12.8334 18.0586H10.5V20.392H12.8334V18.0586Z" fill="#2196F3"/>
<path d="M15.1664 15.7251H12.833V18.0585H15.1664V15.7251Z" fill="#2196F3"/>
<path d="M10.4994 15.7251H8.16602V18.0585H10.4994V15.7251Z" fill="#2196F3"/>
<path d="M54.0635 30.974C53.4347 30.1258 52.5119 29.5798 51.4642 29.4327C50.4118 29.2834 49.3734 29.5599 48.5334 30.2028L45.7952 32.3015L45.794 32.3028L41.6428 35.4027L38.6724 34.2196C43.9691 31.8431 47.6711 26.5452 47.6711 20.3944C47.6711 12.0316 40.8401 5.22754 32.4436 5.22754C24.047 5.22754 17.2161 12.0316 17.2161 20.3944C17.2161 23.4255 18.1226 26.2441 19.6662 28.616L13.6204 28.5635C13.6168 28.5635 13.6134 28.5635 13.6099 28.5635C13.5911 28.5635 13.5761 28.5728 13.5586 28.574C13.4431 28.5786 13.3298 28.602 13.2191 28.6417C13.1911 28.6522 13.162 28.6581 13.1352 28.6708C13.1212 28.6767 13.1071 28.6778 13.0932 28.6847L6.02075 32.1766C6.01952 32.1766 6.01843 32.1766 6.01843 32.1777L1.8766 34.1694C1.83107 34.1893 1.78445 34.2161 1.73892 34.2464C0.0880191 35.3454 -0.474314 37.5038 0.429958 39.2677C0.911763 40.2058 1.73195 40.8965 2.73999 41.2126C3.12856 41.3339 3.52518 41.3935 3.91949 41.3935C4.55305 41.3935 5.18074 41.2383 5.75578 40.9315L8.79154 39.3168L13.7441 36.7595L16.7122 36.742L4.80844 48.5886C4.80735 48.5898 4.80612 48.5898 4.80489 48.5909L1.87647 51.5076C1.18466 52.1959 0.8043 53.1094 0.8043 54.0836C0.8043 55.0567 1.18466 55.9724 1.87647 56.6621C2.587 57.369 3.52149 57.7237 4.45598 57.7237C5.3917 57.7237 6.32495 57.369 7.03782 56.6621L9.91251 53.799L13.7206 50.9557L15.6912 52.9181L11.8375 56.7553C11.8364 56.7565 11.8352 56.7565 11.834 56.7576L8.90556 59.6743C8.21375 60.3627 7.8334 61.2761 7.8334 62.2504C7.8334 63.2234 8.21375 64.1392 8.90556 64.8288C9.6161 65.5358 10.5518 65.8904 11.4863 65.8904C12.4208 65.8904 13.3565 65.5358 14.0681 64.8288L16.9977 61.9121L21.6842 57.2455C21.6854 57.2442 21.6854 57.2431 21.6865 57.2419L23.8951 55.0544L23.8869 55.0462C23.9008 55.0322 23.9207 55.0274 23.9347 55.0124L35.2353 42.635L42.8281 43.7154C42.8829 43.7236 42.9377 43.727 42.9925 43.727C43.1338 43.727 43.2702 43.6933 43.402 43.6431C43.4406 43.6292 43.4743 43.6104 43.5106 43.5918C43.5526 43.5708 43.5968 43.5591 43.6366 43.5323L50.6659 38.8657C50.6916 38.8482 50.7055 38.8201 50.73 38.8015C50.758 38.7794 50.793 38.7701 50.8186 38.7455L53.5999 36.1403C55.0471 34.7843 55.2466 32.563 54.0635 30.974ZM4.66024 38.8724C4.28111 39.0754 3.85058 39.1161 3.43878 38.9856C3.03039 38.8584 2.69912 38.5795 2.50538 38.2027C2.15305 37.5166 2.35718 36.6813 2.97433 36.2298L5.84793 34.8473L6.53974 36.8691L6.83027 37.7184L4.66024 38.8724ZM12.3102 34.8742L8.92333 36.6243L8.36456 34.9909L7.96328 33.8171L12.3967 31.6283L12.3102 34.8742ZM45.3402 20.3921C45.3402 22.401 44.8607 24.2959 44.03 25.9909L34.8832 21.8364C34.7875 20.5822 34.1366 19.4844 33.1589 18.8006L36.3614 8.16868C41.5626 9.82314 45.3402 14.6754 45.3402 20.3921ZM19.5519 20.3921C19.5519 13.3161 25.3363 7.55849 32.446 7.55849C32.9991 7.55849 33.5403 7.60511 34.0759 7.67279L30.9433 18.0715C30.9014 18.0703 30.8617 18.0587 30.8185 18.0587C28.5597 18.0587 26.7222 19.8903 26.7222 22.1421C26.7222 24.3938 28.5597 26.2255 30.8185 26.2255C32.3375 26.2255 33.65 25.3868 34.3582 24.1593L42.8073 27.9977C40.4564 31.1617 36.6938 33.2256 32.4459 33.2256C25.3363 33.2256 19.5519 27.4681 19.5519 20.3921ZM32.5814 22.1421C32.5814 23.1069 31.7903 23.8921 30.8185 23.8921C29.8467 23.8921 29.0556 23.1069 29.0556 22.1421C29.0556 21.1773 29.8467 20.3921 30.8185 20.3921C31.7903 20.3921 32.5814 21.1773 32.5814 22.1421ZM5.39183 55.0076C4.87503 55.5198 4.03843 55.5187 3.52286 55.0088C3.2743 54.7603 3.13785 54.4326 3.13785 54.0836C3.13785 53.736 3.2743 53.4081 3.52286 53.162L5.6274 51.0654L7.48941 52.9193L5.39183 55.0076ZM12.4222 63.1745C11.9054 63.6866 11.0677 63.6879 10.552 63.1757C10.3034 62.9272 10.1669 62.5994 10.1669 62.2505C10.1669 61.9028 10.3034 61.575 10.552 61.3289L12.6579 59.2312L13.5388 60.1074L14.5211 61.0851L12.4222 63.1745ZM20.0383 55.5863C20.0371 55.5874 20.036 55.5874 20.0348 55.5887L16.1742 59.4387L15.2933 58.5625L14.311 57.5848L18.168 53.7453C18.168 53.7453 18.168 53.7453 18.168 53.7442C18.1692 53.7429 18.1703 53.7429 18.1715 53.7418C18.259 53.6543 18.3139 53.5493 18.3676 53.4456C18.3828 53.4152 18.4119 53.3895 18.4248 53.3581C18.461 53.2682 18.4667 53.1714 18.4808 53.0768C18.4878 53.0231 18.5112 52.9731 18.5112 52.9181C18.5112 52.8399 18.4831 52.7642 18.4669 52.687C18.4529 52.617 18.4529 52.5458 18.426 52.4783C18.3817 52.3686 18.3058 52.2718 18.2265 52.1772C18.2044 52.1515 18.1962 52.1188 18.1717 52.0944C18.1717 52.0944 18.1717 52.0944 18.1705 52.0944C18.1692 52.0933 18.1692 52.0908 18.1681 52.0897L14.6529 48.5897C14.6156 48.5523 14.5677 48.5372 14.5257 48.5057C14.464 48.4579 14.4045 48.4136 14.3356 48.3797C14.2691 48.347 14.2014 48.3271 14.1314 48.3084C14.0568 48.2874 13.9845 48.2711 13.9063 48.2652C13.835 48.2606 13.7686 48.2675 13.6975 48.2757C13.6193 48.285 13.5459 48.2956 13.47 48.32C13.3964 48.3434 13.3312 48.3795 13.2635 48.4181C13.2203 48.4425 13.1714 48.4507 13.1305 48.4811L9.25133 51.3768L7.28077 49.4145L12.5285 44.1948L22.0674 53.5761L20.0383 55.5863ZM34.9544 40.2374C34.9207 40.2327 34.8891 40.2456 34.8553 40.2433C34.7701 40.2386 34.6885 40.2445 34.6034 40.2584C34.5369 40.2701 34.4739 40.2829 34.4108 40.3051C34.3362 40.3308 34.2685 40.3658 34.1996 40.4077C34.1343 40.4474 34.0748 40.4894 34.0176 40.5419C33.9896 40.5663 33.9558 40.5781 33.9301 40.606L23.6527 51.8622L14.185 42.5508L20.3825 36.3861C20.8387 35.9311 20.841 35.1925 20.386 34.7352C20.1562 34.5054 19.854 34.3922 19.5519 34.3934V34.3923L14.6984 34.4214L14.7591 30.9051L21.5492 30.9635C24.3166 33.7939 28.176 35.5591 32.446 35.5591C33.4027 35.5591 34.3361 35.4599 35.2448 35.2907C35.3323 35.3607 35.4186 35.4319 35.5284 35.4762L40.7995 37.5762L41.1331 39.2352L41.5228 41.1719L34.9544 40.2374ZM43.7944 40.627L43.1096 37.2191L46.2736 34.8566L47.102 35.9556L48.3445 37.6052L43.7944 40.627ZM52.0055 34.4343L50.1726 36.1516L48.1356 33.4473L49.9544 32.0531C50.2938 31.7919 50.7221 31.6856 51.1421 31.7405C51.5644 31.7999 51.9378 32.0205 52.1921 32.3623C52.6658 33.0005 52.5853 33.8907 52.0055 34.4343Z" fill="#212121"/>
<path d="M29.7542 40.5651L25.0664 35.8984C24.6127 35.4447 23.8752 35.4447 23.4202 35.8984L18.7337 40.5651C18.5144 40.7857 18.3906 41.0819 18.3906 41.3923C18.3906 41.7026 18.5131 42.0002 18.7337 42.2195L23.4202 46.8861C23.6477 47.1124 23.9464 47.2256 24.2439 47.2256C24.5414 47.2256 24.84 47.1124 25.0664 46.8861L29.7542 42.2195C29.9735 42.0002 30.0983 41.7026 30.0983 41.3923C30.0983 41.0819 29.9746 40.7844 29.7542 40.5651ZM24.2439 44.4129L21.2105 41.3923L24.2439 38.3717L27.2784 41.3923L24.2439 44.4129Z" fill="#212121"/>
<path d="M37.547 11.0923L36.9834 13.358C37.1386 13.3966 40.7845 14.3462 40.7845 18.0586H43.1179C43.1178 13.6461 39.4743 11.5718 37.547 11.0923Z" fill="#212121"/>
<path d="M43.1176 20.3921H40.7842V22.7255H43.1176V20.3921Z" fill="#212121"/>
</symbol>

<!-- Facebook-icon -->
<symbol width="20" height="20" viewBox="0 0 20 20" id="fb-icon">
<g clip-path="url(#clip0_307_503)">
<path d="M13.3313 3.32083H15.1571V0.140833C14.8421 0.0975 13.7588 0 12.4971 0C9.86458 0 8.06125 1.65583 8.06125 4.69917V7.5H5.15625V11.055H8.06125V20H11.6229V11.0558H14.4104L14.8529 7.50083H11.6221V5.05167C11.6229 4.02417 11.8996 3.32083 13.3313 3.32083Z" />
</g>
<defs>
<clipPath id="clip0_307_503">
<rect width="20" height="20" fill="white"/>
</clipPath>
</defs>
</symbol>

<!-- Instagram-icon -->
<symbol width="20" height="20" viewBox="0 0 20 20" id="inst-icon">
<g clip-path="url(#clip0_307_513)">
<path d="M19.9804 5.88005C19.9336 4.81738 19.7617 4.0868 19.5156 3.45374C19.2616 2.78176 18.8709 2.18014 18.359 1.68002C17.8589 1.1721 17.2533 0.777435 16.5891 0.527447C15.9524 0.281274 15.2256 0.109427 14.163 0.0625732C13.0924 0.0117516 12.7525 0 10.0371 0C7.32173 0 6.98185 0.0117516 5.91521 0.0586052C4.85253 0.105459 4.12195 0.277459 3.48904 0.523479C2.81692 0.777435 2.2153 1.16814 1.71517 1.68002C1.20726 2.18014 0.812743 2.78573 0.562603 3.44992C0.31643 4.0868 0.144583 4.81341 0.0977294 5.87609C0.0469078 6.9467 0.0351562 7.28658 0.0351562 10.002C0.0351562 12.7173 0.0469078 13.0572 0.0937614 14.1239C0.140615 15.1865 0.312615 15.9171 0.558787 16.5502C0.812743 17.2221 1.20726 17.8238 1.71517 18.3239C2.2153 18.8318 2.82088 19.2265 3.48508 19.4765C4.12195 19.7226 4.84856 19.8945 5.91139 19.9413C6.97788 19.9883 7.31791 19.9999 10.0333 19.9999C12.7487 19.9999 13.0885 19.9883 14.1552 19.9413C15.2179 19.8945 15.9484 19.7226 16.5813 19.4765C17.9254 18.9568 18.9881 17.8941 19.5078 16.5502C19.7538 15.9133 19.9258 15.1865 19.9727 14.1239C20.0195 13.0572 20.0313 12.7173 20.0313 10.002C20.0313 7.28658 20.0273 6.9467 19.9804 5.88005ZM18.1794 14.0457C18.1364 15.0225 17.9723 15.5499 17.8356 15.9015C17.4995 16.7728 16.808 17.4643 15.9367 17.8004C15.5851 17.9372 15.0538 18.1012 14.0809 18.1441C13.026 18.1911 12.7096 18.2027 10.0411 18.2027C7.37255 18.2027 7.05221 18.1911 6.00113 18.1441C5.02438 18.1012 4.49693 17.9372 4.1453 17.8004C3.71171 17.6402 3.31704 17.3862 2.9967 17.0541C2.6646 16.7298 2.41065 16.3391 2.2504 15.9055C2.11365 15.5539 1.94959 15.0225 1.90671 14.0497C1.8597 12.9948 1.8481 12.6783 1.8481 10.0097C1.8481 7.34122 1.8597 7.02087 1.90671 5.96995C1.94959 4.99319 2.11365 4.46575 2.2504 4.11412C2.41065 3.68038 2.6646 3.28586 3.00067 2.96536C3.32483 2.63327 3.71553 2.37931 4.14927 2.21921C4.5009 2.08247 5.03231 1.9184 6.0051 1.87537C7.05999 1.82851 7.37652 1.81676 10.0449 1.81676C12.7174 1.81676 13.0337 1.82851 14.0848 1.87537C15.0616 1.9184 15.589 2.08247 15.9407 2.21921C16.3742 2.37931 16.7689 2.63327 17.0893 2.96536C17.4213 3.28967 17.6753 3.68038 17.8356 4.11412C17.9723 4.46575 18.1364 4.99701 18.1794 5.96995C18.2263 7.02484 18.238 7.34122 18.238 10.0097C18.238 12.6783 18.2263 12.9908 18.1794 14.0457Z" />
<path d="M10.0371 4.86426C7.20074 4.86426 4.89941 7.16543 4.89941 10.002C4.89941 12.8385 7.20074 15.1397 10.0371 15.1397C12.8737 15.1397 15.1749 12.8385 15.1749 10.002C15.1749 7.16543 12.8737 4.86426 10.0371 4.86426ZM10.0371 13.3347C8.19702 13.3347 6.70442 11.8422 6.70442 10.002C6.70442 8.16172 8.19702 6.66927 10.0371 6.66927C11.8774 6.66927 13.3698 8.16172 13.3698 10.002C13.3698 11.8422 11.8774 13.3347 10.0371 13.3347Z" />
<path d="M16.5777 4.66134C16.5777 5.3237 16.0407 5.86076 15.3781 5.86076C14.7158 5.86076 14.1787 5.3237 14.1787 4.66134C14.1787 3.99882 14.7158 3.46191 15.3781 3.46191C16.0407 3.46191 16.5777 3.99882 16.5777 4.66134Z" />
</g>
<defs>
<clipPath id="clip0_307_513">
<rect width="20" height="20" fill="white"/>
</clipPath>
</defs>
</symbol>

<!-- LinkedIn-icon -->
<symbol width="20" height="20" viewBox="0 0 20 20" id="in-icon">
<g clip-path="url(#clip0_307_497)">
<path d="M19.9951 19.9999V19.999H20.0001V12.664C20.0001 9.07569 19.2276 6.31152 15.0326 6.31152C13.0159 6.31152 11.6626 7.41819 11.1101 8.46736H11.0517V6.64652H7.07422V19.999H11.2159V13.3874C11.2159 11.6465 11.5459 9.96319 13.7017 9.96319C15.8259 9.96319 15.8576 11.9499 15.8576 13.499V19.9999H19.9951Z" />
<path d="M0.330078 6.64746H4.47675V20H0.330078V6.64746Z" />
<path d="M2.40167 0C1.07583 0 0 1.07583 0 2.40167C0 3.7275 1.07583 4.82583 2.40167 4.82583C3.7275 4.82583 4.80333 3.7275 4.80333 2.40167C4.8025 1.07583 3.72667 0 2.40167 0V0Z"/>
</g>
<defs>
<clipPath id="clip0_307_497">
<rect width="20" height="20" fill="white"/>
</clipPath>
</defs>
</symbol>
<!-- Twitter-icon -->
<symbol width="20" height="20" viewBox="0 0 20 20" id="twit-icon">
<g clip-path="url(#clip0_307_507)">
<path d="M20 3.79875C19.2563 4.125 18.4637 4.34125 17.6375 4.44625C18.4875 3.93875 19.1363 3.14125 19.4412 2.18C18.6488 2.6525 17.7738 2.98625 16.8412 3.1725C16.0887 2.37125 15.0162 1.875 13.8462 1.875C11.5763 1.875 9.74875 3.7175 9.74875 5.97625C9.74875 6.30125 9.77625 6.61375 9.84375 6.91125C6.435 6.745 3.41875 5.11125 1.3925 2.6225C1.03875 3.23625 0.83125 3.93875 0.83125 4.695C0.83125 6.115 1.5625 7.37375 2.6525 8.1025C1.99375 8.09 1.3475 7.89875 0.8 7.5975C0.8 7.61 0.8 7.62625 0.8 7.6425C0.8 9.635 2.22125 11.29 4.085 11.6712C3.75125 11.7625 3.3875 11.8062 3.01 11.8062C2.7475 11.8062 2.4825 11.7913 2.23375 11.7362C2.765 13.36 4.2725 14.5538 6.065 14.5925C4.67 15.6838 2.89875 16.3412 0.98125 16.3412C0.645 16.3412 0.3225 16.3263 0 16.285C1.81625 17.4563 3.96875 18.125 6.29 18.125C13.835 18.125 17.96 11.875 17.96 6.4575C17.96 6.27625 17.9538 6.10125 17.945 5.9275C18.7588 5.35 19.4425 4.62875 20 3.79875Z" />
</g>
<defs>
<clipPath id="clip0_307_507">
<rect width="20" height="20" />
</clipPath>
</defs>
</symbol>


<!-- Bottom logotypes 1 -->
<symbol width="106" height="60" viewBox="0 0 106 60" id="logo-1">
<path fill-rule="evenodd" clip-rule="evenodd" d="M38 7L45.0078 13.6341L32 13.6265V45.8137H66V33.507L73 40.1338V7H38ZM65.6924 32.7283L45.8226 13.918H65.6924V32.7283ZM59.5231 41.1055H37.3801V19.4579H38.9453V39.6397H59.5231V41.1055ZM42.6089 50.0991L41.791 51.7837L40.9731 50.0991H40.2871L41.481 52.3452V53.6538H42.1011V52.3452L43.2925 50.0991H42.6089ZM43.6367 53.6538L43.9248 52.8262H45.3018L45.5923 53.6538H46.2368L44.8916 50.0991H44.3374L42.9946 53.6538H43.6367ZM44.6133 50.8535L45.1284 52.3281H44.0981L44.6133 50.8535ZM47.8701 52.2427C47.7806 52.3794 47.7358 52.5299 47.7358 52.6943C47.7358 52.9938 47.8408 53.2371 48.0508 53.4243C48.2624 53.6099 48.5439 53.7026 48.8955 53.7026C49.2471 53.7026 49.5498 53.6074 49.8037 53.417L50.0039 53.6538H50.6924L50.1699 53.0361C50.375 52.7562 50.4775 52.3973 50.4775 51.9595H49.9624C49.9624 52.1987 49.9128 52.416 49.8135 52.6113L49.1274 51.8008L49.3691 51.625C49.54 51.5013 49.6629 51.3776 49.7378 51.2539C49.8127 51.1286 49.8501 50.9919 49.8501 50.8438C49.8501 50.6191 49.7671 50.4312 49.6011 50.2798C49.4367 50.1268 49.2251 50.0503 48.9663 50.0503C48.6798 50.0503 48.452 50.1317 48.2827 50.2944C48.1134 50.4556 48.0288 50.6753 48.0288 50.9536C48.0288 51.0675 48.0557 51.1855 48.1094 51.3076C48.1647 51.4297 48.2616 51.5778 48.3999 51.752C48.1362 51.9408 47.9596 52.1043 47.8701 52.2427ZM49.4741 53.0288C49.3 53.1623 49.1128 53.229 48.9126 53.229C48.7352 53.229 48.5936 53.1777 48.4878 53.0752C48.382 52.9727 48.3291 52.8392 48.3291 52.6748C48.3291 52.4844 48.4268 52.3151 48.6221 52.167L48.6978 52.1133L49.4741 53.0288ZM48.8369 51.4541C48.6693 51.2474 48.5854 51.0757 48.5854 50.939C48.5854 50.8201 48.6196 50.7217 48.688 50.6436C48.7563 50.5654 48.8483 50.5264 48.9639 50.5264C49.0713 50.5264 49.16 50.5597 49.23 50.6265C49.3 50.6916 49.335 50.7705 49.335 50.8633C49.335 51.0033 49.2845 51.118 49.1836 51.2075L49.1079 51.2686L48.8369 51.4541ZM54.623 53.3853C54.8672 53.172 55.0072 52.8758 55.043 52.4966H54.4277C54.3952 52.7505 54.3179 52.932 54.1958 53.041C54.0737 53.1501 53.8914 53.2046 53.6489 53.2046C53.3836 53.2046 53.1818 53.1037 53.0435 52.9019C52.9067 52.7 52.8384 52.4071 52.8384 52.0229V51.708C52.8416 51.3288 52.9149 51.0415 53.0581 50.8462C53.203 50.6493 53.4097 50.5508 53.6782 50.5508C53.9093 50.5508 54.0843 50.6077 54.2031 50.7217C54.3236 50.834 54.3984 51.0179 54.4277 51.2734H55.043C55.0039 50.8844 54.8647 50.5833 54.6255 50.3701C54.3862 50.1569 54.0705 50.0503 53.6782 50.0503C53.3869 50.0503 53.1297 50.1195 52.9067 50.2578C52.6854 50.3962 52.5153 50.5931 52.3965 50.8486C52.2777 51.1042 52.2183 51.3996 52.2183 51.7349V52.0669C52.2231 52.394 52.2842 52.6813 52.4014 52.9287C52.5186 53.1761 52.6846 53.3674 52.8994 53.5024C53.1159 53.6359 53.3657 53.7026 53.6489 53.7026C54.0542 53.7026 54.3789 53.5968 54.623 53.3853ZM58.2534 52.8872C58.3739 52.6235 58.4341 52.3175 58.4341 51.9692V51.7715C58.4325 51.4248 58.3706 51.1213 58.2485 50.8608C58.1265 50.5988 57.9531 50.3986 57.7285 50.2603C57.5055 50.1203 57.2492 50.0503 56.9595 50.0503C56.6698 50.0503 56.4126 50.1211 56.188 50.2627C55.965 50.4027 55.7917 50.6053 55.668 50.8706C55.5459 51.1359 55.4849 51.4419 55.4849 51.7886V51.9888C55.4865 52.3289 55.5483 52.6292 55.6704 52.8896C55.7941 53.1501 55.9683 53.3511 56.1929 53.4927C56.4191 53.6326 56.6763 53.7026 56.9644 53.7026C57.2557 53.7026 57.5129 53.6326 57.7358 53.4927C57.9604 53.3511 58.133 53.1493 58.2534 52.8872ZM57.5918 50.8779C57.7415 51.0879 57.8164 51.3898 57.8164 51.7837V51.9692C57.8164 52.3696 57.7423 52.674 57.5942 52.8823C57.4478 53.0907 57.2378 53.1948 56.9644 53.1948C56.6942 53.1948 56.4826 53.0882 56.3296 52.875C56.1782 52.6618 56.1025 52.3599 56.1025 51.9692V51.7642C56.1058 51.3817 56.1823 51.0863 56.332 50.8779C56.4834 50.668 56.6925 50.563 56.9595 50.563C57.2329 50.563 57.4437 50.668 57.5918 50.8779Z" />
</symbol>
<!-- Bottom logotypes 2 -->
<symbol width="106" height="60" viewBox="0 0 106 60" id="logo-2">
<path fill-rule="evenodd" clip-rule="evenodd" d="M50.1135 5.93452H49.9769C49.7669 5.92181 49.557 5.91672 49.347 5.91163H49.347H49.3268H48.8917C48.4945 5.91163 48.0897 5.92181 47.6875 5.94215C47.6572 5.93994 47.6267 5.93994 47.5964 5.94215C43.9521 6.14863 40.3816 7.05951 37.0804 8.62492L36.6478 8.83344V30.9746L37.6597 30.6313C38.5476 30.3261 39.4937 30.0515 40.4727 29.7972C43.1192 29.1178 45.8366 28.7567 48.5678 28.7216V31.6306C48.2061 31.6332 47.8545 31.6434 47.5028 31.6612H47.4193C45.3174 31.7765 43.2315 32.0967 41.1912 32.6173C38.607 33.2643 36.1142 34.2357 33.7715 35.5086V7.11189C36.2046 5.69275 38.8252 4.62687 41.5554 3.94596C43.9526 3.32705 46.4168 3.00931 48.8917 3H49.3192C49.8302 3.01271 50.3285 3.0356 50.7965 3.0712C52.0296 3.15778 53.2527 3.35263 54.452 3.65353V6.51685C53.2873 6.24551 52.103 6.06695 50.9104 5.98284C50.8862 5.98079 50.862 5.97872 50.8377 5.97666C50.591 5.95561 50.3439 5.93452 50.1135 5.93452ZM55.1527 8.86138C55.7876 8.9097 56.4453 8.93259 57.1107 8.93259C59.7124 8.92307 62.303 8.59083 64.8238 7.94339C67.4067 7.29396 69.8985 6.32178 72.2409 5.04956V32.9402C69.8065 34.3585 67.1852 35.4243 64.4545 36.1061C62.057 36.7227 59.5929 37.0395 57.1182 37.0496C55.2432 37.0647 53.3736 36.8443 51.5529 36.3935V8.32229C51.9829 8.42146 52.4256 8.51301 52.8759 8.58929C53.6146 8.7139 54.3937 8.80544 55.1527 8.86138ZM69.3469 9.07753L68.335 9.41828C67.4041 9.73106 66.4656 10.0108 65.522 10.26C62.7748 10.966 59.9513 11.3281 57.1157 11.3382C56.4555 11.3382 55.8483 11.3204 55.2614 11.2822L54.4545 11.2288V31.3178V34.0057L55.1476 34.0667C55.7901 34.1227 56.4529 34.1506 57.1208 34.1506C59.3543 34.1412 61.578 33.8533 63.7411 33.2937C65.5222 32.8469 67.2551 32.2243 68.9144 31.4348L69.3469 31.2263V9.07753Z" />
<path d="M35.7373 45.212C35.5918 45.0611 35.4164 44.9427 35.2225 44.8642C35.0286 44.7858 34.8204 44.7492 34.6115 44.7568C34.3889 44.7539 34.1679 44.7954 33.9614 44.8789C33.772 44.9543 33.5999 45.0677 33.4554 45.212C33.3126 45.3568 33.2014 45.5301 33.1291 45.7206C33.0498 45.9203 33.0103 46.1337 33.0127 46.3487V50.1427C33.0037 50.4101 33.0547 50.676 33.162 50.9209C33.2516 51.1153 33.3808 51.2886 33.5415 51.4294C33.6931 51.5571 33.8711 51.6492 34.0626 51.699C34.2471 51.7508 34.4377 51.7774 34.6292 51.7778C34.8405 51.7799 35.0497 51.7348 35.2414 51.6456C35.4311 51.5626 35.6029 51.4434 35.7474 51.2947C35.8883 51.1473 36.0006 50.9748 36.0788 50.7861C36.1599 50.5948 36.2012 50.3888 36.2002 50.1809V49.7562H35.2085V50.0944C35.2115 50.2099 35.1917 50.3248 35.1504 50.4326C35.1181 50.5134 35.0689 50.5862 35.0062 50.6462C34.9447 50.6959 34.8743 50.733 34.7987 50.7556C34.7318 50.7779 34.6618 50.7899 34.5913 50.7912C34.5028 50.8015 34.4131 50.7881 34.3313 50.7524C34.2496 50.7166 34.1787 50.6599 34.1258 50.5877C34.0323 50.4353 33.9865 50.2581 33.9943 50.0792V46.542C33.9881 46.3458 34.0298 46.1511 34.1157 45.9749C34.1672 45.8948 34.24 45.8309 34.3259 45.7904C34.4118 45.75 34.5072 45.7346 34.6014 45.746C34.6869 45.743 34.7718 45.7608 34.8489 45.798C34.926 45.8352 34.993 45.8907 35.0441 45.9596C35.1551 46.1053 35.2131 46.2848 35.2085 46.4682V46.7963H36.1901V46.4097C36.1921 46.1827 36.1509 45.9575 36.0686 45.746C35.9954 45.5473 35.8826 45.3656 35.7373 45.212Z" />
<path d="M41.6287 45.169C41.3125 44.902 40.9134 44.7545 40.5004 44.752C40.2984 44.7528 40.0981 44.7889 39.9085 44.8588C39.7159 44.9278 39.5382 45.0331 39.3848 45.169C39.2205 45.3167 39.0894 45.4978 39.0003 45.7005C38.9004 45.9322 38.8512 46.1828 38.8561 46.4354V50.0743C38.8493 50.3302 38.8985 50.5846 39.0003 50.8193C39.09 51.015 39.2213 51.1886 39.3848 51.3279C39.5364 51.4687 39.7144 51.5776 39.9085 51.6483C40.0981 51.7181 40.2984 51.7543 40.5004 51.7551C40.7024 51.7547 40.9028 51.7186 41.0924 51.6483C41.2897 51.5766 41.4717 51.4679 41.6287 51.3279C41.7869 51.186 41.9143 51.0129 42.0031 50.8193C42.1049 50.5846 42.1541 50.3302 42.1473 50.0743V46.4354C42.1521 46.1828 42.103 45.9322 42.0031 45.7005C41.9148 45.5 41.7875 45.3193 41.6287 45.169ZM41.1657 50.0743C41.1741 50.1713 41.1607 50.2689 41.1266 50.36C41.0924 50.4511 41.0384 50.5333 40.9684 50.6007C40.8374 50.7105 40.6723 50.7707 40.5017 50.7707C40.3311 50.7707 40.1659 50.7105 40.0349 50.6007C39.965 50.5333 39.911 50.4511 39.8768 50.36C39.8427 50.2689 39.8293 50.1713 39.8376 50.0743V46.4354C39.8293 46.3384 39.8427 46.2407 39.8768 46.1496C39.911 46.0585 39.965 45.9763 40.0349 45.909C40.1659 45.7991 40.3311 45.739 40.5017 45.739C40.6723 45.739 40.8374 45.7991 40.9684 45.909C41.0384 45.9763 41.0924 46.0585 41.1266 46.1496C41.1607 46.2407 41.1741 46.3384 41.1657 46.4354V50.0743Z" />
<path d="M49.367 51.6993V44.8105H48.4133L47.1611 48.4571H47.1434L45.8811 44.8105H44.9375V51.6993H45.9216V47.5086H45.9393L46.9031 50.4711H47.3939L48.3653 47.5086H48.383V51.6993H49.367Z" />
<path d="M54.9577 45.294C54.8062 45.124 54.6149 44.9947 54.4011 44.9177C54.1708 44.8428 53.9298 44.8067 53.6878 44.8109H52.2256V51.6996H53.2071V49.0092H53.7131C54.0193 49.0232 54.324 48.9584 54.5985 48.8211C54.8216 48.6971 55.0077 48.5154 55.1373 48.2947C55.2508 48.1114 55.3274 47.9075 55.3624 47.6945C55.4011 47.4353 55.4188 47.1734 55.4156 46.9113C55.4251 46.5805 55.3928 46.2498 55.3194 45.9272C55.254 45.6888 55.1295 45.471 54.9577 45.294ZM54.4517 47.3945C54.4475 47.5192 54.4164 47.6415 54.3607 47.753C54.3046 47.859 54.2158 47.9437 54.1077 47.9946C53.9623 48.0596 53.8037 48.0892 53.6448 48.0811H53.197V45.739H53.7029C53.8553 45.7316 54.0072 45.7612 54.1456 45.8255C54.2471 45.8837 54.3277 45.9727 54.3759 46.0798C54.4295 46.2008 54.4587 46.3313 54.4619 46.4638C54.4619 46.6087 54.4619 46.7613 54.4619 46.9215C54.4619 47.0817 54.472 47.247 54.4619 47.3945H54.4517Z" />
<path d="M59.6074 44.8105H58.803L57.2852 51.6993H58.2667L58.5551 50.2193H59.8933L60.1817 51.6993H61.1632L59.6074 44.8105ZM58.7018 49.281L59.185 46.7838H59.2027L59.6833 49.281H58.7018Z" />
<path d="M65.9496 48.9606H65.9319L64.4494 44.8105H63.5059V51.6993H64.4874V47.5569H64.5076L66.0078 51.6993H66.9311V44.8105H65.9496V48.9606Z" />
<path d="M71.9471 44.8105L71.1578 47.5493H71.1376L70.3483 44.8105H69.3086L70.6569 48.7877V51.6993H71.6385V48.7877L72.9868 44.8105H71.9471Z" />
<path d="M33 53.6442H33.4731V54.9716H33.7943V53.6442H34.2649V53.3721H33V53.6442Z" />
<path d="M36.9772 53.3721L36.3574 54.9716H36.6989L36.8305 54.6079H37.468L37.6046 54.9716H37.9537L37.3187 53.3721H36.9772ZM36.9266 54.3384L37.1442 53.7459L37.3617 54.3384H36.9266Z" />
<path d="M40.9084 54.3821H41.2778V54.5881C41.1699 54.6746 41.0362 54.722 40.8983 54.7229C40.8338 54.7265 40.7693 54.7145 40.7104 54.688C40.6514 54.6614 40.5996 54.6211 40.5593 54.5703C40.4745 54.4485 40.4327 54.3017 40.4404 54.1533C40.4404 53.7973 40.5947 53.6193 40.9008 53.6193C40.9814 53.6112 41.0622 53.6325 41.1285 53.6791C41.1949 53.7257 41.2424 53.7947 41.2626 53.8735L41.5788 53.8125C41.5105 53.4997 41.2853 53.3421 40.9008 53.3421C40.6952 53.3366 40.4952 53.4103 40.3418 53.5481C40.2612 53.6276 40.1988 53.7239 40.1591 53.8302C40.1193 53.9365 40.1031 54.0502 40.1116 54.1634C40.1022 54.3823 40.1754 54.5966 40.3165 54.7636C40.3948 54.8444 40.4897 54.9071 40.5945 54.9475C40.6993 54.9879 40.8116 55.0049 40.9236 54.9975C41.1739 55.0045 41.417 54.9133 41.6016 54.7432V54.1126H40.9084V54.3821Z" />
<path d="M44.9224 53.3721H44.5986V54.9716H45.7193V54.6995H44.9224V53.3721Z" />
<path d="M48.3179 53.3721H47.9941V54.9716H48.3179V53.3721Z" />
<path d="M51.6369 54.4401L50.9817 53.3721H50.668V54.9716H50.969V53.9264L51.6116 54.9716H51.9328V53.3721H51.6369V54.4401Z" />
<path d="M54.6363 54.2672H55.4332V53.9951H54.6363V53.6442H55.4939V53.3721H54.3125V54.9716H55.5268V54.6995H54.6363V54.2672Z" />
<path d="M61.9121 54.0027H61.2822V53.3721H60.9609V54.9716H61.2822V54.2723H61.9121V54.9716H62.2334V53.3721H61.9121V54.0027Z" />
<path d="M64.9306 54.2672H65.73V53.9951H64.9306V53.6442H65.7908V53.3721H64.6094V54.9716H65.8211V54.6995H64.9306V54.2672Z"/>
<path d="M69.0235 54.2674C69.3018 54.2241 69.4434 54.0766 69.4434 53.8224C69.4515 53.7543 69.4412 53.6854 69.4136 53.6227C69.386 53.5601 69.3421 53.5061 69.2866 53.4663C69.1417 53.3936 68.9801 53.3611 68.8186 53.3723H68.1406V54.9717H68.4619V54.303H68.5251C68.5936 54.2987 68.6621 54.3109 68.725 54.3386C68.772 54.3675 68.8111 54.4077 68.8388 54.4555L69.1879 54.9641H69.5724L69.3777 54.6513C69.2916 54.4969 69.1702 54.3653 69.0235 54.2674ZM68.6997 54.0461H68.4619V53.6444H68.7149C68.8251 53.6354 68.936 53.6484 69.0412 53.6825C69.0646 53.7031 69.0831 53.7288 69.0952 53.7576C69.1074 53.7865 69.113 53.8176 69.1115 53.8489C69.11 53.8802 69.1016 53.9107 69.0868 53.9382C69.072 53.9658 69.0512 53.9896 69.026 54.008C68.9204 54.0404 68.8099 54.0533 68.6997 54.0461Z" />
<path d="M72.1099 54.2672H72.9068V53.9951H72.1099V53.6442H72.97V53.3721H71.7861V54.9716H73.0004V54.6995H72.1099V54.2672Z" />
</symbol>
<!-- Bottom logotypes 3 -->
<symbol width="106" height="60" viewBox="0 0 106 60" id="logo-3">
<path d="M36.4059 49.1018C36.4218 49.1022 36.4375 49.1053 36.452 49.111C36.4665 49.1167 36.4796 49.1248 36.4904 49.135L36.7085 49.3435C36.5392 49.5122 36.33 49.6472 36.0951 49.7391C35.82 49.8395 35.5236 49.8879 35.2253 49.8813C34.9451 49.8863 34.6667 49.8411 34.4074 49.7486C34.1735 49.6636 33.9634 49.536 33.7912 49.3743C33.6155 49.2065 33.4802 49.01 33.3932 48.7962C33.2979 48.5578 33.2508 48.3069 33.2541 48.0546C33.2502 47.8007 33.3011 47.5483 33.4041 47.3107C33.4993 47.0955 33.643 46.8989 33.8267 46.7326C34.0128 46.5694 34.2356 46.4412 34.481 46.3558C34.7496 46.2654 35.0355 46.2203 35.3235 46.2232C35.591 46.2175 35.8571 46.2586 36.106 46.344C36.3219 46.4254 36.5202 46.5384 36.6922 46.6781L36.5095 46.9008C36.4969 46.9165 36.4812 46.9301 36.4632 46.941C36.4416 46.9539 36.4156 46.9598 36.3896 46.9576C36.3613 46.9559 36.334 46.9478 36.3105 46.9339L36.2123 46.8747L36.076 46.7989C36.0172 46.7707 35.9561 46.7462 35.8933 46.7255C35.8125 46.7003 35.7295 46.6805 35.6452 46.6662C35.5382 46.6491 35.4296 46.6412 35.3208 46.6425C35.1134 46.6403 34.9076 46.6741 34.7155 46.742C34.5364 46.805 34.3746 46.9003 34.2411 47.0216C34.1051 47.1507 34.0004 47.3021 33.933 47.467C33.8562 47.6556 33.8184 47.8545 33.8212 48.0546C33.8179 48.2578 33.8558 48.4598 33.933 48.6516C33.9995 48.8151 34.1024 48.9656 34.2356 49.0947C34.3605 49.215 34.5153 49.309 34.6882 49.3695C34.8662 49.4336 35.0572 49.4659 35.2499 49.4643C35.3612 49.4658 35.4724 49.4594 35.5825 49.4453C35.7623 49.4263 35.9348 49.372 36.0869 49.2866C36.1632 49.2429 36.2353 49.1937 36.3023 49.1397C36.3303 49.1165 36.3672 49.103 36.4059 49.1018Z" />
<path d="M42.7041 48.0537C42.7075 48.3051 42.6576 48.5548 42.5568 48.7905C42.468 49.0042 42.328 49.1992 42.1462 49.3625C41.9643 49.5259 41.7446 49.6539 41.5017 49.7381C40.9679 49.915 40.3778 49.915 39.844 49.7381C39.6027 49.6526 39.3845 49.5243 39.2033 49.3614C39.0216 49.1951 38.8806 48.9984 38.7889 48.7834C38.5925 48.3062 38.5925 47.7846 38.7889 47.3074C38.8819 47.0922 39.0227 46.895 39.2033 46.727C39.386 46.5693 39.6041 46.4459 39.844 46.3646C40.3772 46.1845 40.9686 46.1845 41.5017 46.3646C41.7439 46.45 41.963 46.5783 42.1452 46.7412C42.3246 46.9059 42.4646 47.1 42.5568 47.3122C42.6579 47.5494 42.7078 47.8008 42.7041 48.0537ZM42.1315 48.0537C42.1358 47.8526 42.1008 47.6523 42.0279 47.4614C41.9668 47.2979 41.8675 47.1471 41.7362 47.0184C41.6084 46.8967 41.451 46.8012 41.2754 46.7389C40.8876 46.6093 40.4582 46.6093 40.0703 46.7389C39.8948 46.8012 39.7374 46.8967 39.6096 47.0184C39.4764 47.1463 39.376 47.2973 39.3151 47.4614C39.1764 47.8471 39.1764 48.2603 39.3151 48.646C39.3766 48.8098 39.4769 48.9607 39.6096 49.089C39.7376 49.2099 39.895 49.3046 40.0703 49.3661C40.4589 49.4924 40.8869 49.4924 41.2754 49.3661C41.4508 49.3046 41.6082 49.2099 41.7362 49.089C41.8669 48.96 41.9662 48.8093 42.0279 48.646C42.1011 48.4551 42.1361 48.2548 42.1315 48.0537Z" />
<path d="M47.0009 48.6746L47.0582 48.8072C47.08 48.7599 47.0991 48.7172 47.1209 48.6746C47.1417 48.63 47.1654 48.5865 47.1918 48.5443L48.585 46.3437C48.6123 46.3058 48.6368 46.2821 48.6641 46.275C48.7012 46.2652 48.7399 46.2612 48.7786 46.2632H49.1903V49.8424H48.7023V47.2107C48.7023 47.1775 48.7023 47.1396 48.7023 47.0994C48.6996 47.0583 48.6996 47.0172 48.7023 46.9762L47.3009 49.2076C47.2831 49.241 47.2546 49.2692 47.2188 49.289C47.183 49.3087 47.1415 49.3191 47.0991 49.3189H47.02C46.9776 49.3194 46.9359 49.3091 46.9 49.2894C46.8642 49.2696 46.8358 49.2412 46.8183 49.2076L45.376 46.962C45.376 47.0046 45.376 47.0472 45.376 47.0899C45.376 47.1325 45.376 47.1704 45.376 47.2036V49.8353H44.9043V46.2632H45.316C45.3547 46.2612 45.3934 46.2652 45.4305 46.275C45.4643 46.2896 45.4913 46.3139 45.5068 46.3437L46.9301 48.5467C46.958 48.5874 46.9818 48.6302 47.0009 48.6746Z" />
<path d="M52.2435 48.4967V49.8374H51.6982V46.2631H52.9142C53.1438 46.2592 53.3727 46.2856 53.5931 46.3412C53.7696 46.3847 53.9333 46.4606 54.073 46.5639C54.1941 46.6607 54.2875 46.7807 54.3456 46.9145C54.41 47.0603 54.4415 47.2155 54.4383 47.3716C54.4407 47.5284 54.4064 47.6839 54.3375 47.8288C54.2719 47.9659 54.1712 48.0882 54.043 48.1864C53.9031 48.294 53.7387 48.3747 53.5604 48.4233C53.3482 48.4822 53.1261 48.5103 52.9033 48.5062L52.2435 48.4967ZM52.2435 48.113H52.9033C53.0467 48.1146 53.1893 48.0962 53.3259 48.0585C53.4386 48.0256 53.5425 47.9732 53.6313 47.9046C53.7132 47.839 53.7767 47.758 53.8167 47.6677C53.8613 47.5722 53.8836 47.4699 53.8821 47.3669C53.8885 47.2675 53.8698 47.1681 53.8274 47.0757C53.7851 46.9832 53.72 46.8999 53.6368 46.8315C53.4285 46.6902 53.1668 46.6218 52.9033 46.6397H52.2435V48.113Z" />
<path d="M59.5726 49.8423H59.1418C59.0986 49.8437 59.0562 49.832 59.0218 49.8091C58.9909 49.7868 58.9666 49.7584 58.951 49.7262L58.5802 48.8615H56.718L56.3335 49.7262C56.3194 49.7578 56.2959 49.7856 56.2654 49.8067C56.2307 49.831 56.1872 49.8436 56.1427 49.8423H55.7119L57.3478 46.2627H57.9149L59.5726 49.8423ZM56.8734 48.5133H58.4111L57.7622 47.0563C57.7126 46.9467 57.6716 46.8343 57.6395 46.7199L57.5768 46.9071C57.5577 46.9639 57.5359 47.016 57.5168 47.0587L56.8734 48.5133Z" />
<path d="M61.9282 46.2794C61.9608 46.2949 61.9888 46.3168 62.01 46.3433L64.3956 49.0416C64.3956 48.9989 64.3956 48.9563 64.3956 48.916C64.3956 48.8758 64.3956 48.8355 64.3956 48.7976V46.2628H64.8837V49.8423H64.611C64.5723 49.8433 64.5339 49.836 64.4992 49.821C64.4655 49.8039 64.4359 49.7814 64.412 49.7546L62.0291 47.0587C62.0317 47.0998 62.0317 47.1409 62.0291 47.1819C62.0291 47.2222 62.0291 47.2577 62.0291 47.2909V49.8423H61.541V46.2628H61.83C61.8637 46.262 61.8973 46.2676 61.9282 46.2794Z" />
<path d="M68.9027 48.4193V49.8407H68.3574V48.4193L66.8496 46.2635H67.3376C67.3797 46.2614 67.4213 46.2723 67.4549 46.2943C67.4846 46.3173 67.5095 46.3446 67.5285 46.3749L68.4719 47.7655C68.51 47.8247 68.5428 47.8792 68.57 47.9313C68.5973 47.9834 68.6191 48.0332 68.6382 48.0829L68.7091 47.9289C68.7355 47.8726 68.7665 47.818 68.8018 47.7655L69.7315 46.3654C69.7511 46.3375 69.7749 46.312 69.8024 46.2896C69.8347 46.265 69.8767 46.2523 69.9196 46.2541H70.4131L68.9027 48.4193Z" />
<path d="M46.7314 40.2563C46.9686 40.2823 47.2086 40.3036 47.4512 40.3226C51.1301 38.8927 54.2422 36.5525 56.3987 33.5943C58.5552 30.6362 59.6603 27.1914 59.5759 23.6905L55.5216 20.168C56.346 23.8953 55.9604 27.7483 54.408 31.2961C52.8555 34.8438 50.1976 37.9462 46.7314 40.2563Z" />
<path d="M45.2832 40.0929L45.3923 40.1118C49.0962 37.81 51.92 34.5957 53.4988 30.8845C55.0775 27.1733 55.3384 23.1359 54.2478 19.2945L48.4732 14.2773C50.8089 18.4014 51.749 23.0168 51.1843 27.5868C50.6196 32.1568 48.5732 36.4936 45.2832 40.0929Z" />
<path d="M64.8672 27.8271C63.8862 31.6737 61.5034 35.1429 58.0729 37.7195C57.071 38.4761 55.9903 39.1502 54.8447 39.733C57.6382 39.0196 60.2058 37.7584 62.3496 36.0466C64.4933 34.3347 66.1559 32.218 67.2093 29.8596L64.8672 27.8271Z" />
<path d="M63.949 27.2604L60.6146 24.3633C60.5508 27.6664 59.47 30.8944 57.4845 33.7117C55.499 36.5291 52.6813 38.833 49.3242 40.3841H49.3406C50.0887 40.3838 50.8362 40.3451 51.579 40.268C54.7164 39.1554 57.488 37.3853 59.6464 35.1156C61.8049 32.8459 63.283 30.1472 63.949 27.2604Z" />
<path d="M45.7659 12.1612L41.788 8.7002C38.2319 9.89415 35.1734 11.9931 33.013 14.7223C30.8526 17.4515 29.6908 20.6838 29.6797 23.9961V23.9961C29.693 27.6562 31.1109 31.2079 33.7089 34.089C36.3069 36.9702 39.9367 39.0162 44.0237 39.9033C47.6721 36.0412 49.8082 31.269 50.1215 26.28C50.4348 21.291 48.9091 16.3452 45.7659 12.1612Z" />
<path d="M73.1396 26.7277C73.1252 22.3852 71.1334 18.2242 67.5993 15.1535C64.0651 12.0829 59.2759 10.3524 54.2779 10.3399C51.9684 10.3378 49.6784 10.7081 47.5244 11.4319L71.88 32.593C72.7139 30.7225 73.1411 28.7337 73.1396 26.7277Z" />
</symbol>
<!-- Bottom logotypes 4 -->
<symbol width="106" height="60" viewBox="0 0 106 60" id="logo-4">
<path d="M24.1457 21.1035H24.1428C21.7448 21.1035 19.8008 22.8311 19.8008 24.9622V24.9647C19.8008 27.0958 21.7448 28.8234 24.1428 28.8234H24.1457C26.5437 28.8234 28.4877 27.0958 28.4877 24.9647V24.9622C28.4877 22.8311 26.5437 21.1035 24.1457 21.1035Z" />
<path d="M56.1949 19.8695C56.1881 16.9095 54.8622 14.0725 52.5073 11.9792C50.1524 9.88592 46.9603 8.70692 43.6296 8.7002V8.7002C40.2979 8.70557 37.1044 9.88398 34.7483 11.9774C32.3921 14.0708 31.0654 16.9087 31.0586 19.8695V36.1924C31.0586 36.1924 56.192 33.7047 56.1949 19.8721V19.8695Z" />
<path d="M11 41.5495C11.006 43.6091 11.9291 45.5828 13.5676 47.0394C15.2061 48.496 17.4267 49.317 19.7442 49.3231C22.0612 49.317 24.2814 48.4963 25.9197 47.0403C27.5581 45.5843 28.4816 43.6112 28.4884 41.552V30.1943C28.4884 30.1943 11 31.9266 11 41.5495ZM19.7442 43.5844C19.2913 43.5844 18.8486 43.4651 18.472 43.2415C18.0955 43.0179 17.802 42.7001 17.6287 42.3282C17.4554 41.9564 17.41 41.5472 17.4984 41.1525C17.5867 40.7577 17.8048 40.3951 18.125 40.1105C18.4453 39.8259 18.8533 39.6321 19.2975 39.5536C19.7416 39.4751 20.202 39.5154 20.6205 39.6694C21.0389 39.8234 21.3965 40.0843 21.6481 40.4189C21.8997 40.7535 22.034 41.147 22.034 41.5495C22.0351 41.8173 21.9767 42.0828 21.8622 42.3306C21.7476 42.5783 21.5791 42.8036 21.3664 42.9933C21.1536 43.1831 20.9008 43.3337 20.6224 43.4364C20.3441 43.5392 20.0456 43.5921 19.7442 43.5921V43.5844Z" />
<path d="M37.418 42.4639H35.7305V44.207H34.8516V39.9414H37.6289V40.6533H35.7305V41.7549H37.418V42.4639ZM41.6426 42.1709C41.6426 42.5908 41.5684 42.959 41.4199 43.2754C41.2715 43.5918 41.0586 43.8359 40.7812 44.0078C40.5059 44.1797 40.1895 44.2656 39.832 44.2656C39.4785 44.2656 39.1631 44.1807 38.8857 44.0107C38.6084 43.8408 38.3936 43.5986 38.2412 43.2842C38.0889 42.9678 38.0117 42.6045 38.0098 42.1943V41.9834C38.0098 41.5635 38.085 41.1943 38.2354 40.876C38.3877 40.5557 38.6016 40.3105 38.877 40.1406C39.1543 39.9688 39.4707 39.8828 39.8262 39.8828C40.1816 39.8828 40.4971 39.9688 40.7725 40.1406C41.0498 40.3105 41.2637 40.5557 41.4141 40.876C41.5664 41.1943 41.6426 41.5625 41.6426 41.9805V42.1709ZM40.752 41.9775C40.752 41.5303 40.6719 41.1904 40.5117 40.958C40.3516 40.7256 40.123 40.6094 39.8262 40.6094C39.5312 40.6094 39.3037 40.7246 39.1436 40.9551C38.9834 41.1836 38.9023 41.5195 38.9004 41.9629V42.1709C38.9004 42.6064 38.9805 42.9443 39.1406 43.1846C39.3008 43.4248 39.5312 43.5449 39.832 43.5449C40.127 43.5449 40.3535 43.4297 40.5117 43.1992C40.6699 42.9668 40.75 42.6289 40.752 42.1855V41.9775ZM44.4932 43.0879C44.4932 42.9219 44.4346 42.7949 44.3174 42.707C44.2002 42.6172 43.9893 42.5234 43.6846 42.4258C43.3799 42.3262 43.1387 42.2285 42.9609 42.1328C42.4766 41.8711 42.2344 41.5186 42.2344 41.0752C42.2344 40.8447 42.2988 40.6396 42.4277 40.46C42.5586 40.2783 42.7451 40.1367 42.9873 40.0352C43.2314 39.9336 43.5049 39.8828 43.8076 39.8828C44.1123 39.8828 44.3838 39.9385 44.6221 40.0498C44.8604 40.1592 45.0449 40.3145 45.1758 40.5156C45.3086 40.7168 45.375 40.9453 45.375 41.2012H44.4961C44.4961 41.0059 44.4346 40.8545 44.3115 40.7471C44.1885 40.6377 44.0156 40.583 43.793 40.583C43.5781 40.583 43.4111 40.6289 43.292 40.7207C43.1729 40.8105 43.1133 40.9297 43.1133 41.0781C43.1133 41.2168 43.1826 41.333 43.3213 41.4268C43.4619 41.5205 43.668 41.6084 43.9395 41.6904C44.4395 41.8408 44.8037 42.0273 45.0322 42.25C45.2607 42.4727 45.375 42.75 45.375 43.082C45.375 43.4512 45.2354 43.7412 44.9561 43.9521C44.6768 44.1611 44.3008 44.2656 43.8281 44.2656C43.5 44.2656 43.2012 44.2061 42.9316 44.0869C42.6621 43.9658 42.4561 43.8008 42.3135 43.5918C42.1729 43.3828 42.1025 43.1406 42.1025 42.8652H42.9844C42.9844 43.3359 43.2656 43.5713 43.8281 43.5713C44.0371 43.5713 44.2002 43.5293 44.3174 43.4453C44.4346 43.3594 44.4932 43.2402 44.4932 43.0879ZM49.1836 40.6533H47.877V44.207H46.998V40.6533H45.709V39.9414H49.1836V40.6533ZM52.2539 42.3584H50.5664V43.501H52.5469V44.207H49.6875V39.9414H52.541V40.6533H50.5664V41.6699H52.2539V42.3584ZM54.6416 42.6455H53.9414V44.207H53.0625V39.9414H54.6475C55.1514 39.9414 55.54 40.0537 55.8135 40.2783C56.0869 40.5029 56.2236 40.8203 56.2236 41.2305C56.2236 41.5215 56.1602 41.7646 56.0332 41.96C55.9082 42.1533 55.7178 42.3076 55.4619 42.4229L56.3848 44.166V44.207H55.4414L54.6416 42.6455ZM53.9414 41.9336H54.6504C54.8711 41.9336 55.042 41.8779 55.1631 41.7666C55.2842 41.6533 55.3447 41.498 55.3447 41.3008C55.3447 41.0996 55.2871 40.9414 55.1719 40.8262C55.0586 40.7109 54.8838 40.6533 54.6475 40.6533H53.9414V41.9336ZM59.2676 42.7041V44.207H58.3887V39.9414H60.0527C60.373 39.9414 60.6543 40 60.8965 40.1172C61.1406 40.2344 61.3281 40.4014 61.459 40.6182C61.5898 40.833 61.6553 41.0781 61.6553 41.3535C61.6553 41.7715 61.5117 42.1016 61.2246 42.3438C60.9395 42.584 60.5439 42.7041 60.0381 42.7041H59.2676ZM59.2676 41.9922H60.0527C60.2852 41.9922 60.4619 41.9375 60.583 41.8281C60.7061 41.7188 60.7676 41.5625 60.7676 41.3594C60.7676 41.1504 60.7061 40.9814 60.583 40.8525C60.46 40.7236 60.29 40.6572 60.0732 40.6533H59.2676V41.9922ZM64.8281 42.3584H63.1406V43.501H65.1211V44.207H62.2617V39.9414H65.1152V40.6533H63.1406V41.6699H64.8281V42.3584ZM68.9062 40.6533H67.5996V44.207H66.7207V40.6533H65.4316V39.9414H68.9062V40.6533ZM71.9766 42.3584H70.2891V43.501H72.2695V44.207H69.4102V39.9414H72.2637V40.6533H70.2891V41.6699H71.9766V42.3584ZM74.3643 42.6455H73.6641V44.207H72.7852V39.9414H74.3701C74.874 39.9414 75.2627 40.0537 75.5361 40.2783C75.8096 40.5029 75.9463 40.8203 75.9463 41.2305C75.9463 41.5215 75.8828 41.7646 75.7559 41.96C75.6309 42.1533 75.4404 42.3076 75.1846 42.4229L76.1074 44.166V44.207H75.1641L74.3643 42.6455ZM73.6641 41.9336H74.373C74.5938 41.9336 74.7646 41.8779 74.8857 41.7666C75.0068 41.6533 75.0674 41.498 75.0674 41.3008C75.0674 41.0996 75.0098 40.9414 74.8945 40.8262C74.7812 40.7109 74.6064 40.6533 74.3701 40.6533H73.6641V41.9336ZM78.8291 43.0879C78.8291 42.9219 78.7705 42.7949 78.6533 42.707C78.5361 42.6172 78.3252 42.5234 78.0205 42.4258C77.7158 42.3262 77.4746 42.2285 77.2969 42.1328C76.8125 41.8711 76.5703 41.5186 76.5703 41.0752C76.5703 40.8447 76.6348 40.6396 76.7637 40.46C76.8945 40.2783 77.0811 40.1367 77.3232 40.0352C77.5674 39.9336 77.8408 39.8828 78.1436 39.8828C78.4482 39.8828 78.7197 39.9385 78.958 40.0498C79.1963 40.1592 79.3809 40.3145 79.5117 40.5156C79.6445 40.7168 79.7109 40.9453 79.7109 41.2012H78.832C78.832 41.0059 78.7705 40.8545 78.6475 40.7471C78.5244 40.6377 78.3516 40.583 78.1289 40.583C77.9141 40.583 77.7471 40.6289 77.6279 40.7207C77.5088 40.8105 77.4492 40.9297 77.4492 41.0781C77.4492 41.2168 77.5186 41.333 77.6572 41.4268C77.7979 41.5205 78.0039 41.6084 78.2754 41.6904C78.7754 41.8408 79.1396 42.0273 79.3682 42.25C79.5967 42.4727 79.7109 42.75 79.7109 43.082C79.7109 43.4512 79.5713 43.7412 79.292 43.9521C79.0127 44.1611 78.6367 44.2656 78.1641 44.2656C77.8359 44.2656 77.5371 44.2061 77.2676 44.0869C76.998 43.9658 76.792 43.8008 76.6494 43.5918C76.5088 43.3828 76.4385 43.1406 76.4385 42.8652H77.3203C77.3203 43.3359 77.6016 43.5713 78.1641 43.5713C78.373 43.5713 78.5361 43.5293 78.6533 43.4453C78.7705 43.3594 78.8291 43.2402 78.8291 43.0879Z" />
</symbol>
<!-- Bottom logotypes 5 -->
<symbol width="106" height="60" viewBox="0 0 106 60" id="logo-5">
<path d="M26.7569 44.7349C27.0006 45.011 27.1304 45.3569 27.1236 45.7118C27.136 45.9434 27.0914 46.1745 26.993 46.3881C26.8947 46.6018 26.7451 46.7924 26.5554 46.9459C26.082 47.2732 25.4956 47.4333 24.9037 47.3966H22V41.2051H24.8442C25.4057 41.1709 25.9626 41.3163 26.42 41.6165C26.6036 41.7572 26.7491 41.9351 26.8448 42.1362C26.9406 42.3372 26.984 42.5559 26.9716 42.7749C26.9883 43.1164 26.8712 43.4522 26.6413 43.7216C26.4206 43.9676 26.1156 44.1382 25.7758 44.2056C26.161 44.2699 26.5087 44.4575 26.7569 44.7349ZM23.3511 43.8003H24.5667C24.843 43.819 25.1174 43.7459 25.3397 43.5946C25.431 43.5188 25.502 43.4249 25.5473 43.32C25.5925 43.2151 25.6108 43.1021 25.6007 42.9896C25.6093 42.8776 25.5906 42.7653 25.5461 42.6607C25.5015 42.5561 25.4322 42.4618 25.343 42.3847C25.1141 42.2291 24.8312 42.1549 24.5469 42.176H23.3511V43.8003ZM25.4587 46.1746C25.5562 46.0971 25.6329 46 25.6828 45.8908C25.7326 45.7817 25.7543 45.6635 25.7461 45.5455C25.7535 45.4261 25.7309 45.3067 25.6799 45.1965C25.6289 45.0864 25.551 44.9885 25.4521 44.9103C25.2142 44.7488 24.9217 44.6696 24.6262 44.6865H23.3511V46.3894H24.6427C24.9334 46.4047 25.2212 46.329 25.4587 46.1746Z" />
<path d="M32.5711 47.3973L30.9888 44.9776H30.3942V47.3973H29.0332V41.2058H31.6099C32.2593 41.1643 32.9014 41.3527 33.4036 41.7321C33.7638 42.0682 33.981 42.511 34.0162 42.9807C34.0513 43.4504 33.902 43.9162 33.5952 44.294C33.2773 44.6275 32.8431 44.8498 32.3663 44.9231L34.0511 47.3973H32.5711ZM30.3942 44.1337H31.5075C32.2804 44.1337 32.6669 43.8212 32.6669 43.1961C32.6748 43.0684 32.6536 42.9407 32.6047 42.8209C32.5558 42.7011 32.4803 42.592 32.3829 42.5004C32.1386 42.3144 31.824 42.2242 31.5075 42.2494H30.381L30.3942 44.1337Z" />
<path d="M40.0098 46.1502H37.2977L36.8187 47.3963H35.3916L37.8824 41.2744H39.4251L41.9059 47.3963H40.4788L40.0098 46.1502ZM39.6464 45.2125L38.6554 42.5992L37.6643 45.2125H39.6464Z" />
<path d="M49.3228 47.3965H47.9717L44.9425 43.1862V47.3965H43.5947V41.2051H44.9425L47.9717 45.4396V41.2051H49.3228V47.3965Z" />
<path d="M57.0325 45.9148C56.7531 46.3822 56.3275 46.7625 55.8102 47.0067C55.2221 47.2786 54.5694 47.4127 53.9107 47.3968H51.5059V41.2054H53.9107C54.5683 41.1896 55.2201 41.3204 55.8102 41.5865C56.3274 41.8251 56.7535 42.2016 57.0325 42.6663C57.3106 43.1698 57.4555 43.7262 57.4555 44.2905C57.4555 44.8548 57.3106 45.4112 57.0325 45.9148ZM55.4865 45.7665C55.8721 45.3552 56.0841 44.8311 56.0841 44.289C56.0841 43.7469 55.8721 43.2228 55.4865 42.8115C55.0204 42.4389 54.4126 42.2498 53.7951 42.2852H52.857V46.2928H53.7951C54.4126 46.3282 55.0204 46.1391 55.4865 45.7665Z" />
<path d="M40.8555 6.7666C40.8555 6.7666 58.2941 12.7947 57.9242 21.5178V36.2721C57.9242 36.2721 40.4987 30.2409 40.8621 21.5178L40.8555 6.7666Z" />
<path d="M73.46 32.8181C76.7534 30.7428 80.5629 29.4574 84.5396 29.0796V24.4609C79.9575 26.0779 76.0705 29.0098 73.46 32.8181Z" />
<path d="M71.4813 34.2094C74.1769 29.2395 78.8501 25.4045 84.5396 23.493V10.1846C84.5396 10.1846 59.7047 18.7716 60.2299 31.1938V52.2C60.2299 52.2 61.3365 51.8159 63.0774 51.096C63.0774 50.4246 63.0774 49.747 63.1567 49.0665C63.6707 43.2995 66.665 37.9554 71.4813 34.2094Z" />
<path d="M69.1197 42.013C69.2502 40.5561 69.5413 39.1151 69.9885 37.7119C66.9896 40.947 65.1734 44.9613 64.7956 49.1905C64.7592 49.5897 64.7394 49.989 64.7295 50.4003C66.14 49.7803 67.7818 49.006 69.5062 48.0956C69.0662 46.0947 68.936 44.0471 69.1197 42.013Z" />
<path d="M70.1076 42.0886C69.9423 43.9289 70.0456 45.7812 70.4149 47.5965C77.2 43.8792 84.8243 38.1354 84.5303 31.1938V30.5889C79.6825 31.0855 75.147 33.0259 71.6206 36.1119C70.795 38.0243 70.285 40.0386 70.1076 42.0886Z" />
</symbol>
<!-- Bottom logotypes 6 -->
<symbol width="106" height="60" viewBox="0 0 106 60" id="logo-6">
<path d="M53.4255 27.4081C52.9824 26.8183 52.7704 26.1212 52.8207 25.4195V22.5363C52.8207 21.6525 53.0212 20.9808 53.4221 20.5213C53.8229 20.0618 54.5114 19.833 55.4876 19.835C56.4048 19.835 57.056 20.0305 57.441 20.4216C57.861 20.9206 58.0653 21.5307 58.0185 22.1462V22.8238H56.3777V22.1374C56.3835 21.9128 56.3676 21.6881 56.3301 21.4657C56.3065 21.3137 56.2239 21.1731 56.0957 21.0669C55.9272 20.9523 55.7149 20.8968 55.5012 20.9114C55.2764 20.8969 55.0534 20.9555 54.8761 21.0757C54.7332 21.1933 54.6379 21.3476 54.6043 21.5156C54.5572 21.7509 54.5356 21.9896 54.5398 22.2283V25.7275C54.5139 26.065 54.5863 26.4028 54.7504 26.71C54.832 26.814 54.9453 26.8964 55.0778 26.9482C55.2104 26.9999 55.3569 27.019 55.5012 27.0034C55.7114 27.0183 55.92 26.9614 56.0821 26.845C56.2158 26.7304 56.3018 26.5809 56.3267 26.4197C56.365 26.1875 56.3821 25.9531 56.3777 25.7187V25.0089H58.0185V25.6571C58.0646 26.2986 57.8653 26.9355 57.4512 27.4697C57.0741 27.8979 56.432 28.112 55.4876 28.112C54.5431 28.112 53.8297 27.8833 53.4255 27.4081Z" />
<path d="M60.2565 27.4374C59.842 26.9887 59.6348 26.3346 59.6348 25.4694V22.4366C59.6348 21.5801 59.842 20.9319 60.2565 20.492C60.6709 20.052 61.3639 19.833 62.3355 19.835C63.3003 19.835 63.9899 20.054 64.4044 20.492C64.8189 20.9319 65.0295 21.5801 65.0295 22.4366V25.4694C65.0295 26.3258 64.8189 26.9828 64.3976 27.4345C63.9764 27.8862 63.2901 28.112 62.3355 28.112C61.3809 28.112 60.6743 27.8833 60.2565 27.4374ZM63.0999 26.71C63.2483 26.4289 63.3159 26.121 63.2969 25.8125V22.0993C63.316 21.7968 63.2495 21.4948 63.1033 21.2194C63.02 21.1132 62.9039 21.0295 62.7682 20.9776C62.6324 20.9257 62.4825 20.9079 62.3355 20.9261C62.1881 20.9083 62.0379 20.9264 61.9017 20.9782C61.7655 21.03 61.6487 21.1135 61.5644 21.2194C61.415 21.494 61.3472 21.7964 61.3673 22.0993V25.8301C61.3467 26.1387 61.4144 26.447 61.5644 26.7276C61.66 26.8223 61.778 26.8981 61.9105 26.95C62.0429 27.002 62.1867 27.0289 62.3321 27.0289C62.4776 27.0289 62.6214 27.002 62.7538 26.95C62.8862 26.8981 63.0042 26.8223 63.0999 26.7276V26.71Z" />
<path d="M67.0034 19.9238H68.77L70.0983 25.5195L71.4572 19.9238H73.1762L73.3495 28.0005H72.0789L71.943 22.3873L70.6317 28.0005H69.6125L68.2536 22.3668L68.1279 28.0005H66.8438L67.0034 19.9238Z" />
<path d="M75.3305 19.9238H78.0822C79.6676 19.9238 80.4603 20.6883 80.4603 22.2172C80.4603 23.6816 79.6257 24.4128 77.9565 24.4109H77.0189V28.0005H75.3203L75.3305 19.9238ZM77.6814 23.3756C77.8492 23.394 78.0196 23.3807 78.1809 23.3367C78.3422 23.2926 78.4905 23.2189 78.6156 23.1205C78.8104 22.8477 78.8963 22.5273 78.8602 22.2084C78.8691 21.962 78.8417 21.7157 78.7786 21.4752C78.7544 21.3949 78.7119 21.3196 78.6536 21.2536C78.5952 21.1877 78.5223 21.1324 78.4389 21.0911C78.2031 20.9934 77.9425 20.949 77.6814 20.962H77.0223V23.3756H77.6814Z" />
<path d="M82.909 19.9238H84.7332L86.6051 28.0005H85.022L84.6517 26.1383H83.0245L82.644 28.0005H81.0371L82.909 19.9238ZM84.4683 25.2027L83.833 21.8125L83.1977 25.2027H84.4683Z" fill="#AFB1B8"/>
<path d="M88.1177 19.9238H89.3067L91.5828 24.5311V19.9238H92.9927V28.0005H91.8614L89.5717 23.1909V28.0005H88.1143L88.1177 19.9238Z" />
<path d="M96.2946 24.9204L94.4023 19.9346H95.9956L97.1507 23.1373L98.2344 19.9346H99.7937L97.9252 24.9204V28H96.2946V24.9204Z" />
<path d="M56.0474 31.5312V31.9536H54.6613V35.2355H54.0804V31.9536H52.6875V31.5312H56.0474Z" />
<path d="M60.3926 35.2363H59.9441C59.8986 35.2388 59.8536 35.2262 59.8184 35.2011C59.7845 35.1796 59.7585 35.1501 59.7437 35.1161L59.3428 34.2362H57.42L57.0191 35.1161C57.0077 35.1529 56.9868 35.187 56.9579 35.2158C56.9224 35.2403 56.8777 35.2529 56.8322 35.251H56.3838L58.0824 31.5469H58.6735L60.3926 35.2363ZM57.5796 33.8608H59.1831L58.5037 32.3534C58.4536 32.2394 58.4116 32.1228 58.378 32.0044C58.3542 32.0748 58.3338 32.1422 58.3134 32.2009L58.2523 32.3563L57.5796 33.8608Z" />
<path d="M63.3213 34.8724C63.4277 34.8772 63.5342 34.8772 63.6406 34.8724C63.7325 34.8642 63.8234 34.8495 63.9124 34.8284C63.9956 34.8107 64.0774 34.7882 64.157 34.7609C64.2317 34.7345 64.3065 34.7022 64.3846 34.67V33.8369H63.7052C63.6884 33.8378 63.6715 33.8356 63.6558 33.8305C63.64 33.8255 63.6256 33.8177 63.6134 33.8076C63.6023 33.7993 63.5935 33.7889 63.5876 33.7772C63.5817 33.7655 63.5789 33.7529 63.5795 33.7401V33.4556H64.8976V34.8753C64.79 34.9417 64.6764 35.0006 64.5579 35.0513C64.4367 35.1029 64.3106 35.1451 64.1808 35.1774C64.0418 35.2127 63.8998 35.2382 63.7561 35.2537C63.5914 35.2695 63.4258 35.2773 63.2601 35.2771C62.9671 35.2793 62.6764 35.2325 62.404 35.1393C62.1497 35.051 61.9186 34.9193 61.7246 34.7521C61.5355 34.5832 61.3866 34.3839 61.2863 34.1655C61.1793 33.9199 61.1263 33.6593 61.1301 33.397C61.1265 33.133 61.1783 32.8706 61.2829 32.6226C61.3807 32.4031 61.5299 32.2033 61.7212 32.036C61.9151 31.8693 62.1462 31.7386 62.4006 31.6517C62.6915 31.5572 63.0003 31.5105 63.3111 31.5138C63.4692 31.5137 63.6272 31.5245 63.7833 31.5461C63.9214 31.5655 64.0568 31.597 64.1876 31.64C64.3064 31.6785 64.4203 31.7277 64.5273 31.7866C64.6314 31.8445 64.7302 31.9092 64.8229 31.9802L64.6598 32.209C64.647 32.2299 64.628 32.2475 64.6047 32.2598C64.5814 32.2722 64.5547 32.279 64.5273 32.2794C64.4897 32.2784 64.4532 32.2682 64.422 32.2501C64.371 32.2266 64.3167 32.1973 64.2555 32.1621C64.1833 32.123 64.1071 32.0896 64.0279 32.0624C63.9266 32.0273 63.8221 31.9998 63.7154 31.9802C63.5731 31.9576 63.4286 31.9468 63.2839 31.948C63.0598 31.9458 62.8372 31.9807 62.6283 32.0506C62.4392 32.1161 62.2688 32.2162 62.1289 32.3439C61.9881 32.4771 61.8805 32.6339 61.8129 32.8045C61.6611 33.2056 61.6611 33.6381 61.8129 34.0393C61.8873 34.2135 62.003 34.3724 62.1526 34.5057C62.292 34.6328 62.4611 34.7328 62.6486 34.799C62.8647 34.8631 63.0936 34.888 63.3213 34.8724Z" />
<path d="M68.7363 34.8132H70.5912V35.2355H68.1689V31.5312H68.7499L68.7363 34.8132Z" />
<path d="M72.5204 35.2355H71.9395V31.5312H72.5204V35.2355Z" />
<path d="M74.6816 31.5489C74.7161 31.5659 74.7462 31.5888 74.77 31.6163L77.2533 34.4086C77.2499 34.3647 77.2499 34.3206 77.2533 34.2767C77.2533 34.2356 77.2533 34.1945 77.2533 34.1564V31.5166H77.7595V35.2358H77.4673C77.424 35.2388 77.3806 35.2317 77.3416 35.2153C77.3063 35.1968 77.2753 35.1729 77.2499 35.1449L74.77 32.3555C74.77 32.3995 74.77 32.4405 74.77 32.4816C74.77 32.5227 74.77 32.5608 74.77 32.596V35.2358H74.2842V31.5313H74.5865C74.6193 31.5313 74.6517 31.5373 74.6816 31.5489Z" />
<path d="M82.0365 31.5312V31.9389H79.9778V33.162H81.6458V33.555H79.9778V34.8191H82.0365V35.2268H79.3799V31.5312H82.0365Z" />
<path d="M21.1613 8.65538L46.9564 14.9787V37.1367L21.1613 30.8163V8.65538ZM19.5068 6.7666V31.8927L48.6074 39.0284V13.9053L19.5068 6.7666Z" />
<path d="M35.1039 50.6919L6 43.5502V18.4268L35.1039 25.5655V50.6919Z" />
<path d="M19.9897 8.37086L45.4484 14.6149L34.6215 23.9648L9.1594 17.7178L19.9897 8.37086ZM19.5073 6.7666L6 18.4276L35.1039 25.5661L48.6078 13.9051L19.5073 6.7666Z" />
<path d="M36.7412 49.2786L48.6076 39.0314L36.7412 36.1191V49.2786Z" />
</symbol>


</svg>